<?xml version="1.0" encoding="UTF-8"?>
<svg xmlns="http://www.w3.org/2000/svg" viewBox="0 0 404.52 259.32">
  <!-- Purple pentagon background -->
  <polygon fill="#7030a0" fill-rule="evenodd" points="370.56 15.6 370.56 192.45 191.52 254.88 12.48 192.45 12.48 15.6 370.56 15.6"/>

  <!-- Arabic م white text -->
  <path fill="#ffffff" d="m166.64,163.26c-1.1,1-2.3,1.75-3.59,2.23-1.29.49-2.6.78-3.93.87-1.33.1-2.41.15-3.25.15h-16.97c-2.26,0-3.98-.23-5.14-.68-1.16-.45-1.96-1.08-2.38-1.89-.42-.81-.55-1.75-.39-2.81.16-1.07.47-2.21.92-3.44l7.86-20.46-23.47,25.8c-1.68,1.81-3.28,3.01-4.8,3.59-1.52.58-3.28.74-5.29.49-1.49-.19-2.64-.58-3.44-1.16-.81-.58-1.36-1.31-1.65-2.18-.29-.87-.37-1.84-.24-2.91.13-1.07.39-2.12.78-3.15l11.64-30.07-29.19,35.3c-.06.07-.36.37-.87.92-.52.55-1.46,1.13-2.81,1.75-1.36.62-3.01.92-4.95.92h-9.6l19.11-54.7h-26.28l7.18-11.93h31.62c1.16,0,2.23.11,3.2.34s1.75.68,2.33,1.36.9,1.62.97,2.81c.06,1.2-.23,2.76-.87,4.7l-10.18,29.39,20.37-23.08c1.03-1.16,2.02-2.25,2.96-3.25.94-1,1.95-1.84,3.06-2.52,1.1-.68,2.34-1.21,3.73-1.6,1.39-.39,3.12-.58,5.19-.58.26,0,.82.11,1.7.34.87.23,1.7.73,2.47,1.5.78.78,1.31,1.88,1.6,3.3.29,1.42-.02,3.33-.92,5.72l-9.21,23.86,18.23-18.33c1.1-1.1,2.04-2.04,2.81-2.81.78-.78,1.57-1.39,2.38-1.84.81-.45,1.7-.78,2.67-.97.97-.19,2.2-.29,3.69-.29.26,0,.86.13,1.79.39.94.26,1.83.79,2.67,1.6.84.81,1.44,1.94,1.79,3.39.35,1.45.08,3.38-.82,5.77l-11.35,29.87h21.34c-.52,1.88-1.33,3.31-2.42,4.32Z"/>

  <!-- White ي text block -->
  <path fill="#ffffff" d="m186.08,164.62c-.47.51-.98.9-1.52,1.18s-1.09.46-1.64.56c-.56.1-1.03.15-1.42.15h-9.45c-1.31,0-2.28-.4-2.91-1.2-.64-.8-.69-1.93-.17-3.4l4.16-11.66h8.67l-4.41,12.44h9.75c-.23.78-.58,1.43-1.05,1.93Zm-1.15-21.95c-.33.7-.78,1.32-1.35,1.84-.57.52-1.24.93-2.01,1.22-.77.29-1.59.44-2.47.44s-1.71-.15-2.47-.44c-.77-.29-1.44-.7-2.03-1.22-.59-.52-1.05-1.13-1.37-1.84-.33-.7-.49-1.44-.49-2.23s.16-1.53.49-2.23c.33-.7.78-1.31,1.37-1.84s1.27-.93,2.03-1.22c.77-.29,1.59-.44,2.47-.44s1.71.15,2.47.44c.77.29,1.44.7,2.01,1.22.57.52,1.02,1.13,1.35,1.84.33.7.49,1.45.49,2.23s-.16,1.53-.49,2.23Z"/>
  <path fill="#ffffff" d="m216.86,165.6c-1.08.6-2.29.91-3.62.91h-9.11c-.39,0-.82-.03-1.27-.1-.46-.07-.88-.19-1.27-.37-.39-.18-.71-.43-.95-.76s-.37-.76-.37-1.28c-.85,1.02-1.9,1.79-3.16,2.31-1.26.52-2.56.79-3.89.79-1.89,0-3.46-.54-4.7-1.62-1.24-1.08-1.86-2.61-1.86-4.58s.39-3.48,1.18-4.83c.78-1.35,1.8-2.46,3.06-3.33,1.26-.87,2.68-1.52,4.26-1.95,1.58-.43,3.19-.64,4.83-.64h5l4.46-12.64h8.72l-8.91,25.18h9.89c-.43,1.34-1.18,2.31-2.25,2.91Zm-19.3-11.63l-1.81,5.2c-.36.99-.38,1.73-.05,2.23.33.5.78.83,1.37,1.02s1.22.27,1.91.27h1.62l3.04-8.72h-6.07Z"/>

  <!-- White د text -->
  <path fill="#ffffff" d="m247.73,165.7c-1.01.54-2.24.81-3.67.81h-9.06c-.39,0-.82-.03-1.27-.1-.46-.07-.88-.19-1.27-.37-.39-.18-.71-.43-.96-.76-.25-.33-.37-.76-.37-1.28-.82.95-1.78,1.69-2.89,2.22-1.11.52-2.29.79-3.53.79-1.86,0-3.37-.57-4.53-1.72-1.16-1.15-1.74-2.66-1.74-4.53,0-1.77.35-3.33,1.05-4.66.7-1.33,1.62-2.43,2.77-3.3,1.14-.87,2.46-1.53,3.97-1.97,1.5-.44,3.04-.67,4.6-.67h13.67l-4.51,12.54h9.94c-.46,1.47-1.19,2.47-2.2,3.01Zm-18.52-11.73l-1.67,5.65c-.23.76-.23,1.35,0,1.76.23.41.57.72,1.03.92.46.2.96.31,1.49.35.54.03,1,.05,1.4.05l3.04-8.72h-5.29Z"/>

  <!-- White ن text -->
  <path fill="#ffffff" d="m281.55,164.62c-.51.51-1.05.9-1.64,1.18s-1.18.46-1.76.56c-.59.1-1.08.15-1.47.15h-9.55c-1.5,0-2.48-.32-2.94-.96-.46-.64-.46-1.59,0-2.87l1.81-5.14-8.23,6.96c-.62.42-1.16.76-1.62,1s-.97.47-1.54.69c-.57.21-1.1.32-1.59.32h-4.41l5.73-16.26h8.62l-2.69,7.64,7.3-5.98c.85-.69,1.76-1.26,2.74-1.71.98-.46,2.2-.65,3.67-.59.39,0,.77.09,1.13.27s.65.45.88.81c.23.36.35.82.37,1.37.02.56-.12,1.22-.42,2.01l-3.09,8.62h9.8c-.23.78-.6,1.43-1.1,1.93Z"/>

  <!-- Teal symbol -->
  <path fill="#00b09b" d="m200.47,100.32c0,1.66-1.5,4-4.5,7.03l-17.02,17.34c-1.78,1.81-3.53,2.72-5.25,2.72-1.62,0-3.39-.92-5.3-2.77l-15.61-15.42c-2-1.97-3-3.34-3-4.12,0-1.31.78-2.72,2.34-4.22l8.81-8.53-2.16,3.84c-.56,1-.97,1.84-1.22,2.51-.25.67-.38,1.18-.38,1.52,0,.97.89,2.31,2.67,4.03l12.89,12.75c2.19,2.12,3.59,3.19,4.22,3.19.5,0,1.64-.91,3.42-2.72l9.38-9.56c1.22-1.25,1.83-2.5,1.83-3.75s-.52-2.7-1.55-4.55l-2.95-5.2c-1.47-2.59-2.2-4.75-2.2-6.47,0-1.03.27-2.03.8-3,.53-.97,1.2-1.91,1.99-2.81.8-.91,1.68-1.79,2.65-2.65.97-.86,1.91-1.71,2.81-2.55-.34,1.12-.52,2.34-.52,3.66,0,1.09.69,2.98,2.06,5.67l4.31,8.44c.97,1.91,1.45,3.78,1.45,5.62Zm-23.67-11.2c0,.81-.81,2.47-2.44,4.97-1.19-1.59-2.75-2.8-4.69-3.61-1.38-.56-2.06-1.31-2.06-2.25,0-.75,1.83-2.61,5.48-5.58.03.56.25,1.13.66,1.71.41.58.83,1.14,1.27,1.69.44.55.84,1.08,1.22,1.59s.56,1.01.56,1.48Z"/>
  <path fill="#00b09b" d="m227.9,106.13c-.62.81-2.91,1.22-6.84,1.22-2.28,0-4.19-.15-5.72-.45s-2.76-.8-3.68-1.5-1.58-1.63-1.97-2.79-.59-2.58-.59-4.27v-29.34c0-2-1.8-6.17-5.39-12.52,2.41,0,5.84-2.75,10.31-8.25v44.91c0,1.56.14,2.94.42,4.12s.77,2.23,1.45,3.14,1.6,1.7,2.74,2.39,2.57,1.31,4.29,1.88c.59.19,1.3.39,2.13.61s1.77.5,2.84.84Z"/>
  <path fill="#00b09b" d="m282.7,107.35h-48.28v-11.48c4.06,2.97,8.17,4.45,12.33,4.45h21.23l-1.92-3.8h-18.05c-2.75,0-5.08-1.92-6.98-5.77l-3.75-7.45c-.62-1.19-1.62-2.12-3-2.81l6.14-6.09,5.86,11.81c1.06,2.19,2.55,3.28,4.45,3.28h19.64c.81,0,1.77,1.17,2.86,3.52l3.38,7.31h6.09v7.03Z"/>
  <path fill="#00b09b" d="m308.91,107.35h-7.45c-.25.34-.6.76-1.05,1.24s-.99,1.02-1.62,1.62l-7.27,6.84c-.19-.84-.62-1.83-1.29-2.95s-1.45-2.19-2.34-3.19-1.8-1.84-2.74-2.53-1.77-1.03-2.48-1.03h-3.28v-7.03h3.14c1.12,0,3.08,1.41,5.86,4.22l4.83,4.97c.53-.72.8-1.44.8-2.16,0-.59-.52-1.95-1.55-4.08l-2.06-4.17c-1.59-3.22-2.39-5.37-2.39-6.47,0-1.91.77-3.72,2.3-5.44l5.81-5.58c-.44,1.47-.66,2.69-.66,3.66,0,1.16.67,3.06,2.02,5.72l3.09,6.19c.34.72.64,1.34.89,1.85s.44.95.56,1.29h6.89v7.03Zm-19.08,15.14c0,.81-.81,2.47-2.44,4.97-1.19-1.59-2.75-2.8-4.69-3.61-1.38-.56-2.06-1.31-2.06-2.25,0-.75,1.83-2.61,5.48-5.58.03.56.25,1.13.66,1.71s.83,1.14,1.27,1.69.84,1.08,1.22,1.59.56,1.01.56,1.48Zm10.83,0c0,.81-.81,2.47-2.44,4.97-1.19-1.59-2.75-2.8-4.69-3.61-1.38-.56-2.06-1.31-2.06-2.25,0-.75,1.83-2.61,5.48-5.58.03.56.25,1.13.66,1.71s.83,1.14,1.27,1.69.84,1.08,1.22,1.59.56,1.01.56,1.48Z"/>
  <path fill="#00b09b" d="m339.94,107.35h-34.31v-7.03h4.41l-.84-1.78c-.5-.87-.75-1.7-.75-2.48,0-1.66.69-3.17,2.06-4.55l17.16-17.25c-.69,1.88-1.03,3.67-1.03,5.39,0,1.31.94,3.77,2.81,7.36l10.5,20.34Zm-13.17-7.03l-3.23-6.38c-1.03-2-1.55-3.52-1.55-4.55-.03.03-.2.2-.52.52-.31.31-.65.68-1.01,1.1s-.69.84-.98,1.27-.45.76-.45,1.01c0,.81.28,1.75.84,2.81l2.2,4.22c.5.03.96.05,1.38.05h2.34c.33,0,.65-.02.96-.05Z"/>
</svg>
