<?xml version="1.0" encoding="utf-8"?>
<!-- Generator: Adobe Illustrator 27.3.1, SVG Export Plug-In . SVG Version: 6.00 Build 0)  -->
<svg version="1.1" id="Layer_1" xmlns="http://www.w3.org/2000/svg" xmlns:xlink="http://www.w3.org/1999/xlink" x="0px" y="0px"
	 viewBox="0 0 381 189" style="enable-background:new 0 0 381 189;" xml:space="preserve">
<style type="text/css">
	.st0{fill:#276AA6;}
	.st1{fill:#2169A5;}
	.st2{fill:#2A69A4;}
</style>
<g>
	<path class="st0" d="M330.7,44.2V83h-16c1.3-1.9,2-4.2,2-6.6c0-6.6-5.4-12-12-12s-12,5.4-12,12c0,2.5,0.7,4.7,2,6.6h-23.8V64.3
		h-7.7V83h-89.9V44.2h-7.7v46.5h172.6V44.2H330.7z M304.8,83c-3.5,0-6.3-2.8-6.3-6.3c0-3.5,2.8-6.3,6.3-6.3c3.5,0,6.3,2.8,6.3,6.3
		C311.1,80.1,308.3,83,304.8,83z"/>
	<path class="st0" d="M165.7,108.8v4.5c-0.3-0.2-0.5-0.5-0.8-0.7c-2.2-1.8-4.9-3-7.9-3.5c-1-0.2-2.1-0.3-3.1-0.3
		c-1.6,0-3.1,0.2-4.5,0.6c-2.4,0.6-4.6,1.8-6.5,3.2c-2.6,2.1-4.7,4.9-5.8,8.2c-0.6,1.8-0.9,3.7-0.9,5.7c0,8.2,5.6,15.1,13.2,17.1
		c1.5,0.4,3,0.6,4.5,0.6c1.1,0,2.1-0.1,3.1-0.3c3.3-0.6,6.3-2.1,8.7-4.2v5.1h7.7v-36H165.7z M165.7,128.5c-0.9,4.4-4.3,7.9-8.7,8.8
		c-0.8,0.2-1.6,0.3-2.5,0.3c-1.9,0-3.6-0.4-5.2-1.2c-3.7-1.9-6.2-5.7-6.2-10.1c0-2,0.5-3.8,1.4-5.4c1.1-2,2.8-3.7,4.8-4.7
		c1.5-0.8,3.3-1.2,5.2-1.2c0.8,0,1.7,0.1,2.5,0.3c3.3,0.7,6,2.8,7.6,5.7c0.5,1,0.9,2,1.1,3.1c0.2,0.7,0.2,1.5,0.2,2.3
		C166,127,165.9,127.7,165.7,128.5z"/>
	<path class="st0" d="M246.6,108.8v4.7c-0.3-0.3-0.7-0.6-1-0.9c-3-2.4-6.8-3.8-11-3.8c-4.2,0-8,1.4-11,3.8c-2.6,2.1-4.7,4.9-5.8,8.2
		c-0.6,1.8-0.9,3.7-0.9,5.7c0,9.8,7.9,17.7,17.7,17.7c4.7,0,8.9-1.8,12-4.7v5.3h7.7v-36H246.6z M235.2,137.6
		c-6.3,0-11.4-5.1-11.4-11.4c0-2,0.5-3.8,1.4-5.4c1.9-3.6,5.7-6,10-6c4.3,0,8.1,2.4,10,6c0.9,1.6,1.4,3.5,1.4,5.4
		C246.6,132.5,241.5,137.6,235.2,137.6z"/>
	<path class="st0" d="M330.7,108.8v4.7c-0.3-0.3-0.7-0.6-1-0.9c-3-2.4-6.8-3.8-11-3.8c-4.2,0-8,1.4-11,3.8c-2.6,2.1-4.7,4.9-5.8,8.2
		c-0.6,1.8-0.9,3.7-0.9,5.7c0,9.8,7.9,17.7,17.7,17.7c4.7,0,8.9-1.8,12-4.7v5.3h7.7v-36H330.7z M319.3,137.6
		c-6.3,0-11.4-5.1-11.4-11.4c0-2,0.5-3.8,1.4-5.4c1.9-3.6,5.7-6,10-6c4.3,0,8.1,2.4,10,6c0.9,1.6,1.4,3.5,1.4,5.4
		C330.7,132.5,325.6,137.6,319.3,137.6z"/>
	<path class="st0" d="M369,109.4l-1.3,3.2l-1.2,2.8c-1-0.4-2.1-0.6-3.3-0.6c-3.9,0-7.2,2.5-8.5,6c-0.3,0.9-0.5,2-0.5,3v21h-7.7v-36
		h7.7v5.2c0.3-0.5,0.6-0.9,0.9-1.3c1.4-1.8,3.3-3.1,5.5-3.8c1.1-0.3,2.2-0.5,3.4-0.5s2.3,0.2,3.4,0.5
		C367.9,108.9,368.5,109.1,369,109.4z"/>
	<path class="st0" d="M206.7,120.9c0,7.9-0.1,15.9-0.1,23.9h-7.7v-24h-3.1v-8.2h3.1v-6.7c0-5,3.2-9.2,7.7-10.8
		c1.2-0.4,2.4-0.6,3.7-0.6h8.7l-1.3,2.8l-2.6,5.8c-1.5-1.3-3.5-2-5.6-2c-1,0-2,0.2-2.9,0.5v11.1h8.8c0,2.9,0,5.4,0,8.3
		C214.7,120.9,209.7,120.9,206.7,120.9z"/>
	<rect x="182.9" y="94.5" class="st0" width="7.7" height="50.3"/>
	<path class="st0" d="M294.4,120.8L294.4,120.8l0,24h-7.7V122c-0.1-0.4-0.2-0.8-0.4-1.2c-1.2-2.9-4.1-5-7.5-5c-3.4,0-6.3,2-7.5,5
		c-0.2,0.4-0.3,0.8-0.4,1.3v22.8h-7.7v-36h7.7v3.8h2.9c2.2-2.4,5.3-3.8,8.7-3.8c1.5,0,2.9,0.3,4.2,0.8c1.8,0.7,3.3,1.7,4.5,3.1
		c1.9,2.1,3.1,4.9,3.1,8C294.4,120.7,294.4,120.7,294.4,120.8z"/>
	<line class="st0" x1="149.4" y1="78.9" x2="149.4" y2="76.1"/>
	<line class="st0" x1="165.7" y1="128.5" x2="165.7" y2="123.9"/>
	<rect x="346.5" y="44.2" class="st0" width="7.7" height="46.5"/>
	<path class="st1" d="M157,64.1l0,16.7c0,1.3-0.4,2.6-1.1,3.7c-1.5,2.4-3.8,4.3-6.6,5.3c-1.4,0.5-2.9,0.8-4.5,0.8
		c-3.2,0-6.1-1.1-8.4-3.1c-2.6-2.2-2.3-2.8,1-1.6c1,0.3,2,0.5,3.1,0.5c4.5,0,8.6-3.3,8.9-7.6c0-0.4,0-1.5,0-1.9c0-0.5,0-0.3,0-0.8
		v-12H157z"/>
	<circle class="st0" cx="303.9" cy="53.9" r="3.8"/>
	<path class="st0" d="M239.3,53.9c0,2.1-1.7,3.8-3.8,3.8c-2.1,0-3.8-1.7-3.8-3.8s1.7-3.8,3.8-3.8C237.6,50.2,239.3,51.8,239.3,53.9z
		"/>
</g>
<g>
	<path class="st2" d="M30.2,49.6v17.3H13.2C17.4,59.9,23.2,53.9,30.2,49.6z"/>
	<path class="st2" d="M56.1,41.8v25.1H32.7V48.1C39.7,44.3,47.6,42,56.1,41.8z"/>
	<path class="st2" d="M82,48.1v18.8H58.6V41.8C67.1,42,75,44.2,82,48.1z"/>
	<path class="st2" d="M101.5,66.9H84.6V49.6C91.5,53.9,97.3,59.9,101.5,66.9z"/>
	<path class="st2" d="M108.6,91.8H84.6V69.5h18.3C106.4,76.2,108.5,83.8,108.6,91.8z"/>
	<path class="st2" d="M30.2,94.4v23.8H12.6c-4-7.1-6.3-15.2-6.5-23.8H30.2z"/>
	<path class="st2" d="M30.2,69.5v22.3H6.1c0.2-8,2.2-15.6,5.7-22.3H30.2z"/>
	<path class="st2" d="M30.2,120.8v15.8c-6.4-4-11.9-9.4-16-15.8H30.2z"/>
	<path class="st2" d="M56.1,120.8v23.6c-8.5-0.2-16.4-2.5-23.4-6.3v-17.3H56.1z"/>
	<path class="st0" d="M108.6,94.4c-0.3,12.4-5,23.7-12.6,32.4l-1.3,1.3l-1.3-1.3l-8.6-8.6l-0.3-0.3V94.4H108.6z"/>
	<polygon class="st2" points="62.8,100.9 58.6,100.9 58.6,96.8 	"/>
	<polygon class="st2" points="71.9,110 58.6,110 58.6,103.5 65.3,103.5 	"/>
	<polygon class="st2" points="80.1,118.2 58.6,118.2 58.6,112.6 74.5,112.6 78.4,116.6 	"/>
	<polygon class="st2" points="88.6,126.8 58.6,126.8 58.6,120.8 82.6,120.8 84.6,122.7 	"/>
	<polygon class="st2" points="97.2,135.3 58.6,135.3 58.6,129.3 91.2,129.3 92.4,130.5 	"/>
	<path class="st2" d="M106.2,144.4H58.6v-6.5H82v0.2c0.1-0.1,0.3-0.1,0.4-0.2h17.3L106.2,144.4z"/>
	<path class="st2" d="M82,95.1v20.2l0,0l-1.2-1.2l-1.5-1.5l-2.6-2.6L65.2,98.5c2.8-2.1,6.3-3.4,10.1-3.4H82z"/>
	<path class="st2" d="M56.1,117.5v-5.7c0-9.2-7.4-16.6-16.6-16.6h-6.8v22.3H56.1z"/>
	<path class="st2" d="M58.6,69.5v5.7c0,9.2,7.4,16.6,16.6,16.6H82V69.5H58.6z"/>
	<path class="st2" d="M56.1,69.5v5.7c0,9.2-7.4,16.6-16.6,16.6h-6.8V69.5H56.1z"/>
</g>
</svg>
