<svg width="156" height="46" viewBox="0 0 156 46" fill="none" xmlns="http://www.w3.org/2000/svg">
<path d="M145.982 3.0188H142.547V21.5625H145.982V3.0188Z" fill="white"/>
<path d="M150.418 32.0562L151.993 29.1812C150.705 28.4625 149.56 28.3187 148.272 28.6062C147.127 28.8937 146.411 29.4687 145.839 30.475V28.8937H142.547V43.5562H145.982V35.2187C145.982 33.925 146.411 32.9187 147.127 32.2C147.985 31.4812 149.13 31.4812 150.418 32.0562Z" fill="white"/>
<path d="M139.538 3.0188H136.246V18.5438H129.662C129.949 18.2563 130.235 17.825 130.521 17.25C130.807 16.8188 130.95 16.2438 130.95 15.5251C130.95 14.0876 130.521 12.9375 129.519 11.9313C128.517 10.925 127.372 10.4938 125.941 10.4938C124.51 10.4938 123.365 10.925 122.363 11.9313C121.361 12.9375 120.932 14.0876 120.932 15.5251C120.932 16.2438 121.075 16.8188 121.361 17.3938C121.648 17.9688 121.934 18.2563 122.22 18.5438H112.631V11.0688H109.339V18.5438H72.9871V3.0188H69.6953V21.5625H139.394V3.0188H139.538ZM125.655 18.5438C125.082 18.5438 124.51 18.4 124.081 17.825C123.651 17.3938 123.365 16.8188 123.365 16.1C123.365 15.3813 123.508 14.8063 124.081 14.375C124.51 13.9438 125.082 13.6563 125.798 13.6563C126.514 13.6563 127.086 13.8 127.515 14.375C127.945 14.8063 128.231 15.3813 128.231 16.1C128.231 16.8188 127.945 17.3938 127.515 17.825C126.943 18.2563 126.371 18.5438 125.655 18.5438Z" fill="white"/>
<path d="M125.512 5.17505C125.082 5.17505 124.653 5.3188 124.367 5.6063C124.081 5.8938 123.938 6.32505 123.938 6.7563C123.938 7.18755 124.081 7.6188 124.367 7.9063C124.653 8.33755 125.082 8.62505 125.512 8.62505C125.941 8.62505 126.371 8.4813 126.657 8.05005C126.943 7.76255 127.086 7.3313 127.086 6.90005C127.086 6.4688 126.943 6.03755 126.657 5.75005C126.371 5.3188 125.941 5.17505 125.512 5.17505Z" fill="white"/>
<path d="M134.099 29.0375C133.383 28.6063 132.525 28.4625 131.523 28.4625C129.376 28.4625 127.659 29.1813 126.084 30.6188C124.653 32.0563 123.938 33.925 123.938 36.0813C123.938 38.2375 124.653 40.1063 126.084 41.5438C127.515 42.9813 129.376 43.7 131.523 43.7C132.668 43.7 133.526 43.5563 134.242 43.125C134.958 42.6938 135.673 42.1188 136.103 41.2563V43.2688H139.394V28.8938H136.103V30.9063C135.53 30.0438 134.958 29.4688 134.099 29.0375ZM128.804 33.0625C129.662 32.2 130.664 31.9125 131.809 31.9125C133.097 31.9125 134.099 32.3438 134.958 33.2063C135.816 34.0688 136.246 35.075 136.246 36.3688C136.246 37.5188 135.816 38.525 134.958 39.3875C134.099 40.25 133.097 40.6813 131.952 40.6813C130.664 40.6813 129.662 40.25 128.804 39.3875C127.945 38.525 127.515 37.5188 127.515 36.225C127.515 34.9313 127.945 33.925 128.804 33.0625Z" fill="white"/>
<path d="M121.792 35.7937C121.792 34.5 121.792 33.4937 121.649 32.775C121.506 32.0562 121.22 31.4812 120.934 30.9062C120.361 30.0437 119.789 29.4687 118.93 29.1812C118.214 28.75 117.212 28.6062 116.211 28.6062C115.352 28.6062 114.636 28.75 114.064 29.0375C113.348 29.325 112.776 29.9 112.346 30.6187V28.8937H109.055V43.5562H112.346V37.2312C112.346 35.2187 112.633 33.925 113.062 33.0625C113.635 32.2 114.35 31.9125 115.495 31.9125C116.64 31.9125 117.356 32.3437 117.785 33.0625C118.214 33.7812 118.501 35.075 118.501 37.0875V43.5562H121.935V35.7937H121.792Z" fill="white"/>
<path d="M97.8946 5.17505C97.4653 5.17505 97.0359 5.3188 96.7497 5.6063C96.4634 5.8938 96.3203 6.32505 96.3203 6.7563C96.3203 7.18755 96.4634 7.6188 96.7497 7.9063C97.0359 8.33755 97.4653 8.62505 97.8946 8.62505C98.324 8.62505 98.7533 8.4813 99.0396 8.05005C99.3258 7.76255 99.4689 7.3313 99.4689 6.90005C99.4689 6.4688 99.3258 6.03755 99.0396 5.75005C98.7533 5.3188 98.4671 5.17505 97.8946 5.17505Z" fill="white"/>
<path d="M91.3131 23.7187C90.3112 23.1437 89.0231 22.8562 87.4488 22.8562C85.7314 22.8562 84.5865 23.4312 84.014 24.15C83.2984 25.0125 83.0121 26.3062 83.0121 28.0312V30.6187H81.8672V33.6375H83.0121V43.5562H86.447V33.6375H89.7387V30.6187H86.447V28.0312C86.447 27.1687 86.7332 26.5937 87.1626 26.3062C87.7351 26.0187 88.5938 26.1625 89.7387 26.45L91.3131 23.7187Z" fill="white"/>
<path d="M62.9716 11.0687V15.8125C62.9716 17.6812 62.256 18.8312 60.9679 19.4062C59.823 19.8375 58.3918 19.8375 56.5312 19.4062C56.5312 20.5562 57.2468 21.4187 58.5349 21.9937C59.9661 22.5687 61.3973 22.5687 62.8285 21.9937C64.1166 21.5625 65.1184 20.7 65.5478 19.4062C65.9771 18.4 66.1202 17.1062 66.1202 15.3812V11.0687H62.9716Z" fill="white"/>
<path d="M69.6964 28.8937V30.9062C69.1239 30.0437 68.4083 29.4687 67.5496 29.1812C66.834 28.75 65.9753 28.6062 64.9735 28.6062C62.8267 28.6062 61.1092 29.325 59.678 30.7625C58.2468 32.2 57.5312 34.0687 57.5312 36.225C57.5312 38.3812 58.2468 40.25 59.678 41.6875C61.1092 43.125 62.9698 43.8437 65.1166 43.8437C66.2615 43.8437 67.1202 43.7 67.8358 43.2687C68.5514 42.8375 69.1239 42.2625 69.6964 41.4V43.4125H72.9881V28.8937H69.6964ZM65.4028 31.9125C66.6909 31.9125 67.6927 32.3437 68.4083 33.2062C69.267 34.0687 69.6964 35.075 69.6964 36.3687C69.6964 37.5187 69.267 38.525 68.4083 39.3875C67.5496 40.25 66.5478 40.6812 65.4028 40.6812C64.1147 40.6812 63.1129 40.25 62.2542 39.3875C61.3955 38.525 60.9661 37.5187 60.9661 36.225C60.9661 35.075 61.3955 34.0687 62.2542 33.2062C63.1129 32.3437 64.1147 31.9125 65.4028 31.9125Z" fill="white"/>
<path d="M102.47 28.8937V30.9062C101.897 30.0437 101.182 29.4687 100.323 29.1812C99.6074 28.75 98.7487 28.6062 97.7469 28.6062C95.6001 28.6062 93.8827 29.325 92.4515 30.7625C91.0203 32.2 90.3047 34.0687 90.3047 36.225C90.3047 38.3812 91.0203 40.25 92.5946 41.6875C94.0258 43.125 95.8863 43.8437 98.0331 43.8437C99.1781 43.8437 100.037 43.7 100.752 43.2687C101.468 42.8375 102.04 42.2625 102.613 41.4V43.4125H105.905V28.8937H102.47ZM101.182 33.0625C102.04 33.925 102.327 34.9312 102.327 36.225C102.327 37.375 101.897 38.3812 101.182 39.2437C100.323 40.1062 99.3212 40.5375 98.1762 40.5375C96.8882 40.5375 95.8863 40.1062 95.0276 39.2437C94.1689 38.3812 93.7396 37.375 93.7396 36.0812C93.7396 34.9312 94.1689 33.925 95.0276 33.0625C95.8863 32.2 96.8882 31.9125 98.0331 31.9125C99.3212 31.9125 100.323 32.3437 101.182 33.0625Z" fill="white"/>
<path d="M79.8621 23.2875H76.5703V43.5562H79.8621V23.2875Z" fill="white"/>
<path d="M35.9196 4.74375C32.9141 3.01875 29.7655 2.15625 26.1875 2.15625V11.9312H35.9196V4.74375Z" fill="white"/>
<path d="M25.4743 14.95V12.65H15.7422V22.425H18.0321C20.0358 22.425 21.8963 21.7063 23.3275 20.2688C24.7587 18.8313 25.4743 16.9625 25.4743 14.95Z" fill="white"/>
<path d="M26.3359 12.65V14.95C26.3359 16.9625 27.0515 18.8313 28.4827 20.2688C29.9139 21.7063 31.7745 22.425 33.7781 22.425H36.068V12.65H26.3359Z" fill="white"/>
<path d="M28.4827 25.875L26.3359 23.7188V25.875H28.4827Z" fill="white"/>
<path d="M29.1983 26.7375H26.3359V29.325H31.9176L29.1983 26.7375Z" fill="white"/>
<path d="M35.9241 23.2875H33.6342C31.6305 23.2875 30.0562 23.8625 28.625 25.1562L35.781 32.3437V23.2875H35.9241Z" fill="white"/>
<path d="M36.7812 11.9312H43.3647C41.6473 9.19998 39.5005 7.04373 36.7812 5.31873V11.9312Z" fill="white"/>
<path d="M46.5109 22.425C46.5109 18.975 45.509 15.6688 43.9347 12.65H36.9219V22.425H46.5109Z" fill="white"/>
<path d="M46.5134 23.2875H36.7812V33.2062L40.7886 37.2312C44.5097 33.2062 46.3702 28.6062 46.5134 23.2875Z" fill="white"/>
<path d="M25.4743 11.9312V2.15625C22.0394 2.15625 18.7477 3.1625 15.7422 4.74375V11.7875H25.4743V11.9312Z" fill="white"/>
<path d="M7.87302 12.65C6.15559 15.6688 5.29688 18.975 5.29688 22.425H15.029V12.65H7.87302Z" fill="white"/>
<path d="M18.0321 23.2875H15.7422V33.0625H25.4743V30.9062C25.4743 28.8937 24.7587 27.025 23.3275 25.5875C21.8963 24.0062 20.0358 23.2875 18.0321 23.2875Z" fill="white"/>
<path d="M8.44531 11.9312H15.0288V5.31873C12.3095 7.04373 10.1627 9.19998 8.44531 11.9312Z" fill="white"/>
<path d="M15.029 23.2875H5.29688C5.29688 26.7375 6.29871 30.0437 7.87302 32.9187H14.8859V23.2875H15.029Z" fill="white"/>
<path d="M15.7422 33.7812V40.825C18.7477 42.55 22.0394 43.4125 25.4743 43.5562V33.7812H15.7422Z" fill="white"/>
<path d="M15.0288 40.3938V33.7812H8.44531C10.0196 36.5125 12.3095 38.6688 15.0288 40.3938Z" fill="white"/>
<path d="M42.5084 39.9625L39.7891 37.375H26.3359V40.1062H42.5084V39.9625Z" fill="white"/>
<path d="M45.9433 43.5563L43.224 40.825H26.3359V43.5563H45.9433Z" fill="white"/>
<path d="M35.3471 32.9187L32.6279 30.1875H26.1875V32.9187H35.3471Z" fill="white"/>
<path d="M36.2112 33.7812H26.3359V36.5125H38.9304L36.2112 33.7812Z" fill="white"/>
</svg>
