<svg width="144" height="72" viewBox="0 0 144 72" fill="none" xmlns="http://www.w3.org/2000/svg">
<g id="Cenomi Dual Logo White">
<g id="Group">
<g id="Logo">
<path id="Symbol_00000028288685664721993320000014283832308150116495_" d="M89.9028 43.6641V53.7797H139.724V4.03615H89.9028V18.3616L85.8604 16.8015V0H143.766V57.8158H85.8604V45.2242L89.9028 43.6641Z" fill="white"/>
<path id="Tagline" d="M61.8391 53.7796V60.0646C61.8391 61.6668 61.1846 62.2777 59.5803 62.2777L58.7187 62.2776V53.7796H56.3519V62.2777H53.2316V53.7796H50.8651V62.2777H45.3946V53.7796H43.028V62.2777H38.8959V53.7796H36.5299V62.2777H32.296V53.7796H27.8723C24.8923 53.7796 23.5633 55.1066 23.5633 58.0825V59.8956C23.5633 62.8715 24.8923 64.1984 27.8723 64.1984H29.9104C29.8642 65.721 29.1839 66.3489 27.5924 66.3489H26.2189L26.2189 68.2696H27.973C30.8729 68.2696 32.2056 67.0083 32.2753 64.1984H32.2773H59.8972C62.8772 64.1984 64.2062 62.8715 64.2062 59.8956V53.7796H61.8391ZM25.9304 59.9593V58.0188C25.9304 56.3721 26.4739 55.7004 28.1237 55.7004H29.9267L29.9267 62.2777H28.1237C26.4739 62.2777 25.9304 61.606 25.9304 59.9593ZM20.7002 57.4512C20.7002 55.1029 19.6174 53.7796 17.135 53.7796L15.227 53.7797C12.7445 53.7797 11.6617 55.1029 11.6617 57.4513V62.2777H6.73789V64.1984H8.96964C8.92315 65.7155 8.24118 66.2729 6.65165 66.3488C6.15022 66.3728 5.72823 66.3728 5.2268 66.3488C3.57888 66.2701 2.90425 65.6771 2.90425 64.0305V57.9762H0.537109V63.9668C0.537109 66.9426 1.86698 68.1995 4.84612 68.2696C5.59868 68.2873 6.27954 68.2873 7.03233 68.2696C9.9313 68.2014 11.2647 67.0046 11.3345 64.1984H20.7002V57.4512ZM18.3333 62.2777H14.0286V57.41C14.0286 56.1987 14.5698 55.658 15.8577 55.658H16.5041C17.792 55.658 18.3333 56.1987 18.3333 57.4101V62.2777ZM43.7655 66.5903C43.7655 67.2913 43.1697 67.9287 42.425 67.9287C41.6805 67.9287 41.0633 67.2913 41.0633 66.5903C41.0633 65.8253 41.6805 65.2096 42.425 65.2096C43.1697 65.2096 43.7655 65.8253 43.7655 66.5903ZM47.3593 66.5903C47.3593 67.2913 46.7635 67.9287 46.0188 67.9287C45.2743 67.9287 44.6571 67.2913 44.6571 66.5903C44.6571 65.8253 45.2743 65.2096 46.0188 65.2096C46.7635 65.2096 47.3593 65.8253 47.3593 66.5903ZM39.0124 51.3768C39.0124 52.0777 38.4166 52.7152 37.6719 52.7152C36.9274 52.7152 36.3102 52.0777 36.3102 51.3768C36.3102 50.6117 36.9274 49.996 37.6719 49.996C38.4166 49.996 39.0124 50.6117 39.0124 51.3768ZM5.58508 70.6615C5.58508 71.3625 4.98934 71.9999 4.24459 71.9999C3.50012 71.9999 2.88288 71.3625 2.88288 70.6615C2.88288 69.8965 3.50012 69.2808 4.24459 69.2808C4.98934 69.2808 5.58508 69.8965 5.58508 70.6615ZM9.1789 70.6615C9.1789 71.3625 8.58316 71.9999 7.83841 71.9999C7.09394 71.9999 6.4767 71.3625 6.4767 70.6615C6.4767 69.8965 7.09394 69.2808 7.83841 69.2808C8.58316 69.2808 9.1789 69.8965 9.1789 70.6615Z" fill="white"/>
<path id="Wordmark" d="M11.8343 37.8299H17.1424V41.7428H10.7469C3.61575 41.7428 0 38.1327 0 31.0126C0 23.8931 3.61575 20.283 10.7469 20.283H17.1424V24.1959H11.8343C7.04829 24.1959 5.00647 26.2346 5.00647 31.0126C5.00647 35.7912 7.04829 37.8299 11.8343 37.8299ZM26.6961 32.7079H39.0891V28.9261H26.6922V24.152H39.3062V20.283H21.6857V31.0126C21.6857 38.1327 25.3015 41.7428 32.4321 41.7428H39.3062V37.8732H32.8667C28.7977 37.8732 26.8337 36.2308 26.6961 32.7079ZM55.3317 20.283H44.5854V41.7428H49.4605V24.2393H54.5476C57.9457 24.2393 59.3314 25.6228 59.3314 29.0145V41.7428H64.2071V29.1457C64.2071 23.0162 61.4696 20.283 55.3317 20.283ZM90.6729 31.0126C90.6729 38.2875 86.8063 42.1329 79.4919 42.1329C72.1775 42.1329 68.3109 38.2875 68.3109 31.0126C68.3109 23.7372 72.1775 19.8913 79.4919 19.8913C86.8063 19.8913 90.6729 23.7372 90.6729 31.0126ZM79.4919 23.8481C75.3079 23.8481 73.274 26.1913 73.274 31.0126C73.274 35.834 75.3079 38.1777 79.4919 38.1777C83.6765 38.1777 85.7104 35.834 85.7104 31.0126C85.7104 26.1913 83.6765 23.8481 79.4919 23.8481ZM115.913 20.283H94.8847V41.7428H99.7604V24.2393L107.196 24.2393V41.7428H112.071V24.2393H115.261C118.565 24.2393 119.913 25.5851 119.913 28.885V41.7428H124.789V29.1457C124.789 23.0162 122.051 20.283 115.913 20.283ZM129.893 20.283V41.7428H134.768V40.6192V20.283H129.893ZM132.353 12.4899C130.82 12.4899 129.549 13.7578 129.549 15.3332C129.549 16.7766 130.82 18.0893 132.353 18.0893C133.886 18.0893 135.113 16.7766 135.113 15.3332C135.113 13.7578 133.886 12.4899 132.353 12.4899Z" fill="white"/>
</g>
</g>
</g>
</svg>
