<?xml version="1.0" encoding="UTF-8"?>
<svg id="Layer_2" data-name="Layer 2" xmlns="http://www.w3.org/2000/svg" viewBox="0 0 361.95 150.77">
  <defs>
    <style>
      .cls-1 {
        fill: #55544b;
      }

      .cls-2 {
        fill: #b49758;
      }
    </style>
  </defs>
  <g id="Layer_1-2" data-name="Layer 1">
    <g>
      <path class="cls-2" d="m21.67,43.89s-1.26-3.83-1.66-8.77.43-8.66,2.53-12.05c2.09-3.4,5.18-7.35,4.27-14.94,0,0-.55-3.75.91-.83s2.37,9.53,1.38,14.47-6.88,12.05-6.96,14.98c0,0,7-1.38,9.72-9.33,1.3-4.39,1.23-8.26,1.23-8.26,0,0,0-2.21.91-.55s2.33,11.03-1.19,19.37c-3.32,7-5.41,8.93-9.05,13.16-3.64,4.19-4.74,5.49-6.44,7.31-1.7,1.86-3.95,5.18-4.82,8.73-.83,3.56-.75,4.19-2.61,8.46-1.86,4.23-3.99,6.05-6.24,11.38-2.25,5.34-1.98,8.5,1.42,10.63s10.75,1.38,13.95.79c0,0,.4-.04.47.47s1.42,7.43,1.42,7.43c0,0,.08.47-.63.55s-7.83,1.5-12.57-.91c-4.74-2.41-6.88-9.96-7.55-15.14s.83-9.68,1.9-12.29c1.07-2.61,4.35-6.56,5.53-8.7,1.19-2.17,2.45-4.35,3.16-9.21.71-4.82,4.94-9.56,7-12.02,2.06-2.57,3.91-4.74,3.91-4.74h0Z"/>
      <path class="cls-2" d="m45.7,48.99s-6.09-11.03-3.48-21.86c2.69-11.58,8.81-13.4,5.89-25.26,0,0-.59-1.62-.12-1.86.51-.24,1.42,1.38,2.45,3.68,1.03,2.33,3.08,8.66.83,16.28-2.21,7.63-7.27,9.96-6.76,20.71,0,0,.32,3.72,1.74,7.31.71,1.74.28,1.78.2,1.78-.28.12-.75-.79-.75-.79h0Z"/>
      <path class="cls-2" d="m165.77,89.94c-3.28-2.02-12.81-9.05-22.53-10.04-11.34-1.19-23.75,4.7-34.19,3.4-5.97-.43-12.02-3.48-14.39-4.78-2.09-3.2-4.94-6.92-8.89-11.19,8.22,5.61,15.02,6.05,21.46,6.01,6.96-.04,16.2-4.35,24.98-4.51,8.66-.4,14.23,3.52,15.26,4.03.99.51,1.7.67,1.78.32s-.75-.95-.75-.95c-3.12-1.9-12.21-8.54-21.26-9.09-10.55-.71-21.78,5.73-31.5,4.9-5.34-.16-10.87-2.77-13.24-4.07l-1.3-1.3c-2.89-2.85-5.73-5.61-8.38-8.14,7.19,4.03,13.08,4.82,18.5,4.43,5.65-.43,12.85-3.6,20.75-5.45,7.9-1.86,12.37.2,15.37,1.3,2.96,1.11,4.94,2.37,6.05,3.04,1.07.67,1.23.47,1.3.4.12-.12-.12-.28-1.82-1.82-3.68-2.92-10.47-9.01-19.92-9.33-10.12-.36-24.62,8.38-33.4,6.76-8.14-.87-15.37-7.43-15.37-7.43,0,0,0,.04.04.08-2.13-1.98-3.83-3.52-4.82-4.39-.75-1.58-1.98-4.03-1.98-4.03,12.21,10.95,26.4,6.09,33.16,3.16s12.21-3.16,12.21-3.16c8.38-.32,12.96,2.96,13.12,3,.16.08.91.59,1.15.2.32-.55-.4-.91-.4-.91l-6.44-3.68c-13.2-6.84-19.45-3.08-24.35-1.42-4.9,1.62-9.53,4.51-16.84,4.78-7.35.28-12.73-3.4-12.73-3.4.12-7.87-2.33-13.91-2.92-15.37-.59-1.42-.75,1.19-.75,1.19,0,0-.24,1.86-2.53,5.81-4.39,7.04-.87,16.84-.87,16.84-6.09,10.79-5.53,26.72-5.53,26.72-.59.28-5.06,2.06-7.39,2.96-2.33.87-4.47,2.17-7.47,4.07-3,1.9-4.86,5.02-6.05,7.19-1.19,2.13-1.86,7.15-1.66,10.55.2,3.4,1.11,7.79,1.11,7.79.16.71.55,2.41,1.5,2.09.43-.16.4-.4-.28-4.58-.79-4.7-.51-6.68-.51-6.68.55-7.87,10.28-10.47,21.3-15.18.12-.04.24-.12.36-.16.36,2.29,2.06,10.59,8.58,23.36,7.75,15.18,13.44,23.52,14.27,43.52.2,5.77.75,4.31,2.89,1.74,2.13-2.53,8.77-10.16,13.79-15.69,5.02-5.53,22.17-26.05,14.9-45.22-.67-2.02-1.66-4.35-3.24-7.04.12.08.28.2.43.28,9.53,7.31,17.43,8.18,24.94,8.42,7.51.28,17.67-3.6,27.15-3.36,9.37,0,15.22,4.15,16.28,4.7s1.82.75,1.9.4c.08-.43-.83-1.07-.83-1.07h0ZM56.41,37.97s11.26,21.11-10.16,32.49c0,0,0-8.73,4.19-15.57,5.57-9.17,5.97-16.92,5.97-16.92h0Zm36.99,68.46c-4.27,11.34-24.03,32.61-24.03,32.61,0,0,1.11-12.21-5.38-25.93-6.32-13.4-14.15-24.9-16.36-34.74,8.34-4.47,10.79-9.92,12.81-16.44,1.82-5.89.59-14.23-.32-18.02,2.41,2.25,14.07,13.16,22.73,23.08,9.72,11.15,17.39,22.92,10.55,39.44h0Z"/>
    </g>
    <g>
      <path class="cls-1" d="m169.87,58.85c.4-1.15-.08-1.62-.08-1.62h2.06c1.07,0,1.5.99,1.5.99l7.23,19.17h-3.08l-2.81-7.47h-6.88l-2.81,7.47h-2.21s6.72-17.51,7.07-18.54h0Zm-1.7,9.76h6.09l-3-8.7-3.08,8.7Z"/>
      <path class="cls-1" d="m187.18,65.85v-2.41h-2.61v11.5c0,2.53.67,2.41.67,2.41h1.94v-9.33c.16-.99.59-2.13,1.58-2.61,1.94-.99,3.48.43,3.48.43v-2.02c-3.2-1.7-4.66,1.07-5.06,2.02h0Z"/>
      <path class="cls-1" d="m331.2,65.85v-2.41h-2.61v11.5c0,2.53.67,2.41.67,2.41h1.94v-9.33c.16-.99.59-2.13,1.58-2.61,1.94-.99,3.48.43,3.48.43v-2.02c-3.2-1.7-4.66,1.07-5.06,2.02h0Z"/>
      <path class="cls-1" d="m228.01,65.85v-2.41h-2.61v11.5c0,2.53.67,2.41.67,2.41h1.94v-11.5h0Z"/>
      <path class="cls-1" d="m202.99,64.3c1.46.99,1.26,3.91,1.26,3.91v9.09h-1.66c-.91,0-.87-1.42-.87-1.42v-.71c-3.16,3.6-8.22,2.21-8.18-1.34.04-3.56,3.36-4.11,5.61-4.78,2.57-.63,2.45-1.38,2.45-1.38,0,0,.43-2.29-1.15-3.04-2.17-1.03-4.43.51-4.43.51v-1.38c3.72-1.07,5.57-.4,6.96.55h0Zm-1.34,5.1s-1.74.71-3.72,1.42c-1.78.63-2.29,2.17-1.46,3.83.87,1.78,4.27.95,5.18-.47v-4.78Z"/>
      <path class="cls-1" d="m241.44,64.3c1.46.99,1.26,3.91,1.26,3.91v9.09h-1.62c-.91,0-.87-1.42-.87-1.42v-.71c-3.16,3.6-8.22,2.21-8.18-1.34s3.36-4.11,5.61-4.78c2.57-.63,2.45-1.38,2.45-1.38,0,0,.43-2.29-1.15-3.04-2.17-1.03-4.43.51-4.43.51v-1.38c3.68-1.07,5.53-.4,6.92.55h0Zm-1.34,5.1s-1.74.71-3.72,1.42c-1.78.63-2.29,2.17-1.46,3.83.87,1.78,4.27.95,5.18-.47v-4.78h0Z"/>
      <path class="cls-1" d="m208.96,75.81v-18.5h2.61v7.47s1.74-2.33,5.18-1.38c3.44.95,4.27,4.9,4.11,7.63-.16,2.77-2.57,6.44-6.6,6.44-2.96.04-5.3-1.66-5.3-1.66h0Zm2.57-9.8v8.54s-.04.59.55.99c.67.55,3.28,1.5,4.94-.75,1.62-2.21,1.82-6.92.04-8.73-1.82-1.82-4.27-1.38-5.53-.04h0Z"/>
      <path class="cls-1" d="m228.36,59.4c0-.91-.71-1.62-1.62-1.62s-1.62.75-1.62,1.62.71,1.62,1.62,1.62c.87.04,1.62-.71,1.62-1.62h0Z"/>
      <path class="cls-1" d="m254.49,63.32c-2.29,0-3.52,1.34-4.07,2.17v-2.06h-2.61v11.5c0,2.53.67,2.41.67,2.41h1.94v-10.12c.43-1.11,1.62-2.25,3.36-2.25,2.53,0,2.33,2.57,2.33,2.57v7.71c0,2.02.95,2.09.95,2.09h1.62v-9.49c0-2.21-.87-4.55-4.19-4.55h0Z"/>
      <path class="cls-1" d="m309.11,63.32c-2.29,0-3.52,1.34-4.07,2.17v-2.06h-2.61v11.5c0,2.53.67,2.41.67,2.41h1.94v-10.12c.43-1.11,1.62-2.25,3.36-2.25,2.53,0,2.33,2.57,2.33,2.57v7.71c0,2.02.95,2.09.95,2.09h1.62v-9.49c0-2.21-.83-4.55-4.19-4.55h0Z"/>
      <path class="cls-1" d="m284.56,58.02v1.78s-2.65-1.98-5.89-.91c-3.24,1.11-6.32,4.31-5.02,10.79,1.3,6.52,7.07,7.71,11.22,5.3v1.78s-4.86,2.33-10.28-.79c-5.45-3.08-4.55-11.42-2.73-14.27,1.78-2.81,6.52-5.93,12.69-3.68h0Z"/>
      <path class="cls-1" d="m292.94,75.61c4.03,1.46,6.01-2.81,6.01-2.81.04,2.69-2.92,5.41-6.52,4.7-3.6-.71-6.13-5.81-4.15-10.28s6.76-4.62,8.7-3c1.94,1.58,2.17,4.31,2.17,4.31l-8.77,3.52s.04,2.45,2.57,3.56h0Zm-2.81-4.7l6.4-2.61s.12-4.31-3.2-3.95c-3.36.36-3.28,5.53-3.2,6.64v-.08Z"/>
      <path class="cls-1" d="m344.48,75.61c4.03,1.46,6.01-2.81,6.01-2.81.04,2.69-2.92,5.41-6.48,4.7-3.6-.71-6.13-5.81-4.15-10.28,1.98-4.47,6.76-4.62,8.7-3,1.94,1.58,2.17,4.31,2.17,4.31l-8.77,3.52c-.08-.04,0,2.45,2.53,3.56h0Zm-2.81-4.7l6.4-2.61s.12-4.31-3.2-3.95c-3.36.36-3.28,5.53-3.2,6.64v-.08Z"/>
      <path class="cls-1" d="m324.21,63.4h-2.69v-4.19s-.79,3.87-4.9,5.3h2.29v10.39c0,2.53.67,2.37.67,2.37h1.94v-12.81h2.69v-1.07Z"/>
      <path class="cls-1" d="m361.04,64.23v1.58s-1.34-1.94-3.87-1.3c-2.41.63-1.62,2.41.2,3.6s4.58,2.53,4.58,5.61c0,2.81-4.11,5.22-8.7,2.77v-1.58s2.85,2.61,5.41.4c1.74-2.25-1.5-4.15-1.5-4.15,0,0-4.86-2.53-3.79-5.65.99-2.89,5.34-2.81,7.67-1.26h0Z"/>
      <path class="cls-1" d="m174.1,33.16v11.58h10.08s3,.2,3-2.92v-6.96h1.58s.91-.28.91,2.29v4.74s.16,1.42,2.45,2.29c2.29.87,4.55-.24,4.55-2.29v-7.04h1.54s.95.12.95,1.78v5.38s.12,1.9-1.58,3.24c-1.86,1.5-6.21,1.3-7.98-1.94,0,0-.71,2.85-5.22,2.85h-12.77v-2.92s-2.02,2.06-4.11,2.09c-2.09.04-3.72-1.15-4.07-3.72s1.03-5.73,4.55-6.64c3.48-.87,5.41-1.42,6.13-1.82h0Zm-8.06,6.6c-.28,1.58.24,3.95,2.25,3.99s3.2-1.5,3.2-1.5v-6.48c-4.43.51-5.18,2.37-5.45,3.99h0Z"/>
      <path class="cls-1" d="m179.11,49.84c0-.87-.71-1.54-1.54-1.54s-1.54.71-1.54,1.54.71,1.54,1.54,1.54,1.54-.67,1.54-1.54h0Z"/>
      <path class="cls-1" d="m173.58,28.69c0-.87-.71-1.54-1.54-1.54s-1.54.71-1.54,1.54.71,1.54,1.54,1.54,1.54-.67,1.54-1.54h0Z"/>
      <path class="cls-1" d="m168.88,28.69c0-.87-.71-1.54-1.54-1.54s-1.54.71-1.54,1.54.71,1.54,1.54,1.54,1.54-.67,1.54-1.54h0Z"/>
      <path class="cls-1" d="m183.82,49.84c0-.87-.71-1.54-1.54-1.54s-1.54.71-1.54,1.54.71,1.54,1.54,1.54,1.54-.67,1.54-1.54h0Z"/>
      <path class="cls-1" d="m195.28,49.84c0-.87-.71-1.54-1.54-1.54s-1.54.71-1.54,1.54.71,1.54,1.54,1.54,1.54-.67,1.54-1.54h0Z"/>
      <path class="cls-1" d="m272.75,31.42c0-.87-.71-1.54-1.54-1.54s-1.54.71-1.54,1.54.71,1.54,1.54,1.54,1.54-.71,1.54-1.54h0Z"/>
      <path class="cls-1" d="m206.94,34.86h1.82s.71.12.71,1.78v8.1h12.88s1.94,0,3.32-.4c0,0-1.26-1.9-2.29-3.83-1.03-1.94-1.9-3.16-2.92-4.03,0,0,2.49-2.06,5.73-2.49,3.24-.43,5.81.36,7.04,3.04,1.19,2.69-1.5,6.56-4.47,7.55,0,0,.16.2,2.13.2h8.77v-17.19h2.57v15.89s.12,2.69-.79,2.69h-11.82s-1.42.08-2.57-.67c0,0-1.19.67-2.89.67h-15.02s-.59,2.85-3.28,4.43c-2.69,1.54-6.44.36-7.51-2.81,0,0,1.5,2.06,4.62,1.7,3.12-.32,3.83-3.83,3.83-5.34v-9.29h.12Zm18.42,5.53c1.23,2.37,2.06,3.32,2.06,3.32,3.72-2.37,3.83-4.47,3.2-6.28-.63-1.82-2.25-2.25-3.91-2.21s-3.68,1.3-3.68,1.3c.79.95,1.11,1.54,2.33,3.87h0Z"/>
      <path class="cls-1" d="m249.19,27.55h2.61v15.89s-.08,2.69-.75,2.69h-1.82v-18.58h-.04Z"/>
      <path class="cls-1" d="m307.33,27.55h2.61v15.89s-.08,2.69-.75,2.69h-1.86v-18.58Z"/>
      <path class="cls-1" d="m358.99,27.55h2.61v15.89s-.08,2.69-.75,2.69h-1.82v-18.58h-.04Z"/>
      <path class="cls-1" d="m270.18,34.86h1.82s.79-.12.79,2.09v7.79h26.52s-.08-1.82-.4-3.28c-.36-1.46-.83-3.44-5.93-3.44h-13.91l5.81-7h3l-4.58,5.57h9.09s6.24-.28,8.14,2.13c1.86,2.02,1.54,6.6,1.74,7.35h-29.64s-1.19,4.15-4.31,4.82c-3.16.67-5.45-.43-6.56-3.2,0,0,1.5,1.86,4.23,1.78,2.73-.12,4.27-2.61,4.27-5.38v-9.25h-.08Z"/>
      <path class="cls-1" d="m321.95,46.12s-.63,2.85-3.28,4.43c-2.69,1.54-6.44.36-7.51-2.81,0,0,1.5,2.06,4.62,1.7,3.12-.32,3.83-3.83,3.83-5.34v-9.29h1.82s.71.12.71,1.78v8.1h10.71v-10s1.19.71,2.69.99c1.5.32,5.14.91,6.72,2.96s1.46,3.87.87,6.05h6.32v-17.19h2.57v15.89s.12,2.69-.79,2.69h-9.13s-2.57,2.53-6.8-1.3c0,0,.12,1.3-.71,1.3h-12.65v.04Zm13.52-8.77v6.48s.99,1.15,2.21,1.42c1.23.24,3.32.32,3.32-3.36-.04-3.72-3.95-4.39-5.53-4.55h0Z"/>
    </g>
  </g>
</svg>