<?xml version="1.0" encoding="UTF-8"?>
<svg id="Layer_2" data-name="Layer 2" xmlns="http://www.w3.org/2000/svg" viewBox="0 0 351.99 174.35">
  <defs>
    <style>
      .cls-1 {
        fill: #fff;
      }

      .cls-2 {
        fill: #d8dadb;
      }

      .cls-3 {
        fill: #929296;
      }

      .cls-4 {
        fill: #dfe0e0;
      }

      .cls-5 {
        fill: #a0a3a7;
      }

      .cls-6 {
        fill: #6e6e72;
      }

      .cls-7 {
        fill: #c7c8c9;
      }

      .cls-8 {
        fill: none;
        stroke: #6e6f73;
        stroke-miterlimit: 10;
      }

      .cls-9 {
        fill: #949498;
      }

      .cls-10 {
        fill: #06233b;
      }

      .cls-11 {
        fill: #9fa2a6;
      }

      .cls-12 {
        fill: #939397;
      }

      .cls-13 {
        fill: #dbdcdd;
      }
    </style>
  </defs>
  <g id="Layer_1-2" data-name="Layer 1">
    <g>
      <g>
        <line class="cls-8" x1="312.03" y1="167.57" x2="351.99" y2="167.57"/>
        <line class="cls-8" x1=".19" y1="167.57" x2="40.15" y2="167.57"/>
        <g>
          <path class="cls-6" d="m71.77,172.16c-1.67,1.46-3.49,2.19-5.46,2.19-2.86,0-5.08-1.11-6.65-3.33-1.23-1.76-1.85-3.87-1.85-6.33,0-2.8.77-5.19,2.3-7.17,1.51-1.92,3.43-2.88,5.76-2.88,2.07,0,3.96.69,5.67,2.07l-1.1,1.68c-1.35-.9-2.7-1.35-4.03-1.35-1.81,0-3.23.75-4.27,2.25-.94,1.36-1.4,3.16-1.4,5.4s.59,4,1.76,5.34c1.07,1.24,2.47,1.86,4.18,1.86,1.29,0,2.63-.47,4-1.41l1.1,1.68Z"/>
          <path class="cls-6" d="m86.01,174.35c-2.8,0-4.96-1.11-6.47-3.33-1.19-1.76-1.79-3.9-1.79-6.42,0-2.96.79-5.38,2.36-7.26,1.49-1.8,3.46-2.7,5.91-2.7,2.78,0,4.94,1.15,6.47,3.45,1.19,1.8,1.79,3.97,1.79,6.51,0,2.94-.79,5.32-2.36,7.14-1.49,1.74-3.46,2.61-5.91,2.61Zm0-2.4c1.85,0,3.24-.77,4.18-2.31.78-1.28,1.16-2.96,1.16-5.04,0-2.42-.51-4.31-1.52-5.67-.94-1.26-2.21-1.89-3.82-1.89-1.83,0-3.22.81-4.18,2.43-.78,1.32-1.16,3.03-1.16,5.13,0,2.4.51,4.25,1.52,5.55.93,1.2,2.21,1.8,3.82,1.8Z"/>
          <path class="cls-6" d="m104.17,159.62v14.37h-2.74v-18.99h2.42c3.98,5.8,7.17,10.7,9.58,14.7v-14.7h2.77v18.99h-2.48c-2.03-2.82-5.21-7.61-9.55-14.37Z"/>
          <path class="cls-6" d="m133.86,158.03c-1.35-.68-2.71-1.02-4.09-1.02-.98,0-1.77.23-2.39.68-.62.45-.93,1.02-.93,1.72,0,1.26.83,2.2,2.48,2.82,2.47.92,4.22,1.88,5.25,2.89,1.03,1.01,1.55,2.26,1.55,3.74,0,1.8-.69,3.21-2.06,4.23-1.11.84-2.5,1.26-4.15,1.26-1.97,0-4.02-.68-6.15-2.04l1.19-1.71c1.33.82,2.88,1.23,4.65,1.23,2.43,0,3.64-1.03,3.64-3.09,0-1.6-1.02-2.75-3.07-3.45-2.15-.74-3.7-1.56-4.67-2.46-.96-.9-1.45-1.99-1.45-3.27,0-1.52.59-2.74,1.76-3.66,1.07-.84,2.49-1.26,4.24-1.26,1.97,0,3.76.56,5.37,1.68l-1.19,1.71Z"/>
          <path class="cls-6" d="m146.6,157.31h-5.67v-2.31h14.56v2.31h-6.12v16.68h-2.77v-16.68Z"/>
          <path class="cls-6" d="m161.9,173.99v-18.96c1.75-.26,3.36-.39,4.83-.39,4.57,0,6.86,1.94,6.86,5.82,0,2.52-1.03,4.3-3.1,5.34l3.76,8.19h-2.8l-3.4-7.5c-.26.04-.64.06-1.13.06-.7,0-1.44-.07-2.24-.21v7.65h-2.77Zm2.77-16.92v7.02c.8.14,1.54.21,2.24.21,2.51,0,3.76-1.28,3.76-3.84,0-2.4-1.26-3.6-3.79-3.6-.92,0-1.65.07-2.21.21Z"/>
          <path class="cls-6" d="m194.51,166.04c0,5.54-2.31,8.31-6.92,8.31s-6.92-2.77-6.92-8.31v-11.04h2.8v11.67c0,3.52,1.37,5.28,4.12,5.28s4.12-1.76,4.12-5.28v-11.67h2.8v11.04Z"/>
          <path class="cls-6" d="m215.63,172.16c-1.67,1.46-3.49,2.19-5.46,2.19-2.86,0-5.08-1.11-6.65-3.33-1.23-1.76-1.85-3.87-1.85-6.33,0-2.8.77-5.19,2.3-7.17,1.51-1.92,3.43-2.88,5.76-2.88,2.07,0,3.96.69,5.67,2.07l-1.1,1.68c-1.35-.9-2.7-1.35-4.03-1.35-1.81,0-3.23.75-4.27,2.25-.94,1.36-1.4,3.16-1.4,5.4s.59,4,1.76,5.34c1.07,1.24,2.47,1.86,4.18,1.86,1.29,0,2.63-.47,4-1.41l1.1,1.68Z"/>
          <path class="cls-6" d="m226.52,157.31h-5.67v-2.31h14.56v2.31h-6.12v16.68h-2.77v-16.68Z"/>
          <path class="cls-6" d="m244.57,155v18.99h-2.74v-18.99h2.74Z"/>
          <path class="cls-6" d="m260,174.35c-2.8,0-4.96-1.11-6.47-3.33-1.19-1.76-1.79-3.9-1.79-6.42,0-2.96.79-5.38,2.36-7.26,1.49-1.8,3.46-2.7,5.91-2.7,2.78,0,4.94,1.15,6.47,3.45,1.19,1.8,1.79,3.97,1.79,6.51,0,2.94-.79,5.32-2.36,7.14-1.49,1.74-3.46,2.61-5.91,2.61Zm0-2.4c1.85,0,3.24-.77,4.18-2.31.78-1.28,1.16-2.96,1.16-5.04,0-2.42-.51-4.31-1.52-5.67-.94-1.26-2.21-1.89-3.82-1.89-1.83,0-3.22.81-4.18,2.43-.78,1.32-1.16,3.03-1.16,5.13,0,2.4.51,4.25,1.52,5.55.93,1.2,2.21,1.8,3.82,1.8Z"/>
          <path class="cls-6" d="m278.17,159.62v14.37h-2.74v-18.99h2.42c3.98,5.8,7.17,10.7,9.58,14.7v-14.7h2.77v18.99h-2.48c-2.03-2.82-5.21-7.61-9.55-14.37Z"/>
        </g>
      </g>
      <g>
        <path class="cls-10" d="m0,147.16v-31.16h7.88v11.79h8.93v-11.79h7.88v31.16h-7.88v-11.75H7.88v11.75H0Z"/>
        <path class="cls-10" d="m51.85,147.16l-2.01-6.25h-8.27l-1.93,6.25h-8.4l10.81-31.16h7.13l11.07,31.16h-8.4Zm-6.04-22.36h-.22l-2.28,9.11h4.64l-2.14-9.11Z"/>
        <path class="cls-10" d="m79.81,137.92c.09-1.76-2.76-2.77-5.29-3.12-4.99-.79-9.54-3.96-9.54-9.9s5.51-9.33,11.2-9.33c3.76,0,7.4,1.06,10.59,4.97l-5.12,3.96c-3.24-3.48-8.8-3.34-8.93.26.09,1.5,1.71,2.38,4.11,2.9,5.51,1.01,11.03,2.95,10.68,10.61-.26,6.03-6.56,9.33-12.25,9.33-3.72,0-7.66-1.89-10.55-5.63l4.94-4.67c3.11,3.78,9.93,3.96,10.15.62Z"/>
        <path class="cls-10" d="m108.87,137.92c.09-1.76-2.76-2.77-5.29-3.12-4.99-.79-9.54-3.96-9.54-9.9s5.51-9.33,11.2-9.33c3.76,0,7.4,1.06,10.59,4.97l-5.12,3.96c-3.24-3.48-8.8-3.34-8.93.26.09,1.5,1.71,2.38,4.11,2.9,5.51,1.01,11.03,2.95,10.68,10.61-.26,6.03-6.56,9.33-12.25,9.33-3.72,0-7.66-1.89-10.55-5.63l4.94-4.67c3.11,3.78,9.93,3.96,10.15.62Z"/>
        <path class="cls-10" d="m141.69,147.16l-2.01-6.25h-8.27l-1.93,6.25h-8.4l10.81-31.16h7.13l11.07,31.16h-8.4Zm-6.04-22.36h-.22l-2.28,9.11h4.64l-2.14-9.11Z"/>
        <path class="cls-10" d="m163.96,116l7.48,13.29,2.63,6.25.22-.04s-.83-5.37-.88-5.37v-14.13h7.79v31.16h-7.92l-7-12.28-2.71-6.25-.22.04,1.01,6.03v12.45h-7.83v-31.16h7.44Z"/>
        <path class="cls-10" d="m219.57,147.16l-2.01-6.25h-8.27l-1.93,6.25h-8.4l10.81-31.16h7.13l11.07,31.16h-8.4Zm-6.04-22.36h-.22l-2.28,9.11h4.64l-2.14-9.11Z"/>
        <path class="cls-10" d="m242.28,116v23.37h12.6v7.79h-20.48v-31.16h7.88Z"/>
        <path class="cls-10" d="m270.24,116v23.37h12.6v7.79h-20.48v-31.16h7.88Z"/>
        <path class="cls-10" d="m308.22,147.16l-2.01-6.25h-8.27l-1.93,6.25h-8.4l10.81-31.16h7.13l11.07,31.16h-8.4Zm-6.04-22.36h-.22l-2.28,9.11h4.64l-2.14-9.11Z"/>
        <path class="cls-10" d="m330.89,116l6.52,15.23,6.56-15.23h7.83v31.16h-7.88l.04-8.98.48-6.29-.26-.04-4.07,10.69h-5.38l-4.16-10.69-.22.04.53,6.29v8.98h-7.83v-31.16h7.83Z"/>
      </g>
      <g>
        <path id="Path_12" data-name="Path 12" class="cls-5" d="m157.82,28.56v63.46l8.1-3.75V22.88l-8.1,5.68Z"/>
        <path id="Path_13" data-name="Path 13" class="cls-3" d="m151.2,14.48l6.87,14.08v63.45l-6.87-3.75V14.48Z"/>
        <path id="Path_14" data-name="Path 14" class="cls-1" d="m151.08,14.48l6.56,14.2.33,63.23.04-63.23,8.04-5.8-8.21,5.41-6.77-13.81Z"/>
        <path id="Path_15" data-name="Path 15" class="cls-7" d="m165.93,22.88s-8.11,18.44-8.11,69.12l8.11-3.75V22.88Z"/>
        <path id="Path_16" data-name="Path 16" class="cls-12" d="m165.92,22.88l-8.17,5.76.09,63.27.04-63.23,8.04-5.8Z"/>
        <path id="Path_17" data-name="Path 17" class="cls-11" d="m175.36,14.06v67.8l8.1-3.75V8.07l-8.1,5.98Z"/>
        <path id="Path_18" data-name="Path 18" class="cls-12" d="m168.76,0l6.84,14.05v67.81l-6.85-3.75.02-78.11Z"/>
        <path id="Path_19" data-name="Path 19" class="cls-1" d="m168.63.01l6.55,14.2.31,67.54.03-67.58,8.04-6.1-8.2,5.72L168.63.01Z"/>
        <path id="Path_20" data-name="Path 20" class="cls-7" d="m183.45,8.07s-8.1,23.09-8.1,73.78l8.1-3.75V8.07Z"/>
        <path id="Path_21" data-name="Path 21" class="cls-9" d="m183.45,8.07l-8.16,6.06.09,67.62.03-67.58,8.04-6.1Z"/>
        <path id="Path_22" data-name="Path 22" class="cls-11" d="m194.35,33.07v67.8l-8.11-3.75V27.23l8.11,5.84Z"/>
        <path id="Path_23" data-name="Path 23" class="cls-12" d="m200.97,19.15l-6.86,13.92v67.8l6.86-3.75V19.15Z"/>
        <path id="Path_24" data-name="Path 24" class="cls-1" d="m201.09,19.15l-6.55,14.05-.33,67.57-.04-67.58-8.05-5.97,8.22,5.58,6.75-13.65Z"/>
        <path id="Path_25" data-name="Path 25" class="cls-7" d="m186.24,27.22s8.11,22.95,8.11,73.64l-8.11-3.75V27.22Z"/>
        <path id="Path_26" data-name="Path 26" class="cls-9" d="m186.24,27.22l8.17,5.92-.09,67.62-.05-67.58-8.04-5.96Z"/>
        <path id="Path_27" data-name="Path 27" class="cls-13" d="m157.8,28.4l8.25-5.52-14.98-8.41,6.73,13.93Z"/>
        <path id="Path_28" data-name="Path 28" class="cls-4" d="m175.36,13.86l8.2-5.79-14.93-8.07,6.73,13.86Z"/>
        <path id="Path_29" data-name="Path 29" class="cls-2" d="m186.14,27.25l8.24,5.7,6.72-13.8-14.96,8.1Z"/>
      </g>
    </g>
  </g>
</svg>