<?xml version="1.0" encoding="utf-8"?>
<!-- Generator: Adobe Illustrator 22.0.1, SVG Export Plug-In . SVG Version: 6.00 Build 0)  -->
<svg version="1.1" id="Layer_1" xmlns="http://www.w3.org/2000/svg" xmlns:xlink="http://www.w3.org/1999/xlink" x="0px" y="0px"
	 viewBox="0 0 1000 1000" style="enable-background:new 0 0 1000 1000;" xml:space="preserve">
<style type="text/css">
	.st0{clip-path:url(#SVGID_2_);fill:url(#SVGID_3_);}
	.st1{fill:#FFFFFF;}
	.st2{fill:#7C3520;}
</style>
<g>
	<defs>
		<path id="SVGID_1_" d="M685.7,139.4L505,298.5c-12.8,11.4-14,30.9-2.7,43.7l159.2,180.7c11.3,12.8,30.9,14,43.7,2.7l180.6-159.2
			c12.8-11.3,14.1-30.9,2.8-43.7L729.4,142.1c-6.1-7-14.7-10.5-23.2-10.5C698.9,131.6,691.6,134.2,685.7,139.4"/>
	</defs>
	<clipPath id="SVGID_2_">
		<use xlink:href="#SVGID_1_"  style="overflow:visible;"/>
	</clipPath>
	
		<radialGradient id="SVGID_3_" cx="203.2211" cy="937.8325" r="15.6443" gradientTransform="matrix(37.6514 11.2369 11.2369 -37.6514 -17735.3262 33097.4961)" gradientUnits="userSpaceOnUse">
		<stop  offset="0" style="stop-color:#E8D9BD"/>
		<stop  offset="0.3202" style="stop-color:#E8D9BD"/>
		<stop  offset="0.478" style="stop-color:#F7941E"/>
		<stop  offset="0.7363" style="stop-color:#B8292F"/>
		<stop  offset="1" style="stop-color:#560F11"/>
	</radialGradient>
	<polygon class="st0" points="524.4,19.6 1011,164.8 866.5,649 379.9,503.8 	"/>
</g>
<g>
	<path class="st1" d="M840.4,279.8c12,7.2,15.7,22.8,8.5,34.8L746.5,483.7c-7.3,12-22.8,15.9-34.7,8.6l-168.5-102
		c-11.9-7.2-15.8-22.8-8.5-34.8l102.4-169.1c7.3-12.1,22.9-15.9,34.8-8.7L840.4,279.8z"/>
	<path class="st2" d="M801.2,260.7l-157-47c-11.1-3.3-22.9,3-26.2,14.2l-47,157c-3.4,11.2,3,23,14.2,26.2l157,47
		c11.2,3.4,22.9-3,26.3-14.1l46.9-157C818.6,275.7,812.3,264,801.2,260.7 M758.5,412l-126.2,4c-9,0.3-16.5-6.8-16.8-15.8l-4-126.9
		c-0.3-9,6.7-16.5,15.7-16.8l126.3-4c8.9-0.3,16.4,6.8,16.7,15.8l4.1,126.9C774.5,404.1,767.4,411.7,758.5,412"/>
	<path class="st2" d="M268.1,732.3c0,12.3-9.4,12.6-14.5,12.6c-5.1,0-14.4-0.3-14.5-12.6c0.4-8.7,2.9-12.2,14.5-12.2
		C265,720.1,267.7,723.7,268.1,732.3 M239.3,868.6c0,1.6,1.5,3,3.1,3H265c1.7,0,3.1-1.3,3.1-3V758.8h-28.8V868.6z M156.9,811.2
		l41.5-39.6c1.7-1.7,2.6-3.2,2.6-4.1c0-0.5-0.3-1-0.8-1.4h-27.6c-0.7,0.5-1.4,1.2-2.5,2.3l-36,36.2c-1,1.1-1.7,1.5-3.3,1.5h-2.8
		v-56.5H99.4v119.2c0,1.5,1.4,2.8,3.1,2.8h22.3c1.7,0,3.1-1.3,3.1-2.8v-47.2h2.1c1.9,0,2.6,0.2,3.5,1.5L168,868
		c2.6,3.4,3.3,3.6,7.4,3.6h25.2c1.2,0,5.7-0.8,2-5.2L156.9,811.2z M490.8,755.7c-25,0-47.6,6.2-47.6,13.3v12.5
		c0,5.6,4.9,3.3,6.5,2.5c12.3-5.9,25.5-9.3,37.5-9.3c13.4,0,21.1,4.5,21.1,12.5c0,4.8-0.7,5.5-9.4,8.2l-24.7,7.7
		c-28.8,9.2-38.2,18.5-38.2,38.4c0,19.6,15.4,32.4,39,32.4c8.4,0,13.7-1.1,21.8-4.6c7.9-3.2,8.4-3.4,11.5-3.4h2.4
		c-0.2,0.4-0.2,1.1-0.2,1.6c0,3,1,4.1,3.1,4.1h20.2c1.7,0,3.1-1.4,3.1-3v-81.4C536.9,766.2,521.6,755.7,490.8,755.7 M508.1,837.6
		c0,11.4-7.2,16.9-21.4,16.9c-13.4,0-21.9-6.1-21.9-16.2c0-9.4,6.7-14.8,25-20.5l18.2-5.7V837.6z M637.7,755.2
		c-9.1,0-13.7,0.9-26.9,5.9c-3.9,1.4-4.8,1.6-8.9,1.6v-2.3c0-0.7-0.2-1.2-0.5-1.6h-25.3c-0.3,0.5-0.6,1-0.6,1.6v108.2
		c0,1.6,1.5,3,3.1,3h22.6c1.7,0,3.1-1.4,3.1-3v-73.9c0-11.9,8.6-18.3,24.3-18.3c16.3,0,23.8,7.5,23.8,24v68.2c0,1.6,1.4,3,3.2,3
		h22.6c1.7,0,3.1-1.4,3.1-3v-72.1C681.2,769.4,666.3,755.2,637.7,755.2 M367.7,755.2c-9.1,0-13.7,0.9-26.9,5.9
		c-3.8,1.4-4.8,1.6-8.9,1.6v-2.3c0-0.7-0.2-1.2-0.5-1.6h-25.3c-0.3,0.5-0.6,1-0.6,1.6v108.2c0,1.6,1.5,3,3.1,3h22.6
		c1.7,0,3.1-1.4,3.1-3v-73.9c0-11.9,8.7-18.3,24.3-18.3c16.3,0,23.8,7.5,23.8,24v68.2c0,1.6,1.5,3,3.1,3h22.6c1.7,0,3.1-1.4,3.1-3
		v-72.1C411.2,769.4,396.3,755.2,367.7,755.2"/>
	<path class="st2" d="M179,607.2c0,12.3-9.4,12.6-14.5,12.6c-5.1,0-14.5-0.3-14.5-12.6c0.4-8.7,2.8-12.2,14.5-12.2
		C175.8,595,178.5,598.6,179,607.2 M428.4,595c-11.6,0-14,3.5-14.5,12.2c0,12.3,9.3,12.6,14.5,12.6c5.1,0,14.4-0.3,14.4-12.6
		C442.4,598.6,439.7,595,428.4,595 M672.8,563.5h-48.3L515,633.3c-3.3,2.1-4.6,5.8-4.6,9c0,8.7,10,13.6,17.8,13.6
		c0,0,99.8,0,104.1,0c11.2,0.1,20.4,8.9,20.4,20c0,10.5-8.5,19.1-19.1,19.8h-192v-49.8h-26.5v49.8h-63.1c-5.4-0.4-15.6-1.9-24.5-7.7
		c-10.3-6.8-21.2-18.9-21.4-48.9v-75.7h-28.4c0,0,0,76.8,0,77.2c0,47.5,27.5,66.1,34.4,70.7c20.3,13.1,44.8,12.2,44.8,12.2h277
		c17.8,0,47.3-15,47.3-47.5c0-34.3-31.9-47.7-46.9-47.7l-61.6,0v0L672.8,564V563.5z M125.9,697.8V595.4H99.4l0,111.8
		c0,12.4,7,16.2,14.1,16.3l56.7,0c17.3,0,62.9-16.7,62.9-64.7v-63.4h-26.5v62.7c0,29.5-26.6,38.2-32.1,39.1
		c-3.4,0.5-9.6,0.7-9.6,0.7H125.9z"/>
</g>
</svg>
