<svg width="382" height="256" xmlns="http://www.w3.org/2000/svg" xmlns:xlink="http://www.w3.org/1999/xlink" xml:space="preserve" overflow="hidden"><defs><clipPath id="clip0"><rect x="16" y="339" width="382" height="256"/></clipPath></defs><g clip-path="url(#clip0)" transform="translate(-16 -339)"><path d="M332.018 205.244C289.826 205.244 255.475 239.595 255.475 281.786 255.475 302.185 263.448 321.453 277.933 335.871 292.417 350.356 311.62 358.329 332.018 358.329L332.018 358.329C352.416 358.329 371.618 350.356 386.103 335.871 400.587 321.387 408.56 302.185 408.56 281.786 408.56 261.388 400.587 242.186 386.103 227.702 371.618 213.217 352.416 205.244 332.018 205.244ZM332.018 359.326 332.018 359.326C311.354 359.326 291.886 351.22 277.202 336.602 262.518 321.918 254.478 302.45 254.478 281.786 254.478 239.063 289.295 204.247 332.018 204.247L332.018 204.247C352.682 204.247 372.149 212.353 386.833 226.971 401.517 241.655 409.557 261.123 409.557 281.786 409.557 302.45 401.451 321.918 386.833 336.602 372.149 351.286 352.682 359.326 332.018 359.326" fill="#006A46" transform="matrix(1 0 0 1.00023 -125.251 134.705)"/><path d="M387.431 264.179C387.431 295.274 362.183 320.523 331.087 320.523 299.992 320.523 274.743 295.274 274.743 264.179 274.743 233.083 299.992 207.835 331.087 207.835 362.183 207.835 387.431 233.083 387.431 264.179" fill="#8BA0D0" transform="matrix(1 0 0 1.00023 -125.251 134.705)"/><path d="M331.951 302.317C306.171 302.317 285.241 281.388 285.241 255.541 285.241 229.695 306.171 208.765 332.018 208.832 357.864 208.832 378.727 229.761 378.727 255.608 378.727 281.454 357.798 302.317 331.951 302.317M332.018 208.234C291.421 208.234 258.465 241.123 258.465 281.786 258.465 322.383 291.354 355.339 332.018 355.339 372.615 355.339 405.57 322.45 405.57 281.786 405.57 241.189 372.681 208.234 332.018 208.234" fill="#006A46" transform="matrix(1 0 0 1.00023 -125.251 134.705)"/><path d="M331.951 302.118 331.951 302.118C357.598 302.118 378.462 281.255 378.462 255.608 378.462 243.183 373.611 231.489 364.841 222.718 356.07 213.948 344.376 209.097 331.951 209.097L331.951 209.097C319.526 209.097 307.832 213.948 299.062 222.718 290.291 231.489 285.441 243.183 285.441 255.608 285.441 281.255 306.304 302.118 331.951 302.118M331.951 302.583 331.951 302.583C306.038 302.583 284.976 281.521 284.976 255.608 284.976 243.05 289.892 231.289 298.729 222.386 307.633 213.549 319.393 208.632 331.951 208.632L331.951 208.632C344.509 208.632 356.269 213.549 365.173 222.386 374.01 231.289 378.927 243.05 378.927 255.608 378.927 281.521 357.864 302.583 331.951 302.583M332.018 208.499C291.62 208.499 258.731 241.389 258.731 281.786 258.731 301.387 266.372 319.792 280.192 333.612 294.012 347.432 312.417 355.073 332.018 355.073L332.018 355.073C372.415 355.073 405.305 322.184 405.305 281.786 405.305 241.389 372.415 208.433 332.018 208.433L332.018 208.433ZM332.018 355.605 332.018 355.605C312.284 355.605 293.746 347.898 279.86 334.011 265.906 320.058 258.265 301.52 258.265 281.853 258.265 241.189 291.354 208.101 332.018 208.101L332.018 208.101C372.681 208.101 405.77 241.189 405.77 281.919 405.77 322.583 372.681 355.671 331.951 355.671" fill="#006A46" transform="matrix(1 0 0 1.00023 -125.251 134.705)"/><path d="M360.655 302.915C360.655 302.915 364.641 303.979 368.827 301.653 368.827 301.653 368.827 303.513 369.226 304.045 369.558 304.377 384.707 318.729 384.707 318.729L381.651 322.782 360.721 303.248C360.721 303.248 360.522 302.915 360.721 302.982" fill="#FFFFFF" transform="matrix(1 0 0 1.00023 -125.251 134.705)"/><path d="M358.794 305.108C358.794 305.108 359.592 309.36 357.864 313.413L359.99 313.613 365.904 318.995C365.904 318.995 361.186 323.181 357.598 325.24 357.598 325.24 357.266 325.44 357.2 325.24 357.067 325.041 353.014 318.862 353.014 318.862 353.014 318.862 352.349 324.31 350.489 326.303L350.489 326.835C350.489 326.835 351.286 326.835 351.884 327.034 352.482 327.3 352.615 327.499 352.615 327.499L356.867 334.077C356.867 334.077 357.067 336.071 356.801 336.868 356.535 337.599 356.203 339.194 352.482 340.057 352.482 340.057 352.216 341.187 356.469 340.855 360.655 340.589 363.047 336.137 361.984 332.018 361.984 331.951 361.984 331.818 361.917 331.752 361.917 331.752 371.618 325.639 375.272 320.789 375.272 320.789 375.272 320.789 375.339 320.722 375.339 320.722 360.322 306.105 358.861 305.108" fill="#FFFFFF" transform="matrix(1 0 0 1.00023 -125.251 134.705)"/><path d="M344.443 320.656C344.443 320.656 344.775 320.656 344.775 320.988 344.775 321.387 350.024 337.2 350.024 337.2 350.024 337.2 332.217 344.443 310.822 336.204L319.46 309.826C319.46 309.826 319.593 309.693 319.593 309.826 319.593 309.958 321.254 314.676 324.111 316.47L324.111 316.736C324.111 316.736 322.583 316.869 322.051 318.729 321.453 320.589 318.397 329.825 318.397 330.091 318.397 330.357 318.928 330.423 319.26 330.489 319.593 330.556 324.177 331.951 330.489 332.084 336.802 332.217 342.516 331.087 342.516 331.087 342.516 331.087 342.383 328.629 339.991 327.632L339.858 327.234C339.858 327.234 343.645 324.908 344.443 320.656" fill="#FFFFFF" transform="matrix(1 0 0 1.00023 -125.251 134.705)"/><path d="M307.101 322.051C306.769 323.314 306.37 324.842 306.038 324.975L300.457 320.988C300.457 320.988 303.181 319.991 306.038 320.39 306.038 320.39 307.434 320.722 307.101 322.051M308.762 316.071C302.45 315.673 298.397 318.131 298.397 318.131 299.128 316.337 299.062 313.015 299.062 313.015 296.205 314.942 293.547 314.41 292.617 314.277 291.686 314.078 292.152 314.742 292.152 314.742 292.152 314.742 292.152 314.875 292.218 314.875 294.544 320.324 289.228 321.054 289.228 321.054 284.643 320.589 285.374 316.736 285.441 316.271 285.441 315.805 286.172 312.35 292.085 310.955 297.999 309.56 296.736 309.56 296.936 309.36 297.135 309.161 298.065 308.297 297.733 307.766 297.334 307.234 296.67 307.766 296.67 307.766 296.47 307.832 295.806 307.965 295.806 307.965 289.427 308.962 287.7 309.826 287.7 309.826 280.258 313.812 281.986 320.324 281.986 320.324 284.71 330.357 293.348 325.24 293.348 325.24 299.66 331.685 308.63 334.941 308.63 334.941 308.63 334.941 312.948 321.719 313.081 321.32 313.214 320.922 315.207 316.47 308.895 316.071" fill="#FFFFFF" transform="matrix(1 0 0 1.00023 -125.251 134.705)"/><path d="M304.51 310.291C304.51 308.563 305.905 307.168 307.633 307.168 309.36 307.168 310.756 308.563 310.756 310.291 310.756 312.018 309.36 313.413 307.633 313.413 305.905 313.413 304.51 312.018 304.51 310.291" fill="#FFFFFF" transform="matrix(1 0 0 1.00023 -125.251 134.705)"/><path d="M323.646 344.775C323.646 343.047 325.041 341.652 326.769 341.652 328.496 341.652 329.891 343.047 329.891 344.775 329.891 346.502 328.496 347.898 326.769 347.898 325.041 347.898 323.646 346.502 323.646 344.775" fill="#FFFFFF" transform="matrix(1 0 0 1.00023 -125.251 134.705)"/><path d="M334.21 344.642C334.21 342.914 335.606 341.519 337.333 341.519 339.061 341.519 340.456 342.914 340.456 344.642 340.456 346.369 339.061 347.765 337.333 347.765 335.606 347.765 334.21 346.369 334.21 344.642" fill="#FFFFFF" transform="matrix(1 0 0 1.00023 -125.251 134.705)"/><path d="M358.196 272.75 362.05 257.003C362.05 257.003 363.312 256.073 366.768 256.073 370.223 256.073 371.551 256.937 371.551 256.937L374.01 268.033C374.01 268.033 371.02 277.003 367.631 281.188 365.04 284.378 358.196 272.75 358.196 272.75" fill="#FFFFFF" transform="matrix(1 0 0 1.00023 -125.251 134.705)"/><path d="M358.329 272.684C358.728 273.348 363.711 281.587 366.502 281.587 366.9 281.587 367.233 281.388 367.498 281.056 370.754 277.069 373.678 268.564 373.877 267.966L371.485 256.937C371.219 256.804 369.625 256.073 366.834 256.073 363.711 256.073 362.382 256.87 362.183 257.003ZM366.502 281.853C363.445 281.853 358.329 273.149 358.063 272.817L358.063 272.817C358.063 272.817 361.984 256.937 361.984 256.937L361.984 256.937C361.984 256.937 363.312 255.94 366.768 255.94 370.223 255.94 371.551 256.804 371.618 256.804L371.618 256.804C371.618 256.804 374.076 268.033 374.076 268.033L374.076 268.033C374.076 268.166 371.02 277.135 367.698 281.255 367.366 281.654 366.967 281.853 366.502 281.853" fill="#0D6B30" transform="matrix(1 0 0 1.00023 -125.251 134.705)"/><path d="M371.95 256.604C371.95 256.604 369.757 255.608 366.768 255.608 363.778 255.608 361.585 256.604 361.585 256.604L362.05 256.937C362.05 256.937 363.711 256.073 366.768 256.073 369.824 256.073 371.485 256.937 371.485 256.937L371.884 256.671Z" fill="#0D6B30" transform="matrix(1 0 0 1.00023 -125.251 134.705)"/><path d="M371.817 256.405 370.488 250.226 370.223 250.226 370.223 250.757 369.957 250.757 369.957 250.957 369.757 250.957C369.757 250.89 369.558 250.89 369.558 250.89L369.558 250.558 369.425 250.425 369.226 250.425 369.226 249.827C369.226 249.827 368.96 249.827 368.96 249.827L368.96 250.292 368.761 250.292 368.628 250.425 368.628 250.624 368.429 250.624C368.429 250.558 368.296 250.558 368.296 250.558L368.296 250.292 368.163 250.159 368.03 250.159 368.03 249.561 367.698 249.561C367.698 249.561 367.698 250.093 367.698 250.093L367.432 250.226 367.432 250.492 367.033 250.492 367.033 250.226 366.9 250.093 366.768 250.093 366.768 249.495C366.768 249.495 366.502 249.495 366.502 249.495L366.502 250.093 366.369 250.093 366.236 250.226 366.236 250.425 365.904 250.425 365.904 250.159 365.837 250.159C365.837 250.093 365.638 250.093 365.638 250.093L365.638 249.628 365.372 249.628 365.372 250.159 365.239 250.159 365.106 250.292 365.106 250.492 364.907 250.492 364.907 250.624 364.774 250.624 364.774 250.425 364.708 250.425C364.708 250.359 364.508 250.359 364.508 250.359L364.508 249.894 364.243 249.894 364.243 250.492 364.11 250.492 363.977 250.624 363.977 250.89 363.778 250.89C363.778 250.89 363.778 250.89 363.778 250.89L363.645 250.89 363.645 250.691 363.379 250.691 363.379 250.159 363.113 250.159 361.851 256.339C361.851 256.339 363.778 255.475 366.834 255.475 369.89 255.475 371.884 256.339 371.884 256.339" fill="#FFFFFF" transform="matrix(1 0 0 1.00023 -125.251 134.705)"/><path d="M363.113 250.292 361.917 256.206C362.515 256.006 364.243 255.408 366.768 255.408 369.292 255.408 371.086 256.006 371.684 256.206L370.422 250.292 370.355 250.292 370.355 250.824 370.09 250.824 370.09 251.023 369.691 251.023C369.691 250.957 369.492 250.957 369.492 250.957L369.492 250.558 369.492 250.558C369.492 250.558 369.226 250.558 369.226 250.558L369.226 249.96 369.226 249.96 369.226 250.425 368.894 250.425 368.894 250.757 368.429 250.757C368.429 250.691 368.296 250.691 368.296 250.691L368.296 250.359 368.296 250.359C368.296 250.359 368.096 250.359 368.096 250.359L368.096 249.761 368.03 249.761 368.03 250.292 367.764 250.425 367.764 250.691 367.166 250.691 367.166 250.359 367.166 250.359C367.166 250.359 366.967 250.359 366.967 250.359L366.967 249.761 366.967 249.761 366.967 250.359 366.635 250.359 366.635 250.691 366.103 250.691 366.103 250.359 366.103 250.359C366.103 250.359 365.837 250.359 365.837 250.359L365.837 249.894 365.837 249.894 365.837 250.425 365.572 250.425C365.572 250.492 365.572 250.757 365.572 250.757L365.372 250.757 365.372 250.89 364.974 250.89 364.974 250.624 364.974 250.624C364.974 250.624 364.708 250.624 364.708 250.624L364.708 250.159 364.708 250.159 364.708 250.757 364.442 250.757 364.442 251.156 364.243 251.156C364.243 251.156 363.91 251.156 363.91 251.156L363.91 250.957 363.645 250.957 363.645 250.425 363.578 250.425ZM361.651 256.604 362.98 250.093 363.512 250.093 363.512 250.624 363.778 250.624 363.778 250.757 363.91 250.757 363.91 250.558 364.11 250.359 364.176 250.359 364.176 249.761 364.641 249.761 364.641 250.226 364.774 250.226 364.907 250.359 364.907 250.359C364.907 250.359 365.04 250.359 365.04 250.359L365.04 250.226 365.239 250.026 365.306 250.026 365.306 249.495 365.837 249.495 365.837 249.96 365.97 249.96 366.103 250.093 366.103 250.292 366.236 250.292 366.236 250.159 366.435 249.96 366.502 249.96 366.502 249.362 367.033 249.362 367.033 249.96 367.1 249.96 367.299 250.159 367.299 250.359 367.432 250.359 367.432 250.159 367.698 250.026 367.698 249.428 368.229 249.428 368.229 250.026 368.296 250.026 368.495 250.226 368.495 250.425C368.495 250.425 368.561 250.425 368.561 250.425L368.561 250.425C368.561 250.425 368.761 250.226 368.761 250.226L368.894 250.226 368.894 249.761 369.359 249.761 369.359 250.359 369.492 250.359 369.691 250.558 369.691 250.824 369.89 250.824 369.89 250.691 370.156 250.691 370.156 250.159 370.621 250.159 372.017 256.671 371.817 256.671C371.817 256.604 369.824 255.741 366.834 255.741 363.844 255.741 361.917 256.538 361.917 256.604L361.718 256.604Z" fill="#0D6B30" transform="matrix(1 0 0 1.00023 -125.251 134.705)"/><path d="M366.236 254.545 367.366 254.545 367.366 255.608 366.236 255.608Z" fill="#FFFFFF" transform="matrix(1 0 0 1.00023 -125.251 134.705)"/><path d="M366.369 255.475 367.299 255.475 367.299 254.678 366.369 254.678ZM367.498 255.674 366.103 255.674 366.103 254.412 367.498 254.412Z" fill="#0D6B30" transform="matrix(1 0 0 1.00023 -125.251 134.705)"/><path d="M305.307 272.75 301.454 257.003C301.454 257.003 300.191 256.073 296.736 256.073 293.547 256.073 291.952 256.937 291.952 256.937L289.494 268.033C289.494 268.033 292.484 277.003 295.872 281.188 298.464 284.378 305.307 272.75 305.307 272.75" fill="#FFFFFF" transform="matrix(1 0 0 1.00023 -125.251 134.705)"/><path d="M289.56 268.033C289.76 268.631 292.683 277.135 295.939 281.122 296.205 281.454 296.537 281.654 296.936 281.654 299.793 281.654 304.776 273.415 305.108 272.75L301.254 257.069C301.055 256.937 299.726 256.139 296.603 256.139 293.746 256.139 292.218 256.87 291.952 257.003ZM296.936 281.853 296.936 281.853C296.47 281.853 296.072 281.654 295.74 281.255 292.351 277.135 289.361 268.166 289.361 268.099L289.361 268.099C289.361 268.099 291.819 256.87 291.819 256.87L291.819 256.87C291.819 256.87 293.48 255.94 296.603 255.94 299.726 255.94 301.387 256.87 301.387 256.937L301.387 256.937C301.387 256.937 301.387 256.937 301.387 256.937L305.241 272.75 305.241 272.75C305.042 273.149 299.925 281.853 296.803 281.853" fill="#0D6B30" transform="matrix(1 0 0 1.00023 -125.251 134.705)"/><path d="M291.487 256.538C291.487 256.538 293.746 255.541 296.67 255.541 299.66 255.541 301.852 256.538 301.852 256.538L301.387 256.87C301.387 256.87 299.726 256.006 296.67 255.94 293.613 255.94 291.952 256.804 291.952 256.804L291.554 256.538Z" fill="#0D6B30" transform="matrix(1 0 0 1.00023 -125.251 134.705)"/><path d="M291.62 256.405 292.949 250.226 293.215 250.226 293.215 250.757 293.48 250.757 293.48 250.957 293.68 250.957C293.68 250.89 293.879 250.89 293.879 250.89L293.879 250.558 294.012 250.425 294.211 250.425 294.211 249.827 294.477 249.827 294.477 250.292 294.676 250.292 294.809 250.425 294.809 250.624 295.009 250.624C295.009 250.558 295.142 250.558 295.142 250.558L295.142 250.292 295.274 250.159 295.407 250.159 295.407 249.561 295.74 249.561 295.74 250.093 296.005 250.226 296.005 250.492 296.404 250.492 296.404 250.226 296.537 250.093 296.67 250.093 296.67 249.495 296.936 249.495 296.936 250.093 297.068 250.093 297.201 250.226 297.201 250.425 297.533 250.425 297.533 250.159 297.6 250.159C297.6 250.093 297.799 250.093 297.799 250.093L297.799 249.628 298.065 249.628 298.065 250.159 298.198 250.159 298.331 250.292 298.331 250.492 298.53 250.492 298.53 250.624 298.663 250.624 298.663 250.425 298.729 250.425C298.729 250.359 298.929 250.359 298.929 250.359L298.929 249.894 299.195 249.894 299.195 250.492 299.327 250.492 299.46 250.624 299.46 250.89 299.66 250.89C299.66 250.89 299.793 250.89 299.793 250.89L299.793 250.691 300.058 250.691 300.058 250.159 300.391 250.159 301.653 256.339C301.653 256.339 299.726 255.475 296.67 255.475 293.613 255.475 291.62 256.339 291.62 256.339" fill="#FFFFFF" transform="matrix(1 0 0 1.00023 -125.251 134.705)"/><path d="M296.67 255.408C299.195 255.408 300.922 256.006 301.52 256.206L300.324 250.292 300.258 250.292 300.258 250.824 299.992 250.824 299.992 251.023 299.66 251.023C299.66 251.023 299.46 251.023 299.46 251.023L299.46 250.691 299.394 250.691C299.394 250.624 299.195 250.624 299.195 250.624L299.195 250.026 299.195 250.026 299.195 250.492 298.929 250.492 298.929 250.757 298.53 250.757 298.53 250.624 298.331 250.624 298.331 250.359 298.264 250.359C298.264 250.292 298.065 250.292 298.065 250.292L298.065 249.761 298.065 249.761 298.065 250.226 297.799 250.226 297.799 250.624 297.268 250.624 297.268 250.359 297.201 250.359C297.201 250.292 297.002 250.292 297.002 250.292L297.002 249.694 297.002 249.694 297.002 250.292 296.736 250.292 296.736 250.691 296.138 250.691 296.138 250.425 295.872 250.292 295.872 249.761 295.806 249.761 295.806 250.359 295.54 250.359 295.54 250.757 295.407 250.757C295.407 250.824 295.009 250.824 295.009 250.824L295.009 250.558 295.009 250.558C295.009 250.558 294.743 250.558 294.743 250.558L294.743 250.093 294.743 250.093 294.743 250.691 294.477 250.691 294.477 251.09 294.278 251.09C294.278 251.156 293.879 251.156 293.879 251.156L293.879 250.957 293.613 250.957 293.613 250.425 293.547 250.425 292.284 256.339C292.882 256.139 294.676 255.541 297.201 255.541M301.852 256.604 301.653 256.604C301.653 256.538 299.726 255.674 296.736 255.674 293.746 255.674 291.753 256.471 291.753 256.538L291.554 256.538C291.554 256.604 292.949 250.159 292.949 250.159L293.414 250.159 293.414 250.691 293.68 250.691 293.68 250.824 293.879 250.824 293.879 250.558 294.078 250.359 294.211 250.359 294.211 249.761 294.676 249.761 294.676 250.226 294.809 250.226 295.009 250.425 295.009 250.425C295.009 250.425 295.075 250.425 295.075 250.425L295.075 250.226 295.274 250.026 295.341 250.026 295.341 249.428 295.872 249.428 295.872 250.026 296.138 250.159 296.138 250.359 296.271 250.359 296.271 250.159C296.271 250.159 296.47 249.96 296.47 249.96L296.537 249.96 296.537 249.362 297.068 249.362 297.068 249.96 297.135 249.96 297.334 250.159 297.334 250.292 297.467 250.292 297.467 250.093 297.6 249.96 297.733 249.96 297.733 249.495 298.264 249.495 298.264 250.026 298.331 250.026 298.53 250.226 298.53 250.359 298.663 250.359C298.663 250.359 298.796 250.159 298.796 250.159L298.929 250.159 298.929 249.694 299.394 249.694 299.394 250.292 299.46 250.292 299.66 250.492 299.66 250.691 299.793 250.691 299.793 250.558 300.058 250.558 300.058 250.026 300.59 250.026 301.919 256.538Z" fill="#0D6B30" transform="matrix(1 0 0 1.00023 -125.251 134.705)"/><path d="M296.072 254.478 297.201 254.478 297.201 255.541 296.072 255.541Z" fill="#FFFFFF" transform="matrix(1 0 0 1.00023 -125.251 134.705)"/><path d="M296.205 255.408 297.135 255.408 297.135 254.611 296.205 254.611ZM297.334 255.674 295.939 255.674 295.939 254.412 297.334 254.412Z" fill="#0D6B30" transform="matrix(1 0 0 1.00023 -125.251 134.705)"/><path d="M348.761 251.621 315.141 251.953 297.135 261.521 295.341 279.262C295.341 279.262 304.045 299.195 334.277 299.593" fill="#FFFFFF" transform="matrix(1 0 0 1.00023 -125.251 134.705)"/><path d="M334.277 299.793C318.596 299.593 308.762 294.078 303.314 289.427 297.401 284.444 295.142 279.394 295.142 279.328L295.142 279.328C295.142 279.328 295.142 279.195 295.142 279.195L296.936 261.322 315.075 251.688 315.075 251.688 348.695 251.355 348.695 251.82C348.695 251.82 315.141 252.153 315.141 252.153L297.268 261.654 295.474 279.195C295.74 279.727 297.999 284.444 303.513 289.095 308.895 293.68 318.596 299.128 334.144 299.327L334.144 299.793Z" fill="#0D6B30" transform="matrix(1 0 0 1.00023 -125.251 134.705)"/><path d="M334.277 299.527C334.277 299.527 356.203 299.527 368.827 279.394L366.834 261.388 348.761 251.555" fill="#FFFFFF" transform="matrix(1 0 0 1.00023 -125.251 134.705)"/><path d="M334.277 299.793 334.277 299.327C334.277 299.327 339.792 299.327 346.768 296.803 353.147 294.544 362.116 289.627 368.628 279.394L366.635 261.588 348.628 251.82 348.828 251.422 367.033 261.322 369.027 279.527 369.027 279.527C362.515 290.025 353.412 295.009 346.901 297.268 339.858 299.793 334.343 299.793 334.277 299.793" fill="#0D6B30" transform="matrix(1 0 0 1.00023 -125.251 134.705)"/><path d="M346.635 242.585C346.635 242.585 341.785 239.861 332.084 239.861 321.453 239.861 317.599 242.784 317.599 242.784L305.772 290.956C313.148 296.338 322.184 299.593 332.018 299.593 342.183 299.593 350.954 296.603 358.462 290.889L346.702 242.651Z" fill="#FFFFFF" transform="matrix(1 0 0 1.00023 -125.251 134.705)"/><path d="M305.972 290.823C313.546 296.404 322.516 299.327 331.951 299.327 341.851 299.327 350.622 296.404 358.13 290.756L346.436 242.718C345.771 242.385 340.921 240.126 332.084 240.126L332.084 240.126C322.383 240.126 318.33 242.585 317.799 242.917L306.038 290.823ZM331.951 299.793C322.383 299.793 313.281 296.803 305.573 291.155L305.44 291.155C305.44 291.089 305.44 290.889 305.44 290.889L317.334 242.651 317.334 242.651C317.467 242.452 321.387 239.661 331.951 239.661L331.951 239.661C341.585 239.661 346.569 242.385 346.635 242.385L346.702 242.385C346.702 242.385 346.702 242.518 346.702 242.518L358.529 290.889 358.396 290.889C350.821 296.803 341.918 299.726 331.818 299.726" fill="#0D6B30" transform="matrix(1 0 0 1.00023 -125.251 134.705)"/><path d="M347.831 241.522C347.831 241.522 341.054 238.399 331.951 238.399 322.915 238.399 316.204 241.522 316.204 241.522L317.599 242.585C317.599 242.585 322.782 239.861 332.084 239.861 341.386 239.861 346.569 242.452 346.569 242.452L347.898 241.588Z" fill="#0D6B30" transform="matrix(1 0 0 1.00023 -125.251 134.705)"/><path d="M347.632 241.322 343.379 222.054 342.516 222.054 342.516 223.648 341.785 223.648 341.785 224.246 341.253 224.246 341.253 224.047 340.589 224.047 340.589 223.117C340.589 223.117 340.257 222.718 340.257 222.718L339.725 222.718 339.725 220.924 338.928 220.924 338.928 222.386 338.33 222.386 337.998 222.718 337.998 223.316 337.4 223.316 337.4 223.117 337.067 223.117 337.067 222.32 336.735 221.987 336.27 221.987 336.27 220.26 335.34 220.26 335.34 221.921 334.542 222.253 334.542 222.984 333.413 222.984 333.413 222.12 333.081 221.788 332.616 221.788 332.616 220.061 331.752 220.061 331.752 221.854 331.287 221.854 330.822 222.32 330.822 222.918 329.825 222.918 329.825 222.054 329.559 221.788 328.961 221.788 328.961 220.26C328.961 220.26 328.097 220.26 328.097 220.26L328.097 221.987 327.632 221.987 327.167 222.452 327.167 223.05 326.503 223.05 326.503 223.383 326.038 223.383 326.038 222.785 325.772 222.519 325.24 222.519 325.24 220.991 324.443 220.991 324.443 222.785 323.978 222.785 323.579 223.183 323.579 224.047 322.915 224.047 322.915 224.18 322.516 224.18 322.516 223.516 321.652 223.516 321.652 221.987 320.722 221.987 316.603 241.389C316.603 241.389 322.782 238.332 332.151 238.332 341.519 238.332 347.831 241.256 347.831 241.256" fill="#FFFFFF" transform="matrix(1 0 0 1.00023 -125.251 134.705)"/><path d="M320.722 222.32 316.736 241.057C318.264 240.392 323.978 238.2 331.951 238.2 339.924 238.2 345.771 240.326 347.3 240.99L343.18 222.32 342.715 222.32 342.715 223.914 341.984 223.914 341.984 224.512 340.987 224.512 340.987 224.313 340.323 224.313 340.323 223.25 340.124 223.05 339.459 223.05 339.459 221.256 339.061 221.256 339.061 222.785 338.33 222.785 338.13 222.984 338.13 223.715 337.067 223.715 337.067 223.516 336.735 223.516 336.735 222.585 336.536 222.386 335.938 222.386 335.938 220.659 335.473 220.659 335.473 222.253 334.675 222.585 334.675 223.383 333.081 223.383 333.081 222.386 332.881 222.187 332.283 222.187 332.283 220.459 331.885 220.459 331.885 222.253 331.287 222.253C331.287 222.253 330.955 222.585 330.955 222.585L330.955 223.316 329.493 223.316 329.493 222.32 329.36 222.187 328.629 222.187 328.629 220.725C328.629 220.725 328.23 220.725 328.23 220.725L328.23 222.452 327.632 222.452 327.3 222.785 327.3 223.516 326.636 223.516 326.636 223.848 325.706 223.848 325.706 223.117 325.573 222.984 324.908 222.984 324.908 221.456 324.576 221.456 324.576 223.25 323.978 223.25 323.712 223.516 323.712 224.512 323.048 224.512 323.048 224.645 322.184 224.645 322.184 223.981 321.32 223.981 321.32 222.452C321.32 222.452 320.789 222.452 320.789 222.452ZM316.138 241.854 320.39 221.854 321.719 221.854 321.719 223.383 322.583 223.383 322.583 223.914 323.181 223.914 323.181 223.117 323.712 222.585 324.044 222.585 324.044 220.791 325.307 220.791 325.307 222.32 325.706 222.32 326.104 222.718 326.104 223.183 326.104 223.183 326.104 222.851 326.769 222.851 326.769 222.386 327.367 221.788 327.699 221.788 327.699 220.061 329.028 220.061 329.028 221.522C329.028 221.522 329.493 221.522 329.493 221.522L329.891 221.921 329.891 222.652 330.423 222.652 330.423 222.187 331.021 221.589 331.353 221.589 331.353 219.795 332.682 219.795 332.682 221.522 333.014 221.522 333.479 221.987 333.479 222.718 334.144 222.718 334.144 222.12 334.941 221.788 334.941 220.061 336.336 220.061 336.336 221.788 336.669 221.788 337.134 222.253 337.134 222.918 337.466 222.918 337.466 223.117 337.665 223.117 337.665 222.652 338.13 222.187 338.596 222.187 338.596 220.725 339.858 220.725 339.858 222.519 340.257 222.519 340.722 222.984 340.722 223.781 341.386 223.781 341.386 223.981 341.453 223.981 341.453 223.383 342.183 223.383 342.183 221.788 343.446 221.788 347.831 241.655 347.432 241.455C347.432 241.455 341.054 238.532 331.818 238.532 322.583 238.532 316.47 241.522 316.403 241.522L316.005 241.721Z" fill="#0D6B30" transform="matrix(1 0 0 1.00023 -125.251 134.705)"/><path d="M330.556 238.2 333.612 238.2 333.612 235.475 330.556 235.475ZM334.011 238.665 330.091 238.665 330.091 235.01 334.011 235.01Z" fill="#0D6B30" transform="matrix(1 0 0 1.00023 -125.251 134.705)"/><path d="M346.104 269.561C346.104 269.561 340.655 268.896 332.018 275.275 332.018 275.275 324.576 269.295 318.264 268.896 318.264 268.896 329.36 274.079 330.888 276.272 330.888 276.272 328.762 278.863 327.965 279.129 327.965 279.129 326.769 276.405 325.506 277.733 325.506 277.733 324.775 278.265 325.506 278.996 325.506 278.996 326.171 279.727 326.702 279.262L327.034 279.66C327.034 279.66 326.569 280.325 325.772 280.524 325.772 280.524 324.177 279.66 324.111 281.587 324.111 281.587 325.041 283.647 328.097 280.989 328.097 280.989 329.493 282.65 330.489 282.384 330.489 282.384 332.416 281.786 330.822 280.458 330.822 280.458 330.29 279.992 329.493 280.923L328.828 280.391C328.828 280.391 331.685 277.733 331.885 277.6 332.084 277.468 334.875 280.391 334.875 280.391L334.476 280.923C334.476 280.923 333.346 279.727 332.549 281.188 332.549 281.188 332.815 283.514 334.808 281.986L335.805 281.056C335.805 281.056 338.064 283.381 339.393 282.384 339.393 282.384 340.389 281.521 339.725 280.856 339.725 280.856 339.194 280.125 338.396 280.657 338.396 280.657 337.865 280.79 336.934 279.793L337.4 279.328C337.4 279.328 338.33 280.125 338.861 278.796 338.861 278.796 339.26 277.6 337.4 277.6 337.4 277.6 336.802 277.866 336.204 279.262L333.346 276.471C333.346 276.471 337.2 272.351 346.17 269.494" fill="#0D6B30" transform="matrix(1 0 0 1.00023 -125.251 134.705)"/><path d="M331.619 260.192C331.619 260.192 330.755 261.255 331.021 262.651 331.021 262.651 329.227 260.79 330.622 258.797 330.622 258.797 329.227 258.996 328.762 261.787 328.762 261.787 327.765 259.461 329.493 257.335 329.493 257.335 327.632 258.465 327.167 260.059 327.167 260.059 327.034 257.269 329.559 256.139 329.559 256.139 328.164 256.139 327.367 256.737 327.367 256.737 328.097 254.545 330.955 255.143 330.955 255.143 329.891 253.814 329.227 253.814 329.227 253.814 331.087 253.548 331.951 254.478 331.951 254.478 331.885 253.747 332.35 253.282 332.35 253.282 332.881 254.345 333.147 254.545 333.147 254.545 334.277 253.681 335.406 253.947 335.406 253.947 334.41 254.678 334.21 255.143 334.21 255.143 337.134 255.076 337.599 257.202 337.599 257.202 335.871 255.94 334.941 256.272 334.941 256.272 337.532 257.202 337.798 260.126 337.798 260.126 336.137 257.601 335.207 257.468 335.207 257.468 336.802 260.059 335.871 261.654 335.871 261.654 335.207 258.863 334.41 258.465 334.41 258.465 334.808 261.588 333.812 262.584 333.812 262.584 333.413 260.325 332.682 260.059L332.549 269.162C332.616 269.893 332.815 270.159 332.815 270.159 332.748 270.624 332.815 271.023 332.815 271.023 333.014 271.288 333.014 271.554 333.014 271.554 333.147 272.086 333.014 272.418 333.014 272.418 333.214 272.949 333.546 273.348 333.546 273.348L330.489 273.481C330.755 273.348 331.087 272.219 331.087 272.219 330.888 271.687 331.287 270.89 331.287 270.89 331.287 270.358 331.685 269.162 331.685 269.162L331.685 260.192Z" fill="#0D6B30" transform="matrix(1 0 0 1.00023 -125.251 134.705)"/><path d="M331.951 211.689C307.832 211.689 288.231 231.289 288.231 255.408 288.231 279.527 307.832 299.128 331.951 299.128 356.07 299.128 375.671 279.527 375.671 255.408 375.671 231.289 356.07 211.689 331.951 211.689M331.951 300.324C307.168 300.324 287.035 280.192 287.035 255.408 287.035 230.625 307.168 210.493 331.951 210.493 356.735 210.493 376.867 230.625 376.867 255.408 376.867 280.192 356.735 300.324 331.951 300.324" fill="#006A46" transform="matrix(1 0 0 1.00023 -125.251 134.705)"/><path d="M331.951 210.293C306.902 210.293 286.57 230.625 286.57 255.674 286.57 280.723 306.902 301.055 331.951 301.055 357 301.055 377.332 280.723 377.332 255.674 377.332 230.625 357 210.293 331.951 210.293M331.951 302.317C306.238 302.317 285.308 281.388 285.308 255.674 285.308 229.961 306.238 209.031 331.951 209.031 357.665 209.031 378.594 229.961 378.594 255.674 378.594 281.388 357.665 302.317 331.951 302.317" fill="#FFFFFF" transform="matrix(1 0 0 1.00023 -125.251 134.705)"/><path d="M331.951 210.958C307.301 210.958 287.168 231.024 287.168 255.674 287.168 267.634 291.819 278.863 300.258 287.301 308.696 295.74 319.925 300.457 331.885 300.457L331.885 300.457C356.535 300.457 376.601 280.391 376.668 255.741 376.668 243.781 372.017 232.552 363.578 224.114 355.14 215.675 343.911 210.958 331.951 210.958ZM331.951 302.982 331.951 302.982C305.905 302.982 284.71 281.786 284.71 255.741 284.71 229.695 305.905 208.499 331.951 208.499L331.951 208.499C357.997 208.499 379.192 229.695 379.192 255.741 379.192 268.365 374.276 280.192 365.306 289.162 356.402 298.065 344.509 302.982 331.885 302.982" fill="#FFFFFF" transform="matrix(1 0 0 1.00023 -125.251 134.705)"/><path d="M169.962 393.212C169.364 392.548 169.032 391.75 169.032 390.82 169.032 389.89 169.364 389.092 169.962 388.428 170.56 387.764 171.291 387.498 172.155 387.498 173.019 387.498 173.749 387.83 174.414 388.428 175.012 389.092 175.344 389.89 175.344 390.82 175.344 391.75 175.012 392.548 174.414 393.212 173.816 393.876 173.085 394.209 172.155 394.209 171.225 394.209 170.56 393.876 169.962 393.212M169.364 411.883C173.151 411.883 175.012 410.089 175.012 406.567 175.012 403.046 173.816 401.85 171.424 401.85 169.032 401.85 167.969 402.846 166.441 404.773 164.979 406.7 163.982 409.025 163.451 411.816L169.364 411.816ZM141.524 414.74C141.524 412.348 141.857 409.889 142.455 407.364L149.033 406.102C148.235 408.826 147.903 411.484 147.903 414.075 147.903 419.191 149.498 421.783 152.687 421.783 155.876 421.783 157.271 419.191 157.271 414.075L157.271 397.066 163.584 397.066 163.584 397.73C163.584 399.79 163.451 401.65 163.119 403.245L163.185 403.245C163.982 401.119 165.311 399.458 167.105 398.262 168.833 397.132 170.693 396.534 172.753 396.534 174.813 396.534 177.869 397.398 179.397 399.125 180.859 400.787 181.59 403.178 181.59 406.235 181.59 409.291 180.593 412.215 178.666 414.075 176.474 416.201 173.218 417.198 168.899 417.198L163.251 417.198C162.521 423.776 158.866 427.032 152.222 427.032 145.577 427.032 141.591 422.912 141.591 414.673" fill="#006A46" transform="matrix(1 0 0 1.00023 -125.251 134.705)"/><path d="M196.074 411.883 196.074 417.198 185.909 417.198 185.909 387.033 192.287 387.033 192.287 411.883Z" fill="#006A46" transform="matrix(1 0 0 1.00023 -125.251 134.705)"/><path d="M195.476 411.883 205.443 411.883 205.443 417.198 195.476 417.198Z" fill="#006A46" transform="matrix(1 0 0 1.00023 -125.251 134.705)"/><path d="M205.044 411.883 215.011 411.883 215.011 417.198 205.044 417.198Z" fill="#006A46" transform="matrix(1 0 0 1.00023 -125.251 134.705)"/><path d="M227.303 425.969C226.705 426.633 225.974 426.899 225.177 426.899 224.379 426.899 223.582 426.567 222.984 425.969 222.386 425.371 222.12 424.573 222.12 423.643 222.12 422.713 222.386 421.982 222.984 421.318 223.582 420.653 224.313 420.387 225.177 420.387 226.04 420.387 226.705 420.72 227.303 421.318 227.901 421.982 228.167 422.713 228.167 423.643 228.167 424.573 227.901 425.371 227.303 425.969M220.193 425.969C219.595 426.633 218.931 426.899 218.067 426.899 217.203 426.899 216.539 426.567 215.941 425.969 215.343 425.304 215.077 424.573 215.077 423.643 215.077 422.713 215.343 421.982 215.941 421.318 216.539 420.653 217.27 420.387 218.067 420.387 218.865 420.387 219.595 420.72 220.193 421.318 220.791 421.982 221.057 422.713 221.057 423.643 221.057 424.573 220.791 425.371 220.193 425.969M214.612 411.883 221.854 411.883 221.854 397.066 228.167 397.066 228.167 417.198 214.612 417.198Z" fill="#006A46" transform="matrix(1 0 0 1.00023 -125.251 134.705)"/><path d="M230.625 427.763 231.09 422.381C231.887 422.58 232.818 422.713 233.814 422.713 234.811 422.713 235.94 422.381 236.538 421.65 237.136 420.852 237.469 419.524 237.469 417.597L237.469 396.999 243.847 396.999 243.847 411.816 247.502 411.816 247.502 417.132 243.847 417.132 243.847 417.331C243.847 424.44 240.392 427.962 233.482 427.962 226.572 427.962 231.555 427.895 230.625 427.696" fill="#006A46" transform="matrix(1 0 0 1.00023 -125.251 134.705)"/><path d="M257.8 387.033 257.8 417.198 246.837 417.198 246.837 411.883 251.422 411.883 251.422 387.033Z" fill="#006A46" transform="matrix(1 0 0 1.00023 -125.251 134.705)"/><path d="M264.046 387.033 270.425 387.033 270.425 417.264 264.046 417.264Z" fill="#006A46" transform="matrix(1 0 0 1.00023 -125.251 134.705)"/><path d="M294.61 393.278C294.012 392.614 293.746 391.883 293.746 390.953 293.746 390.023 294.012 389.225 294.61 388.627 295.208 387.963 295.939 387.697 296.803 387.697 297.666 387.697 298.331 388.029 298.929 388.627 299.527 389.292 299.793 390.089 299.793 390.953 299.793 391.817 299.527 392.68 298.929 393.278 298.331 393.943 297.6 394.275 296.803 394.275 296.005 394.275 295.208 393.943 294.61 393.278M296.271 402.448C295.474 401.983 294.411 401.783 293.148 401.783 291.886 401.783 290.889 402.248 290.158 403.178 289.494 404.109 289.095 405.238 289.095 406.7 289.095 410.155 290.823 411.883 294.278 411.883L296.205 411.883 296.205 402.448ZM287.434 393.278C286.836 392.614 286.57 391.883 286.57 390.953 286.57 390.023 286.836 389.292 287.434 388.627 288.032 387.963 288.763 387.697 289.56 387.697 290.358 387.697 291.089 388.029 291.686 388.627 292.284 389.292 292.55 390.089 292.55 390.953 292.55 391.817 292.284 392.68 291.686 393.278 291.089 393.943 290.358 394.275 289.56 394.275 288.763 394.275 288.032 393.943 287.434 393.278M293.68 417.198C286.437 417.198 282.85 413.942 282.85 407.364 282.85 400.787 283.713 401.783 285.441 399.79 287.368 397.597 290.158 396.468 293.813 396.468 297.467 396.468 300.058 396.933 302.517 397.929L302.517 411.883 306.171 411.883 306.171 417.198 293.813 417.198Z" fill="#006A46" transform="matrix(1 0 0 1.00023 -125.251 134.705)"/><path d="M305.44 411.883 315.407 411.883 315.407 417.198 305.44 417.198Z" fill="#006A46" transform="matrix(1 0 0 1.00023 -125.251 134.705)"/><path d="M328.695 393.278C328.097 392.614 327.832 391.883 327.832 390.953 327.832 390.023 328.097 389.225 328.695 388.627 329.293 387.963 330.024 387.697 330.822 387.697 331.619 387.697 332.35 388.029 332.948 388.627 333.546 389.292 333.812 390.089 333.812 390.953 333.812 391.817 333.546 392.68 332.948 393.278 332.35 393.943 331.619 394.275 330.822 394.275 330.024 394.275 329.227 393.943 328.695 393.278M329.891 410.62C330.556 409.69 330.955 408.428 330.955 406.833 330.955 403.444 329.759 401.783 327.3 401.783 324.842 401.783 325.373 402.182 324.709 402.913 323.912 403.776 323.513 405.039 323.513 406.634 323.513 410.155 324.709 411.883 327.167 411.883 329.626 411.883 329.227 411.417 329.891 410.554M321.586 393.278C320.988 392.614 320.722 391.883 320.722 390.953 320.722 390.023 320.988 389.292 321.586 388.627 322.184 387.963 322.915 387.697 323.712 387.697 324.51 387.697 325.24 388.029 325.838 388.627 326.436 389.292 326.702 390.089 326.702 390.953 326.702 391.817 326.436 392.68 325.838 393.278 325.24 393.943 324.576 394.275 323.712 394.275 322.848 394.275 322.184 393.943 321.586 393.278M315.008 411.883 316.271 411.883C317.068 411.883 317.799 411.949 318.463 412.082 317.599 410.886 317.134 409.291 317.134 407.232 317.134 404.042 318.131 401.451 320.124 399.458 322.118 397.464 324.576 396.468 327.699 396.468 330.822 396.468 333.147 397.331 334.808 398.993 336.469 400.72 337.333 403.178 337.333 406.434 337.333 409.69 336.735 410.952 335.539 412.148 336.536 412.015 337.466 411.949 338.33 411.949L340.124 411.949 340.124 417.264 315.141 417.264 315.141 411.949Z" fill="#006A46" transform="matrix(1 0 0 1.00023 -125.251 134.705)"/><path d="M356.402 411.883C359.924 411.816 361.718 410.022 361.718 406.567 361.718 403.112 360.522 401.85 358.13 401.85 355.738 401.85 354.741 402.846 353.213 404.773 351.685 406.7 350.688 409.092 350.223 411.816L356.402 411.816ZM339.459 411.883 343.977 411.883 343.977 386.966 350.356 386.966 350.356 397.664C350.356 399.79 350.157 401.584 349.824 403.178L349.891 403.178C350.688 401.052 352.017 399.458 353.877 398.195 355.605 397.066 357.465 396.468 359.525 396.468 361.585 396.468 364.575 397.331 366.103 399.059 367.565 400.72 368.296 403.112 368.296 406.168 368.296 409.225 367.897 410.288 367.033 411.883L371.02 411.883 371.02 417.198 339.459 417.198Z" fill="#006A46" transform="matrix(1 0 0 1.00023 -125.251 134.705)"/><path d="M376.535 393.212C375.937 392.548 375.604 391.75 375.604 390.82 375.604 389.89 375.937 389.092 376.535 388.428 377.133 387.764 377.864 387.498 378.727 387.498 379.591 387.498 380.388 387.83 380.986 388.428 381.584 389.092 381.917 389.89 381.917 390.82 381.917 391.75 381.584 392.548 380.986 393.212 380.388 393.876 379.591 394.209 378.727 394.209 377.864 394.209 377.133 393.876 376.535 393.212M370.156 411.883 375.604 411.883 375.604 397.066 381.983 397.066 381.983 411.883 385.571 411.883 385.571 417.198 370.156 417.198Z" fill="#006A46" transform="matrix(1 0 0 1.00023 -125.251 134.705)"/><path d="M400.986 407.232C400.986 403.644 399.79 401.85 397.398 401.85 395.006 401.85 395.139 402.315 394.408 403.245 393.743 404.175 393.345 405.305 393.345 406.766 393.345 410.221 395.072 411.949 398.527 411.949L400.986 411.949ZM384.973 417.198 384.973 411.883 386.701 411.883C387.631 411.883 388.362 412.015 388.893 412.215 387.697 411.152 387.099 409.358 387.099 406.833 387.099 404.308 387.963 401.517 389.757 399.657 391.75 397.531 394.408 396.468 397.797 396.468 401.185 396.468 403.378 397.398 404.972 399.258 406.434 400.986 407.165 403.378 407.165 406.434L407.165 417.198 384.907 417.198Z" fill="#006A46" transform="matrix(1 0 0 1.00023 -125.251 134.705)"/><path d="M430.553 393.278C429.955 392.614 429.689 391.883 429.689 390.953 429.689 390.023 429.955 389.225 430.553 388.627 431.151 387.963 431.882 387.697 432.679 387.697 433.477 387.697 434.208 388.029 434.806 388.627 435.404 389.292 435.669 390.089 435.669 390.953 435.669 391.817 435.404 392.68 434.806 393.278 434.208 393.943 433.477 394.275 432.679 394.275 431.882 394.275 431.085 393.943 430.553 393.278M432.214 402.448C431.417 401.983 430.354 401.783 429.091 401.783 427.829 401.783 426.832 402.248 426.101 403.178 425.437 404.109 425.038 405.238 425.038 406.7 425.038 410.155 426.766 411.883 430.221 411.883L432.148 411.883 432.148 402.448ZM423.444 393.278C422.846 392.614 422.58 391.883 422.58 390.953 422.58 390.023 422.846 389.292 423.444 388.627 424.042 387.963 424.773 387.697 425.57 387.697 426.367 387.697 427.098 388.029 427.696 388.627 428.294 389.292 428.56 390.089 428.56 390.953 428.56 391.817 428.294 392.68 427.696 393.278 427.098 393.943 426.367 394.275 425.57 394.275 424.773 394.275 424.042 393.943 423.444 393.278M429.623 417.198C422.381 417.198 418.793 413.942 418.793 407.364 418.793 400.787 419.656 401.783 421.384 399.79 423.311 397.597 426.101 396.468 429.756 396.468 433.41 396.468 436.002 396.933 438.46 397.929L438.46 411.883 442.114 411.883 442.114 417.198 429.756 417.198Z" fill="#006A46" transform="matrix(1 0 0 1.00023 -125.251 134.705)"/><path d="M441.383 411.883 451.35 411.883 451.35 417.198 441.383 417.198Z" fill="#006A46" transform="matrix(1 0 0 1.00023 -125.251 134.705)"/><path d="M457.33 393.212C456.732 392.548 456.4 391.75 456.4 390.82 456.4 389.89 456.732 389.092 457.33 388.428 457.928 387.764 458.659 387.498 459.522 387.498 460.386 387.498 461.184 387.83 461.782 388.428 462.38 389.092 462.712 389.89 462.712 390.82 462.712 391.75 462.38 392.548 461.782 393.212 461.184 393.876 460.386 394.209 459.522 394.209 458.659 394.209 457.928 393.876 457.33 393.212M450.951 411.883 456.4 411.883 456.4 397.066 462.778 397.066 462.778 417.198 450.951 417.198Z" fill="#006A46" transform="matrix(1 0 0 1.00023 -125.251 134.705)"/><path d="M478.658 411.883 478.658 417.198 468.559 417.198 468.559 387.033 474.871 387.033 474.871 411.883Z" fill="#006A46" transform="matrix(1 0 0 1.00023 -125.251 134.705)"/><path d="M478.06 411.883 488.027 411.883 488.027 417.198 478.06 417.198Z" fill="#006A46" transform="matrix(1 0 0 1.00023 -125.251 134.705)"/><path d="M503.707 407.232C503.707 403.644 502.511 401.85 500.119 401.85 497.727 401.85 497.86 402.315 497.129 403.245 496.465 404.175 496.066 405.305 496.066 406.766 496.066 410.221 497.794 411.949 501.249 411.949L503.707 411.949ZM487.628 417.198 487.628 411.883 489.356 411.883C490.286 411.883 491.017 412.015 491.548 412.215 490.352 411.152 489.754 409.358 489.754 406.833 489.754 404.308 490.618 401.517 492.412 399.657 494.405 397.531 497.063 396.468 500.452 396.468 503.84 396.468 506.033 397.398 507.628 399.258 509.089 400.986 509.82 403.378 509.82 406.434L509.82 417.198 487.562 417.198Z" fill="#006A46" transform="matrix(1 0 0 1.00023 -125.251 134.705)"/><path d="M514.604 388.295 520.983 388.295 520.983 417.198 514.604 417.198ZM512.146 382.647C513.009 382.647 513.674 382.714 514.272 382.847 513.807 382.515 513.541 381.917 513.541 381.119 513.541 379.923 514.006 378.927 515.003 378.063 516.132 377.066 517.727 376.601 519.853 376.601 521.979 376.601 520.916 376.601 521.514 376.734L522.378 376.867 521.78 380.189 521.115 380.056C520.65 380.056 520.185 379.99 519.72 379.99 518.458 379.99 517.86 380.388 517.86 381.252 517.86 382.116 518.724 382.581 520.518 382.581L522.976 382.581 522.976 386.036 512.212 386.036 512.212 382.581Z" fill="#006A46" transform="matrix(1 0 0 1.00023 -125.251 134.705)"/><path d="M148.169 444.772C147.704 444.772 147.371 444.772 147.039 444.772L147.039 449.49C147.305 449.49 147.637 449.49 148.036 449.49 148.9 449.49 149.564 449.29 150.029 448.825 150.561 448.36 150.76 447.762 150.76 446.965 150.76 445.436 149.896 444.639 148.102 444.639M151.292 459.788 147.305 452.546 147.039 452.546 147.039 459.788 143.053 459.788 143.053 441.383C144.249 441.317 146.043 441.251 148.435 441.251 152.753 441.251 154.946 443.045 154.946 446.699 154.946 450.353 154.614 449.024 153.883 449.955 153.218 450.885 152.288 451.483 151.159 451.815 151.757 452.679 152.222 453.41 152.488 453.875L156.076 459.788 151.225 459.788Z" fill="#006A46" transform="matrix(1 0 0 1.00023 -125.251 134.705)"/><path d="M159.331 441.383 163.318 441.383 163.318 459.788 159.331 459.788Z" fill="#006A46" transform="matrix(1 0 0 1.00023 -125.251 134.705)"/><path d="M175.743 453.343 175.743 459.788 171.756 459.788 171.756 453.41 166.374 441.383 170.76 441.383 172.753 446.101C173.218 447.164 173.55 448.161 173.882 449.024L173.882 449.024C174.082 448.294 174.547 447.23 175.211 445.702L177.072 441.383 181.258 441.383 175.809 453.343Z" fill="#006A46" transform="matrix(1 0 0 1.00023 -125.251 134.705)"/><path d="M189.297 448.493C189.031 447.762 188.832 446.898 188.633 445.902L188.633 445.902C188.367 447.098 188.168 447.961 188.035 448.493L186.639 453.011 190.759 453.011 189.364 448.493ZM192.686 459.788 191.623 456.4 185.576 456.4 184.58 459.788 180.593 459.788 186.307 441.383 191.025 441.383 197.005 459.788 192.619 459.788Z" fill="#006A46" transform="matrix(1 0 0 1.00023 -125.251 134.705)"/><path d="M209.297 446.433C208.566 445.37 207.37 444.905 205.642 444.905 203.915 444.905 204.313 444.905 203.981 444.905L203.981 456.2C204.446 456.267 204.911 456.333 205.443 456.333 206.905 456.333 208.034 455.868 208.898 454.938 209.828 453.941 210.293 452.479 210.293 450.619 210.293 448.759 209.961 447.363 209.297 446.433M211.954 457.463C210.293 459.124 208.034 459.988 205.111 459.988 202.187 459.988 202.121 459.988 199.995 459.855L199.995 441.516C201.789 441.383 203.782 441.317 205.908 441.317 211.689 441.317 214.546 444.307 214.546 450.287 214.546 456.267 213.682 455.802 211.954 457.529" fill="#006A46" transform="matrix(1 0 0 1.00023 -125.251 134.705)"/><path d="M222.253 459.788 218.267 459.788 218.267 441.383 222.253 441.383 222.253 448.426 228.565 448.426 228.565 441.383 232.552 441.383 232.552 459.788 228.565 459.788 228.565 452.147 222.253 452.147Z" fill="#006A46" transform="matrix(1 0 0 1.00023 -125.251 134.705)"/><path d="M248.83 444.772C248.365 444.772 248.033 444.772 247.701 444.772L247.701 449.49C247.967 449.49 248.299 449.49 248.698 449.49 249.561 449.49 250.226 449.29 250.691 448.825 251.222 448.36 251.422 447.762 251.422 446.965 251.422 445.436 250.558 444.639 248.764 444.639M251.953 459.788 247.967 452.546 247.701 452.546 247.701 459.788 243.714 459.788 243.714 441.383C244.91 441.317 246.704 441.251 249.096 441.251 253.415 441.251 255.608 443.045 255.608 446.699 255.608 450.353 255.276 449.024 254.545 449.955 253.88 450.885 252.95 451.483 251.82 451.815 252.418 452.679 252.884 453.41 253.149 453.875L256.737 459.788 251.887 459.788Z" fill="#006A46" transform="matrix(1 0 0 1.00023 -125.251 134.705)"/><path d="M269.694 444.971 263.913 444.971 263.913 448.626 269.362 448.626 269.362 452.081 263.913 452.081 263.913 456.134 269.694 456.134 269.694 459.788 259.927 459.788 259.927 441.383 269.694 441.383Z" fill="#006A46" transform="matrix(1 0 0 1.00023 -125.251 134.705)"/><path d="M288.099 458.924C286.238 459.722 284.245 460.12 282.052 460.12 279.86 460.12 277.003 459.323 275.474 457.729 274.013 456.2 273.282 454.008 273.282 451.284 273.282 448.559 274.145 445.702 275.807 443.908 277.534 442.048 279.926 441.118 283.049 441.118 286.172 441.118 286.504 441.383 288.032 441.849L287.235 445.702C285.839 445.171 284.378 444.839 282.85 444.839 281.321 444.839 279.727 445.37 278.796 446.5 277.933 447.496 277.534 448.892 277.534 450.619 277.534 452.347 277.933 453.742 278.73 454.672 279.594 455.669 280.79 456.134 282.451 456.134 284.112 456.134 283.647 456.067 284.112 455.868L284.112 449.822 288.099 449.822 288.099 458.725Z" fill="#006A46" transform="matrix(1 0 0 1.00023 -125.251 134.705)"/><path d="M292.617 441.383 296.603 441.383 296.603 459.788 292.617 459.788Z" fill="#006A46" transform="matrix(1 0 0 1.00023 -125.251 134.705)"/><path d="M308.497 444.905C307.301 444.905 306.304 445.37 305.573 446.367 304.776 447.363 304.444 448.759 304.444 450.486 304.444 454.34 305.772 456.267 308.43 456.267 311.088 456.267 310.623 455.802 311.354 454.805 312.151 453.808 312.483 452.413 312.483 450.686 312.483 446.832 311.154 444.905 308.497 444.905M314.211 457.529C312.616 459.323 310.556 460.187 308.164 460.187 305.772 460.187 303.513 459.323 302.185 457.662 300.856 456.067 300.191 453.808 300.191 450.885 300.191 447.961 301.055 445.503 302.716 443.643 304.311 441.849 306.37 440.985 308.762 440.985 311.154 440.985 313.413 441.849 314.742 443.51 316.071 445.104 316.736 447.363 316.736 450.287 316.736 453.21 315.872 455.669 314.211 457.529" fill="#006A46" transform="matrix(1 0 0 1.00023 -125.251 134.705)"/><path d="M329.825 459.788 325.373 450.752C324.775 449.423 324.31 448.227 324.044 447.23 324.177 449.357 324.244 451.948 324.244 454.938L324.244 459.855 320.456 459.855 320.456 441.45 325.706 441.45 330.024 450.22C330.556 451.35 331.087 452.612 331.486 453.875 331.353 452.014 331.287 449.423 331.287 446.034L331.287 441.45 335.14 441.45 335.14 459.855 329.891 459.855Z" fill="#006A46" transform="matrix(1 0 0 1.00023 -125.251 134.705)"/><path d="M362.449 459.788 361.319 452.014C361.12 450.752 360.921 449.224 360.788 447.43L360.788 447.43C360.455 449.224 360.123 450.752 359.791 452.147L357.598 459.788 353.877 459.788 351.751 452.745C351.22 450.818 350.821 449.024 350.622 447.43L350.622 447.43C350.489 449.423 350.29 451.084 350.157 452.413L349.293 459.788 345.24 459.788 348.03 441.383 352.615 441.383 355.007 449.556C355.339 450.553 355.605 451.881 355.937 453.543L355.937 453.543C356.269 452.014 356.535 450.686 356.934 449.556L359.392 441.383 363.91 441.383 366.701 459.788 362.582 459.788Z" fill="#006A46" transform="matrix(1 0 0 1.00023 -125.251 134.705)"/><path d="M384.309 452.546C384.309 457.596 381.85 460.12 377 460.12 372.149 460.12 370.156 457.861 370.156 453.277L370.156 441.317 374.143 441.317 374.143 453.011C374.143 454.207 374.342 455.004 374.807 455.602 375.272 456.2 376.136 456.533 377.266 456.533 378.395 456.533 379.192 456.267 379.658 455.669 380.123 455.071 380.388 454.141 380.388 452.745L380.388 441.317 384.309 441.317 384.309 452.479Z" fill="#006A46" transform="matrix(1 0 0 1.00023 -125.251 134.705)"/><path d="M398.395 459.788 393.943 450.752C393.345 449.423 392.88 448.227 392.614 447.23 392.747 449.357 392.813 451.948 392.813 454.938L392.813 459.855 389.026 459.855 389.026 441.45 394.275 441.45 398.594 450.22C399.125 451.35 399.657 452.612 400.056 453.875 399.923 452.014 399.856 449.423 399.856 446.034L399.856 441.45 403.71 441.45 403.71 459.855 398.461 459.855Z" fill="#006A46" transform="matrix(1 0 0 1.00023 -125.251 134.705)"/><path d="M408.228 441.383 412.215 441.383 412.215 459.788 408.228 459.788Z" fill="#006A46" transform="matrix(1 0 0 1.00023 -125.251 134.705)"/><path d="M428.294 459.257C426.965 459.788 425.57 460.054 423.975 460.054 421.052 460.054 418.926 459.124 417.53 457.197 416.401 455.669 415.869 453.675 415.869 451.217 415.869 448.759 416.6 445.769 418.128 443.975 419.656 442.114 421.849 441.184 424.64 441.184 427.43 441.184 427.165 441.383 428.161 441.716L427.63 445.569C426.633 445.171 425.636 444.971 424.507 444.971 423.377 444.971 422.048 445.436 421.318 446.433 420.587 447.43 420.188 448.759 420.188 450.42 420.188 454.141 421.716 456.067 424.706 456.067 427.696 456.067 426.766 455.868 427.63 455.403L428.161 459.19Z" fill="#006A46" transform="matrix(1 0 0 1.00023 -125.251 134.705)"/><path d="M432.347 441.383 436.334 441.383 436.334 459.788 432.347 459.788Z" fill="#006A46" transform="matrix(1 0 0 1.00023 -125.251 134.705)"/><path d="M445.902 444.772C445.569 444.772 445.237 444.772 444.905 444.772L444.905 450.287C445.237 450.353 445.636 450.42 446.034 450.42 447.828 450.42 448.759 449.49 448.759 447.563 448.759 445.636 447.828 444.772 445.902 444.772M451.151 451.948C449.888 453.277 448.094 453.941 445.902 453.941 443.709 453.941 445.237 453.941 444.971 453.941L444.971 459.855 440.985 459.855 440.985 441.45C442.646 441.383 444.373 441.317 446.167 441.317 450.686 441.317 452.945 443.31 452.945 447.23 452.945 451.151 452.347 450.752 451.151 452.014" fill="#006A46" transform="matrix(1 0 0 1.00023 -125.251 134.705)"/><path d="M461.782 448.493C461.516 447.762 461.316 446.898 461.117 445.902L461.117 445.902C460.851 447.098 460.652 447.961 460.519 448.493L459.124 453.011 463.243 453.011 461.848 448.493ZM465.237 459.788 464.173 456.4 458.127 456.4 457.131 459.788 453.144 459.788 458.858 441.383 463.576 441.383 469.555 459.788 465.17 459.788Z" fill="#006A46" transform="matrix(1 0 0 1.00023 -125.251 134.705)"/><path d="M476.466 456.067 481.715 456.067 481.715 459.788 472.479 459.788 472.479 441.383 476.466 441.383Z" fill="#006A46" transform="matrix(1 0 0 1.00023 -125.251 134.705)"/><path d="M485.037 441.383 489.023 441.383 489.023 459.788 485.037 459.788Z" fill="#006A46" transform="matrix(1 0 0 1.00023 -125.251 134.705)"/><path d="M496.598 445.038 492.478 445.038 492.478 441.383 504.704 441.383 504.704 445.038 500.585 445.038 500.585 459.788 496.598 459.788Z" fill="#006A46" transform="matrix(1 0 0 1.00023 -125.251 134.705)"/><path d="M516.531 453.343 516.531 459.788 512.544 459.788 512.544 453.41 507.162 441.383 511.481 441.383 513.474 446.101C513.94 447.164 514.272 448.161 514.604 449.024L514.604 449.024C514.803 448.294 515.268 447.23 515.933 445.702L517.793 441.383 521.979 441.383Z" fill="#006A46" transform="matrix(1 0 0 1.00023 -125.251 134.705)"/></g></svg>