<?xml version="1.0" encoding="UTF-8"?>
<svg xmlns="http://www.w3.org/2000/svg" version="1.1" xmlns:xlink="http://www.w3.org/1999/xlink" viewBox="0 0 1000 1000">
  <defs>
    <style>
      .cls-1 {
        clip-path: url(#clippath-51);
      }

      .cls-2 {
        clip-path: url(#clippath-34);
      }

      .cls-3 {
        clip-path: url(#clippath-38);
      }

      .cls-4 {
        clip-path: url(#clippath-21);
      }

      .cls-5 {
        clip-path: url(#clippath-6);
      }

      .cls-6 {
        clip-path: url(#clippath-7);
      }

      .cls-7 {
        clip-path: url(#clippath-17);
      }

      .cls-8 {
        clip-path: url(#clippath-31);
      }

      .cls-9 {
        clip-path: url(#clippath-15);
      }

      .cls-10 {
        clip-path: url(#clippath-33);
      }

      .cls-11 {
        clip-path: url(#clippath-18);
      }

      .cls-12 {
        clip-path: url(#clippath-47);
      }

      .cls-13 {
        clip-path: url(#clippath-4);
      }

      .cls-14 {
        clip-path: url(#clippath-22);
      }

      .cls-15 {
        clip-path: url(#clippath-23);
      }

      .cls-16 {
        clip-path: url(#clippath-54);
      }

      .cls-17 {
        clip-path: url(#clippath-9);
      }

      .cls-18 {
        clip-path: url(#clippath-10);
      }

      .cls-19 {
        clip-path: url(#clippath-42);
      }

      .cls-20, .cls-21 {
        fill: #fff;
      }

      .cls-22 {
        clip-path: url(#clippath-43);
      }

      .cls-23 {
        clip-path: url(#clippath-25);
      }

      .cls-24 {
        clip-path: url(#clippath-27);
      }

      .cls-25, .cls-21, .cls-26, .cls-27 {
        fill-rule: evenodd;
      }

      .cls-25, .cls-28 {
        fill: #a5351a;
      }

      .cls-29 {
        clip-path: url(#clippath-11);
      }

      .cls-30 {
        clip-path: url(#clippath-57);
      }

      .cls-31 {
        fill: none;
      }

      .cls-32 {
        clip-path: url(#clippath-36);
      }

      .cls-33 {
        clip-path: url(#clippath-35);
      }

      .cls-34 {
        clip-path: url(#clippath-48);
      }

      .cls-35 {
        clip-path: url(#clippath-28);
      }

      .cls-36 {
        clip-path: url(#clippath-1);
      }

      .cls-37 {
        clip-path: url(#clippath-56);
      }

      .cls-38 {
        clip-path: url(#clippath-45);
      }

      .cls-39 {
        clip-path: url(#clippath-46);
      }

      .cls-40 {
        clip-path: url(#clippath-40);
      }

      .cls-41 {
        clip-path: url(#clippath-5);
      }

      .cls-42 {
        clip-path: url(#clippath-20);
      }

      .cls-43 {
        clip-path: url(#clippath-8);
      }

      .cls-26, .cls-44 {
        fill: #807975;
      }

      .cls-45 {
        clip-path: url(#clippath-52);
      }

      .cls-46 {
        clip-path: url(#clippath-41);
      }

      .cls-47 {
        clip-path: url(#clippath-3);
      }

      .cls-48 {
        clip-path: url(#clippath-26);
      }

      .cls-49 {
        clip-path: url(#clippath-12);
      }

      .cls-50 {
        clip-path: url(#clippath-50);
      }

      .cls-51 {
        clip-path: url(#clippath-14);
      }

      .cls-52 {
        clip-path: url(#clippath-30);
      }

      .cls-53 {
        clip-path: url(#clippath-19);
      }

      .cls-54 {
        clip-path: url(#clippath-32);
      }

      .cls-55 {
        clip-path: url(#clippath-55);
      }

      .cls-56 {
        clip-path: url(#clippath-53);
      }

      .cls-57 {
        clip-path: url(#clippath-39);
      }

      .cls-58 {
        clip-path: url(#clippath-16);
      }

      .cls-59 {
        clip-path: url(#clippath-2);
      }

      .cls-60 {
        clip-path: url(#clippath-29);
      }

      .cls-61 {
        clip-path: url(#clippath-49);
      }

      .cls-62 {
        clip-path: url(#clippath-37);
      }

      .cls-63 {
        clip-path: url(#clippath-13);
      }

      .cls-64 {
        clip-path: url(#clippath-24);
      }

      .cls-65 {
        clip-path: url(#clippath);
      }

      .cls-27 {
        fill: #131011;
      }

      .cls-66 {
        clip-path: url(#clippath-44);
      }
    </style>
    <clipPath id="clippath">
      <polygon class="cls-31" points="426.6 488.2 575.8 488.2 500.3 365 426.6 488.2"/>
    </clipPath>
    <clipPath id="clippath-1">
      <polygon class="cls-31" points="426.6 488.2 575.8 488.2 500.3 365 426.6 488.2"/>
    </clipPath>
    <clipPath id="clippath-2">
      <polygon class="cls-31" points="426.6 488.2 575.8 488.2 500.3 365 426.6 488.2"/>
    </clipPath>
    <clipPath id="clippath-3">
      <polygon class="cls-31" points="426.6 488.2 575.8 488.2 500.3 365 426.6 488.2"/>
    </clipPath>
    <clipPath id="clippath-4">
      <polygon class="cls-31" points="426.6 488.2 575.8 488.2 500.3 365 426.6 488.2"/>
    </clipPath>
    <clipPath id="clippath-5">
      <polygon class="cls-31" points="426.6 488.2 575.8 488.2 500.3 365 426.6 488.2"/>
    </clipPath>
    <clipPath id="clippath-6">
      <polygon class="cls-31" points="426.6 488.2 575.8 488.2 500.3 365 426.6 488.2"/>
    </clipPath>
    <clipPath id="clippath-7">
      <polygon class="cls-31" points="426.6 488.2 575.8 488.2 500.3 365 426.6 488.2"/>
    </clipPath>
    <clipPath id="clippath-8">
      <polygon class="cls-31" points="426.6 488.2 575.8 488.2 500.3 365 426.6 488.2"/>
    </clipPath>
    <clipPath id="clippath-9">
      <polygon class="cls-31" points="426.6 488.2 575.8 488.2 500.3 365 426.6 488.2"/>
    </clipPath>
    <clipPath id="clippath-10">
      <polygon class="cls-31" points="426.6 488.2 575.8 488.2 500.3 365 426.6 488.2"/>
    </clipPath>
    <clipPath id="clippath-11">
      <polygon class="cls-31" points="426.6 488.2 575.8 488.2 500.3 365 426.6 488.2"/>
    </clipPath>
    <clipPath id="clippath-12">
      <polygon class="cls-31" points="426.6 488.2 575.8 488.2 500.3 365 426.6 488.2"/>
    </clipPath>
    <clipPath id="clippath-13">
      <polygon class="cls-31" points="426.6 488.2 575.8 488.2 500.3 365 426.6 488.2"/>
    </clipPath>
    <clipPath id="clippath-14">
      <polygon class="cls-31" points="426.6 488.2 575.8 488.2 500.3 365 426.6 488.2"/>
    </clipPath>
    <clipPath id="clippath-15">
      <polygon class="cls-31" points="426.6 488.2 575.8 488.2 500.3 365 426.6 488.2"/>
    </clipPath>
    <clipPath id="clippath-16">
      <polygon class="cls-31" points="426.6 488.2 575.8 488.2 500.3 365 426.6 488.2"/>
    </clipPath>
    <clipPath id="clippath-17">
      <polygon class="cls-31" points="426.6 488.2 575.8 488.2 500.3 365 426.6 488.2"/>
    </clipPath>
    <clipPath id="clippath-18">
      <polygon class="cls-31" points="426.6 488.2 575.8 488.2 500.3 365 426.6 488.2"/>
    </clipPath>
    <clipPath id="clippath-19">
      <polygon class="cls-31" points="426.6 488.2 575.8 488.2 500.3 365 426.6 488.2"/>
    </clipPath>
    <clipPath id="clippath-20">
      <polygon class="cls-31" points="426.6 488.2 575.8 488.2 500.3 365 426.6 488.2"/>
    </clipPath>
    <clipPath id="clippath-21">
      <polygon class="cls-31" points="426.6 488.2 575.8 488.2 500.3 365 426.6 488.2"/>
    </clipPath>
    <clipPath id="clippath-22">
      <polygon class="cls-31" points="426.6 488.2 575.8 488.2 500.3 365 426.6 488.2"/>
    </clipPath>
    <clipPath id="clippath-23">
      <polygon class="cls-31" points="426.6 488.2 575.8 488.2 500.3 365 426.6 488.2"/>
    </clipPath>
    <clipPath id="clippath-24">
      <polygon class="cls-31" points="426.6 488.2 575.8 488.2 500.3 365 426.6 488.2"/>
    </clipPath>
    <clipPath id="clippath-25">
      <polygon class="cls-31" points="426.6 488.2 575.8 488.2 500.3 365 426.6 488.2"/>
    </clipPath>
    <clipPath id="clippath-26">
      <polygon class="cls-31" points="426.6 488.2 575.8 488.2 500.3 365 426.6 488.2"/>
    </clipPath>
    <clipPath id="clippath-27">
      <path class="cls-31" d="M514.6,447.7c0,7.3,5.9,13.3,13.1,13.3s13.1-6,13.1-13.3-5.9-13.3-13.1-13.3-13.1,6-13.1,13.3Z"/>
    </clipPath>
    <clipPath id="clippath-28">
      <path class="cls-31" d="M514.6,447.7c0,7.3,5.9,13.3,13.1,13.3s13.1-6,13.1-13.3-5.9-13.3-13.1-13.3-13.1,6-13.1,13.3Z"/>
    </clipPath>
    <clipPath id="clippath-29">
      <polygon class="cls-31" points="426.6 488.2 575.8 488.2 500.3 365 426.6 488.2"/>
    </clipPath>
    <clipPath id="clippath-30">
      <path class="cls-31" d="M501.2,423.4c0,7.3,5.9,13.3,13.1,13.3s13.1-6,13.1-13.3-5.9-13.3-13.1-13.3-13.1,6-13.1,13.3Z"/>
    </clipPath>
    <clipPath id="clippath-31">
      <polygon class="cls-31" points="426.6 488.2 575.8 488.2 500.3 365 426.6 488.2"/>
    </clipPath>
    <clipPath id="clippath-32">
      <path class="cls-31" d="M474.4,423.4c0,7.3,5.9,13.3,13.1,13.3s13.1-6,13.1-13.3-5.9-13.3-13.1-13.3-13.1,6-13.1,13.3Z"/>
    </clipPath>
    <clipPath id="clippath-33">
      <polygon class="cls-31" points="426.6 488.2 575.8 488.2 500.3 365 426.6 488.2"/>
    </clipPath>
    <clipPath id="clippath-34">
      <path class="cls-31" d="M487.9,447.7c0,7.3,5.9,13.3,13.1,13.3s13.1-6,13.1-13.3-5.9-13.3-13.1-13.3-13.1,6-13.1,13.3Z"/>
    </clipPath>
    <clipPath id="clippath-35">
      <path class="cls-31" d="M487.9,447.7c0,7.3,5.9,13.3,13.1,13.3s13.1-6,13.1-13.3-5.9-13.3-13.1-13.3-13.1,6-13.1,13.3Z"/>
    </clipPath>
    <clipPath id="clippath-36">
      <polygon class="cls-31" points="426.6 488.2 575.8 488.2 500.3 365 426.6 488.2"/>
    </clipPath>
    <clipPath id="clippath-37">
      <path class="cls-31" d="M461,447.7c0,7.3,5.9,13.3,13.1,13.3s13.1-6,13.1-13.3-5.9-13.3-13.1-13.3-13.1,6-13.1,13.3Z"/>
    </clipPath>
    <clipPath id="clippath-38">
      <path class="cls-31" d="M461,447.7c0,7.3,5.9,13.3,13.1,13.3s13.1-6,13.1-13.3-5.9-13.3-13.1-13.3-13.1,6-13.1,13.3Z"/>
    </clipPath>
    <clipPath id="clippath-39">
      <polygon class="cls-31" points="426.6 488.2 575.8 488.2 500.3 365 426.6 488.2"/>
    </clipPath>
    <clipPath id="clippath-40">
      <path class="cls-31" d="M474.4,471.5c0,7.3,5.9,13.3,13.1,13.3s13.1-6,13.1-13.3-5.9-13.3-13.1-13.3-13.1,6-13.1,13.3Z"/>
    </clipPath>
    <clipPath id="clippath-41">
      <polygon class="cls-31" points="426.6 488.2 575.8 488.2 500.3 365 426.6 488.2"/>
    </clipPath>
    <clipPath id="clippath-42">
      <path class="cls-31" d="M501.2,471.5c0,7.3,5.9,13.3,13.1,13.3s13.1-6,13.1-13.3-5.9-13.3-13.1-13.3-13.1,6-13.1,13.3Z"/>
    </clipPath>
    <clipPath id="clippath-43">
      <polygon class="cls-31" points="426.6 488.2 575.8 488.2 500.3 365 426.6 488.2"/>
    </clipPath>
    <clipPath id="clippath-44">
      <polygon class="cls-31" points="426.6 488.2 575.8 488.2 500.3 365 426.6 488.2"/>
    </clipPath>
    <clipPath id="clippath-45">
      <polygon class="cls-31" points="426.6 488.2 575.8 488.2 500.3 365 426.6 488.2"/>
    </clipPath>
    <clipPath id="clippath-46">
      <polygon class="cls-31" points="426.6 488.2 575.8 488.2 500.3 365 426.6 488.2"/>
    </clipPath>
    <clipPath id="clippath-47">
      <polygon class="cls-31" points="426.6 488.2 575.8 488.2 500.3 365 426.6 488.2"/>
    </clipPath>
    <clipPath id="clippath-48">
      <polygon class="cls-31" points="426.6 488.2 575.8 488.2 500.3 365 426.6 488.2"/>
    </clipPath>
    <clipPath id="clippath-49">
      <polygon class="cls-31" points="426.6 488.2 575.8 488.2 500.3 365 426.6 488.2"/>
    </clipPath>
    <clipPath id="clippath-50">
      <polygon class="cls-31" points="426.6 488.2 575.8 488.2 500.3 365 426.6 488.2"/>
    </clipPath>
    <clipPath id="clippath-51">
      <polygon class="cls-31" points="426.6 488.2 575.8 488.2 500.3 365 426.6 488.2"/>
    </clipPath>
    <clipPath id="clippath-52">
      <polygon class="cls-31" points="426.6 488.2 575.8 488.2 500.3 365 426.6 488.2"/>
    </clipPath>
    <clipPath id="clippath-53">
      <polygon class="cls-31" points="426.6 488.2 575.8 488.2 500.3 365 426.6 488.2"/>
    </clipPath>
    <clipPath id="clippath-54">
      <polygon class="cls-31" points="426.6 488.2 575.8 488.2 500.3 365 426.6 488.2"/>
    </clipPath>
    <clipPath id="clippath-55">
      <polygon class="cls-31" points="426.6 488.2 575.8 488.2 500.3 365 426.6 488.2"/>
    </clipPath>
    <clipPath id="clippath-56">
      <polygon class="cls-31" points="426.6 488.2 575.8 488.2 500.3 365 426.6 488.2"/>
    </clipPath>
    <clipPath id="clippath-57">
      <polygon class="cls-31" points="426.6 488.2 575.8 488.2 500.3 365 426.6 488.2"/>
    </clipPath>
  </defs>
  <!-- Generator: Adobe Illustrator 28.7.0, SVG Export Plug-In . SVG Version: 1.2.0 Build 23)  -->
  <g>
    <g id="Layer_2">
      <g>
        <g>
          <g>
            <path class="cls-21" d="M473.4,349.1c.5-.6,1-1.1,1.5-1.6.6-.5,1.1-.9,1.7-1.3.5-.3,1-.6,1.5-.8,1-.4,1.9-.8,3-1,1-.2,1.9-.4,2.9-.5.7,0,1.4,0,2.1-.1h33.8c.4,0,.8,0,1.2,0,.4.1.8.2,1.1.4.4.2.7.4,1,.6.4.3.7.5,1,.8.3.3.6.7,1,1.1l.3.4,75.9,125.8c.7,1.5,1,3.1,1,4.8,0,1.7-.2,3.5-1,5.1l-18.4,30.4c-.3.6-.7,1.1-1.2,1.6-.2.3-.5.5-.8.8-.7.6-1.4,1-2.2,1.4-.7.3-1.3.5-2,.6-1.1.2-2.1.3-3.2.4h-147.9c-1,.1-2,0-3-.2-.3,0-.7-.1-1-.3-1.3-.4-2.4-.9-3.5-1.6-.6-.4-1.1-.9-1.6-1.4-.3-.4-.6-.8-.9-1.2l-17.2-29.4c-.4-1-.7-2.1-.9-3.2-.1-.8-.2-1.5-.1-2.3,0-1,.2-1.9.4-2.9.2-.7.4-1.3.6-1.9l74.6-124.1.2-.3h0Z"/>
            <path class="cls-27" d="M472.1,348.7c3.1-4.2,8.1-6.2,14-6.3h33.9c2.7,0,4.9,1.3,6.7,3.9l75.9,125.8c1.6,3.2,1.5,8.3,0,11l-18.2,30c-2.5,4.5-6.2,5.7-11.1,5.8h-147.5c-4.5,0-8.4-1.4-11.1-5.2l-17.3-29.5c-1.6-3.8-1.6-7.6,0-11.4l74.7-124.3h0Z"/>
            <path class="cls-21" d="M498.6,358.3l-4.4-7.8c-4.5-7.2-15.4-6.9-20.3.4l-73.8,123.1c-1.1,2.7-1.3,6.1,0,9.3l12.9,21.6c.4-1.9.3-4,1.5-5.9l84.1-140.8h0ZM497,358.4l-3.8-6.7c-5.2-6.7-13.8-6.2-18.7.5l-72.1,120.8c-1.5,3.1-2.1,6.2-1,9.4l11,18.7c.3-1.8,1.3-3.7,2.4-5.5l82.2-137.1h0Z"/>
            <path class="cls-21" d="M422.4,493.9l-4.9,8.1c-2.5,5.1,1.2,12.8,9.3,13.1l145-.3c3.4,0,5.3.1,7.3-2.4l11.4-18.4c-1.7.6-4,.3-6.2.3l-162-.3h0ZM421.2,492.6l-5.4,9.1c-2.6,5.3,2.1,14.7,10.5,14.9l146.7-.2c3.5,0,6.5-1.3,8.5-4.1l12-20c-1.8.6-4.9.5-7.1.5l-165.2-.2h0Z"/>
            <path class="cls-21" d="M581.7,490.1h8.8c8.3-1.2,12.3-11.9,9.4-17.3l-74.8-123.7c-1.9-2.8-3.2-4-6.5-4.4h-26.5c1.5,1.2,3.8,3.3,4.9,5.9l84.7,139.6h0ZM582.3,488.6h8.2c7.1-2.1,10.1-7.9,8-15.3l-74.2-121.8c-1.9-2.8-2.4-4.5-5.6-4.9h-22.8c1.4,1.2,2.5,3.2,3.6,5.1l82.7,136.9h0Z"/>
            <polygon class="cls-21" points="500.1 360.9 422.9 489.6 578.4 489.6 500.1 360.9"/>
            <path class="cls-25" d="M497,358.4l-3.8-6.7c-5.2-6.7-13.8-6.2-18.7.5l-72.1,120.8c-1.5,3.1-2.1,6.2-1,9.4l11,18.7c.3-1.8,1.2-3.7,2.4-5.5l82.3-137.1h0Z"/>
            <path class="cls-25" d="M582.3,488.6h7.7c7.9-1.6,11.2-9.5,7.8-17l-73.5-120.1c-1.9-2.8-2.4-4.5-5.6-4.9h-22.8c1.4,1.2,2.5,3.2,3.6,5.1l82.7,136.9Z"/>
            <path class="cls-26" d="M422.4,493.9l-4.8,8.1c-2.5,5.1,1.2,12.8,9.3,13.1l145-.3c3.4,0,5.3.1,7.3-2.4l11.4-18.4c-1.7.6-4,.3-6.2.3l-162-.3h0Z"/>
            <path class="cls-21" d="M562.1,503.8h4.5c1,0,1.6-.1,1.9-.3.3-.2.4-.7.4-1.5v-1.3c0-.8-.1-1.3-.3-1.5-.2-.2-.7-.3-1.5-.3h-5v5h0ZM562.1,506.5v3.4c0,1,.4,1.8,1,2.4h-10.8c.6-.5.9-1.3,1-2.4v-11.4c0-1-.4-1.8-1-2.4h19.2c1.3,0,2.3,0,3,.1s1.2.3,1.7.6c1,.6,1.4,1.4,1.5,2.5v3.7c0,1.1-.5,2-1.5,2.6-.5.3-1.1.5-1.7.6-.7.1-1.7.2-3,.2h-9.4,0ZM529,496.2c-.6.5-.9,1.3-.9,2.4v9.2c0,.7.1,1.2.3,1.4.3.3,1,.5,1.9.5h6.9c.9,0,1.5-.1,1.8-.4.3-.2.4-.8.4-1.5v-9.2c0-1-.4-1.9-1-2.4h5.5c-.6.5-.9,1.3-.9,2.4v9.1c0,.8,0,1.5-.3,2-.2.5-.6.9-1.1,1.3-1,.9-2.4,1.3-4.3,1.3h-12c-1.9,0-3.3-.4-4.3-1.3-.5-.4-.9-.9-1.1-1.3s-.3-1.1-.3-2v-9.1c0-1-.4-1.8-1-2.4h10.4ZM496.7,500.8v7c0,.7,0,1.2.3,1.4.3.3.9.5,1.8.5h2.8c.8,0,1.4-.1,1.7-.4.3-.2.4-.8.4-1.5v-7c0-.7-.1-1.2-.3-1.4-.3-.3-.9-.5-1.8-.5h-3.1c-.7,0-1.2.1-1.4.4s-.3.8-.3,1.5M494.1,496.3h12.1c.8,0,1.6,0,2.3.3.8.2,1.4.6,1.8,1,.8.6,1.2,1.7,1.2,3.3v6.9c0,1.6-.4,2.7-1.1,3.3-.5.4-1,.7-1.8,1s-1.5.3-2.4.4h-12.1c-.8,0-1.6,0-2.4-.3-.8-.2-1.4-.6-1.8-1-.8-.6-1.2-1.7-1.2-3.3v-6.9c0-1.6.4-2.7,1.2-3.3.5-.4,1-.7,1.8-1,.7-.3,1.5-.4,2.3-.4M462.8,503h4.8c.7,0,1.2,0,1.5-.3.2-.2.3-.6.3-1.2v-.8c0-.8-.1-1.3-.3-1.5-.2-.2-.8-.3-1.7-.3h-4.6v4h0ZM465.5,505.6h-2.7v4.5c0,1,.4,1.8,1,2.4h-10.5c.6-.5.9-1.3,1-2.4v-11.4c0-1-.4-1.8-1-2.4h18.7c1.3,0,2.3,0,2.9.1.7.1,1.2.3,1.7.6.9.6,1.4,1.4,1.5,2.5v3.5c0,.7-.1,1.3-.4,1.6-.5.6-1.2.9-2.4.9s-.3,0-.6,0l3.1,4.7c.6.8,1.1,1.6,1.8,2.2h-10s-4-6.8-4-6.8h0ZM444.9,496.4l.7,3.2c-.5-.2-.9-.3-1.2-.4-.3,0-1,0-2,0h-7.6c-.8,0-1.3.1-1.6.4s-.4.8-.4,1.5v7c0,.7.1,1.2.3,1.4.3.3.9.5,1.7.5h2.1c.6,0,1-.1,1.2-.3.2-.2.3-.6.3-1.3v-2.8h-1.9c-.6,0-1,0-1.3,0-.3,0-.7.1-1.1.3v-2.9h12.5c-.5.5-.8,1.3-.8,2.4v4.8c0,1,.3,1.9.8,2.4h-6.5c-.1-.4-.3-1-.4-1.7,0,.7-.3,1.2-.8,1.4s-1.4.3-2.7.3h-5.8c-1.1,0-2,0-2.6-.1s-1.1-.3-1.5-.6c-.8-.6-1.2-1.4-1.2-2.6v-9.4c0-1.1.4-2,1.2-2.6.4-.3.9-.5,1.5-.6.6-.1,1.4-.2,2.6-.2h14.3,0Z"/>
            <path class="cls-21" d="M482.2,364.5l-3,5,3.8,2.3c.9.5,1.7.7,2.4.5l-4.8,8c-.2-.7-.7-1.4-1.6-1.9l-9.4-5.8c-.9-.5-1.7-.7-2.4-.5l4.8-8c.2.7.7,1.4,1.6,1.9l3.5,2.1,3-5-3.5-2.1c-.9-.5-1.7-.7-2.4-.5l4.8-8c.2.7.7,1.4,1.5,1.9l9.4,5.8c.9.5,1.7.7,2.4.5l-4.8,8c-.2-.7-.7-1.4-1.6-1.9l-3.7-2.4h0ZM465.2,406.6c-.2-.7-.7-1.4-1.5-1.9l-9.4-5.9c-.9-.5-1.7-.7-2.4-.5l8.7-14.4c.4-.7.9-1.3,1.5-1.8.6-.5,1.1-.9,1.7-1,.9-.3,2,0,3.3.7l5.7,3.5c1.3.8,2,1.7,2.2,2.7,0,.6,0,1.3-.1,2-.2.8-.5,1.5-.9,2.1l-8.7,14.4h0ZM467.4,397.8l1.9-3.2c.4-.7.6-1.2.6-1.6s-.4-.7-1.1-1.1l-5.8-3.6c-.6-.3-1-.5-1.3-.5-.4,0-.9.5-1.3,1.2l-1.9,3.2,9,5.6h0ZM441.6,414.6l3.9-6.5,15,2.1c.8,0,1.5,0,2.3-.2l-4.5,7.4c-.1-.4-.3-.7-.7-.9-.4-.2-.9-.4-1.5-.4l-1.8-.2-3.7,6.1,1.3,2.1c.2.4.5.7.8.8.2.1.6.2,1,.3l-2.5,4.2c-.3-1.1-.8-2.2-1.5-3.3l-6.9-11.5c-.4,0-.8,0-1.2,0M451.4,415.5l-5.3-.7,2.9,4.6,2.4-4h0ZM438,433.7l-2.1-4.6c-.3-.7-.7-1.2-1.2-1.5,0,0-.2-.1-.4-.2l2.4-3.9c0,.4,0,.8.1,1.1,0,.3.3.8.7,1.6l3.9,8.4,3.1,1.9c.9.5,1.7.7,2.4.6l-4.1,6.8c-.2-.7-.8-1.3-1.6-1.8l-3.1-1.9-8.7.4c-1.3,0-2.4.1-3.1.3l4.4-7.3c.4.2.7.4,1,.4s.8,0,1.5,0l4.9-.2h0ZM435.1,456l-4.4,7.4c-.2-.7-.7-1.3-1.6-1.9l-9.4-5.8c-.9-.5-1.7-.7-2.4-.6l4.4-7.4c.2.7.7,1.3,1.6,1.9l9.4,5.9c.9.5,1.7.7,2.4.6M415.9,475.4l-1.1,1.8,3.7,2.3c.9.5,1.7.7,2.4.6l-4.4,7.3c-.2-.7-.8-1.3-1.6-1.9l-9.4-5.9c-.9-.5-1.7-.7-2.4-.6l7.7-12.8c.5-.9,1-1.5,1.4-1.9.3-.4.8-.7,1.2-.8.8-.3,1.7-.2,2.7.3l2.9,1.8c.6.4,1,.8,1.2,1.1.3.6.2,1.3-.3,2.1,0,0-.1.2-.3.4l5.2.3c.9,0,1.8,0,2.6,0l-4.2,6.9-7.4-.8h0ZM412.6,475.9l2-3.3c.3-.5.4-.9.4-1.1,0-.2-.3-.5-.8-.8l-.7-.4c-.7-.4-1.1-.6-1.4-.5-.2,0-.5.4-.9,1l-1.9,3.2,3.3,2h0Z"/>
            <path class="cls-21" d="M596.4,476.6l-2.3,2.3c0-.9-.3-1.6-.7-2.3l-.5-.8-3.6-5.9c-.3-.4-.5-.7-.7-.8-.2-.1-.4,0-.7,0l-.5.3c-.3.2-.5.4-.5.6s.2.6.5,1.2l2.6,4.2c.7,1.1,1.1,1.9,1.3,2.4.2.5.3,1,.3,1.5,0,.9-.6,1.7-1.5,2.3l-3.6,2.2c-.9.5-1.9.6-2.8.2-.5-.2-.9-.6-1.3-.9-.3-.4-.8-1.1-1.4-2.1l-6.9-11.4,2.3-2.2c0,.6.2,1.1.5,1.6.2.5.6,1.3,1.3,2.4l3,5c.4.6.6.9.7,1,.1.1.3.2.4.2s.3,0,.5-.2l.4-.3c.3-.2.5-.4.5-.6,0-.2,0-.4-.2-.7l-2.9-4.8c-.6-1-1.1-1.8-1.3-2.4-.2-.6-.3-1-.3-1.5,0-.9.6-1.7,1.6-2.4l3.6-2.2c.9-.5,1.8-.6,2.8-.2.5.2.9.6,1.3.9.3.4.8,1.1,1.4,2.1l6.7,11.1h0ZM573.4,443.5l-3.2,2,3.8,6.3c.8,1.2,1.5,2.2,2.1,2.8l-2.8,1.7c0-.6-.4-1.4-1.1-2.6l-4.2-6.9-3.4,2.1,4.6,7.6c.4.7,1.2,1.6,2.2,2.6l-3,.9-11.3-18.6c.8.2,1.6.1,2.5-.3l9.2-5.8c.8-.6,1.3-1.2,1.4-2.1l11,18.2-2.1,2.1c-.3-.7-.5-1.2-.6-1.6-.2-.4-.6-1.1-1.3-2.2l-3.9-6.4h0ZM556.4,434.4l-3,1.1-8.7-14.3c.7.1,1.5,0,2.4-.5l9.2-5.8c.8-.6,1.3-1.2,1.5-1.9l4.6,7.6c-.7-.1-1.5,0-2.4.5l-9,5.6,3.5,5.8c.6.9,1.1,1.5,1.7,1.8M537.4,404.2l1.7,2.9c.4.7.8,1,1.1,1.1.1,0,.3,0,.4,0,.1,0,.4-.2.7-.4l.6-.4c.5-.3.7-.5.9-.6.1-.1.2-.3.3-.4s0-.3,0-.4c0-.1-.2-.4-.5-.9l-1.9-3-3.4,2.1h0ZM543,400.8l1.9,3.2c.3.5.6.8.8.8.3,0,.7,0,1.2-.4l.5-.3c.6-.3.9-.6,1-.9,0-.3,0-.6-.2-1l-2-3.4-3.2,2h0ZM546,407.8c.5.8.8,1.5,1,1.9.2.5.3.9.2,1.3,0,.7-.4,1.4-1.3,1.9l-1.8,1.1c-.9.6-1.8.6-2.7.3-.4-.2-.8-.5-1.2-.8-.3-.4-.8-1-1.3-1.9l-7.6-12.5c.7.1,1.5,0,2.4-.6l9.2-5.7c.8-.6,1.3-1.2,1.5-1.9l7.6,12.5c.5.9.9,1.6,1,2.1.2.5.3,1,.2,1.5,0,.9-.6,1.7-1.5,2.3l-1.3.8c-.5.3-1,.5-1.3.5-.3,0-.7,0-1.1-.3-.5-.4-1.2-1.2-2.1-2.5M529.5,383.2l2.8-4.5-5.4.4,2.5,4.2h0ZM534.6,374.7l4.1,6.8-8.3,12.6c-.4.6-.7,1.4-.8,2.1l-4.7-7.8c.4,0,.8,0,1.1-.2.3-.2.7-.6,1-1.2l1-1.6-3.9-6.4-2.4.2c-.5,0-.8.1-1.1.3-.2.1-.4.4-.7.8l-2.6-4.3c1,.3,2.3.4,3.6.3l13.2-.7c.2-.3.3-.7.4-1.1h0ZM527.2,362.5l-2.3,2.3c0-.6-.1-1.1-.3-1.5s-.6-1.1-1.1-2.1l-2.2-3.7c-.3-.5-.6-.9-.7-1.1-.2-.2-.4-.3-.6-.4-.2,0-.4,0-.6,0s-.5.2-1,.5l-5.5,3.5c-.6.4-.9.8-1,1.2,0,.4.2,1.1.8,2l2.1,3.5c.8,1.3,1.6,2.4,2.4,3.1l-2.9,1.1-6.6-10.8c-.9-1.5-1.2-2.8-1-4.1,0-.6.3-1.1.6-1.5.3-.4.8-.8,1.5-1.2l5.6-3.5c.7-.4,1.3-.7,1.7-.8.5,0,1,0,1.6.2,1.2.4,2.2,1.3,3.1,2.7l6.4,10.5h0Z"/>
            <polygon class="cls-21" points="500.3 365 575.8 488.2 426.6 488.2 500.3 365"/>
          </g>
          <g>
            <g class="cls-65">
              <rect class="cls-28" x="423" y="485" width="158.2" height="2"/>
            </g>
            <g class="cls-36">
              <rect class="cls-28" x="423" y="480.2" width="158.2" height="2"/>
            </g>
            <g class="cls-59">
              <rect class="cls-28" x="423" y="475.5" width="158.2" height="2"/>
            </g>
            <g class="cls-47">
              <rect class="cls-28" x="423" y="470.7" width="158.2" height="2"/>
            </g>
            <g class="cls-13">
              <path class="cls-25" d="M423,466h158.2v2h-158.2v-2h0Z"/>
            </g>
            <g class="cls-41">
              <rect class="cls-28" x="423" y="461.2" width="158.2" height="2"/>
            </g>
            <g class="cls-5">
              <rect class="cls-28" x="423" y="456.5" width="158.2" height="2"/>
            </g>
            <g class="cls-6">
              <rect class="cls-28" x="423" y="451.7" width="158.2" height="2"/>
            </g>
            <g class="cls-43">
              <rect class="cls-28" x="423" y="447" width="158.2" height="2"/>
            </g>
            <g class="cls-17">
              <rect class="cls-44" x="423" y="442.2" width="158.2" height="2"/>
            </g>
            <g class="cls-18">
              <rect class="cls-44" x="423" y="437.5" width="158.2" height="2"/>
            </g>
            <g class="cls-29">
              <rect class="cls-44" x="423" y="432.7" width="158.2" height="2"/>
            </g>
            <g class="cls-49">
              <rect class="cls-44" x="423" y="428" width="158.2" height="2"/>
            </g>
            <g class="cls-63">
              <rect class="cls-44" x="423" y="423.2" width="158.2" height="2"/>
            </g>
            <g class="cls-51">
              <rect class="cls-44" x="423" y="418.5" width="158.2" height="2"/>
            </g>
            <g class="cls-9">
              <path class="cls-26" d="M423,413.7h158.2v2h-158.2v-2h0Z"/>
            </g>
            <g class="cls-58">
              <rect class="cls-44" x="423" y="409" width="158.2" height="2"/>
            </g>
            <g class="cls-7">
              <rect class="cls-44" x="423" y="404.2" width="158.2" height="2"/>
            </g>
            <g class="cls-11">
              <rect class="cls-44" x="423" y="399.5" width="158.2" height="2"/>
            </g>
            <g class="cls-53">
              <rect class="cls-44" x="423" y="394.7" width="158.2" height="2"/>
            </g>
            <g class="cls-42">
              <rect class="cls-44" x="423" y="390" width="158.2" height="2"/>
            </g>
            <g class="cls-4">
              <rect class="cls-44" x="423" y="385.2" width="158.2" height="2"/>
            </g>
            <g class="cls-14">
              <rect class="cls-44" x="423" y="380.5" width="158.2" height="2"/>
            </g>
            <g class="cls-15">
              <rect class="cls-44" x="423" y="375.8" width="158.2" height="2"/>
            </g>
            <g class="cls-64">
              <rect class="cls-44" x="423" y="371" width="158.2" height="2"/>
            </g>
            <g class="cls-23">
              <rect class="cls-44" x="423" y="366.3" width="158.2" height="2"/>
            </g>
            <g class="cls-48">
              <path class="cls-26" d="M527.7,434.4c7.2,0,13.1,6,13.1,13.3s-5.9,13.3-13.1,13.3-13.1-6-13.1-13.3,5.9-13.3,13.1-13.3"/>
            </g>
          </g>
          <g>
            <g class="cls-24">
              <rect class="cls-28" x="511.4" y="446.3" width="30.1" height="16.4"/>
            </g>
            <g class="cls-35">
              <rect class="cls-44" x="511.4" y="432.2" width="30.1" height="14.1"/>
            </g>
          </g>
          <g class="cls-60">
            <path class="cls-21" d="M514.3,410.1c7.2,0,13.1,6,13.1,13.3s-5.9,13.3-13.1,13.3-13.1-6-13.1-13.3,5.9-13.3,13.1-13.3"/>
          </g>
          <g class="cls-52">
            <rect class="cls-44" x="499.8" y="407.4" width="29.1" height="32.5"/>
          </g>
          <g class="cls-8">
            <path class="cls-21" d="M487.5,410.1c7.2,0,13.1,6,13.1,13.3s-5.9,13.3-13.1,13.3-13.1-6-13.1-13.3,5.9-13.3,13.1-13.3"/>
          </g>
          <g class="cls-54">
            <rect class="cls-44" x="471" y="407.4" width="31.8" height="32.6"/>
          </g>
          <g class="cls-10">
            <path class="cls-26" d="M500.9,434.4c7.2,0,13.1,6,13.1,13.3s-5.9,13.3-13.1,13.3-13.1-6-13.1-13.3,5.9-13.3,13.1-13.3"/>
          </g>
          <g>
            <g class="cls-2">
              <rect class="cls-28" x="483.6" y="446.3" width="34" height="18.2"/>
            </g>
            <g class="cls-33">
              <rect class="cls-44" x="483.6" y="432.7" width="34" height="13.6"/>
            </g>
          </g>
          <g class="cls-32">
            <path class="cls-26" d="M474.1,434.4c7.2,0,13.1,6,13.1,13.3s-5.9,13.3-13.1,13.3-13.1-6-13.1-13.3,5.9-13.3,13.1-13.3"/>
          </g>
          <g>
            <g class="cls-62">
              <rect class="cls-28" x="460.3" y="446.3" width="30.9" height="17.1"/>
            </g>
            <g class="cls-3">
              <rect class="cls-44" x="460.3" y="432" width="30.9" height="14.3"/>
            </g>
          </g>
          <g class="cls-57">
            <path class="cls-26" d="M487.5,458.2c7.2,0,13.1,6,13.1,13.3s-5.9,13.3-13.1,13.3-13.1-6-13.1-13.3,5.9-13.3,13.1-13.3"/>
          </g>
          <g class="cls-40">
            <rect class="cls-28" x="471.7" y="453" width="32.4" height="36"/>
          </g>
          <g class="cls-46">
            <path class="cls-26" d="M514.3,458.2c7.2,0,13.1,6,13.1,13.3s-5.9,13.3-13.1,13.3-13.1-6-13.1-13.3,5.9-13.3,13.1-13.3"/>
          </g>
          <g class="cls-19">
            <rect class="cls-28" x="496.7" y="456.5" width="33.1" height="30"/>
          </g>
          <g>
            <g class="cls-22">
              <rect class="cls-20" x="474.1" y="478.4" width="54.1" height="1"/>
            </g>
            <g class="cls-66">
              <rect class="cls-20" x="471.6" y="473.8" width="59" height="1"/>
            </g>
            <g class="cls-38">
              <rect class="cls-20" x="472.3" y="469" width="57.1" height="1"/>
            </g>
            <g class="cls-39">
              <rect class="cls-20" x="473.5" y="464.4" width="54.8" height="1"/>
            </g>
            <g class="cls-12">
              <rect class="cls-20" x="467.9" y="459.4" width="67.3" height="1"/>
            </g>
            <g class="cls-34">
              <rect class="cls-20" x="461.8" y="454.5" width="78.5" height="1"/>
            </g>
            <g class="cls-61">
              <rect class="cls-20" x="459" y="449.7" width="82.9" height="1"/>
            </g>
            <g class="cls-50">
              <rect class="cls-20" x="458.8" y="445" width="83.2" height="1"/>
            </g>
            <g class="cls-1">
              <rect class="cls-20" x="460.6" y="440.1" width="80.4" height="1"/>
            </g>
            <g class="cls-45">
              <rect class="cls-20" x="460.6" y="435.3" width="80.4" height="1"/>
            </g>
            <g class="cls-56">
              <rect class="cls-20" x="462.4" y="430.5" width="76.5" height="1"/>
            </g>
            <g class="cls-16">
              <rect class="cls-20" x="465.8" y="426.1" width="68.4" height="1"/>
            </g>
            <g class="cls-55">
              <rect class="cls-20" x="467.3" y="421.2" width="66.7" height="1"/>
            </g>
            <g class="cls-37">
              <rect class="cls-20" x="470.6" y="416.4" width="59.3" height="1"/>
            </g>
            <g class="cls-30">
              <rect class="cls-20" x="473" y="411.9" width="55.9" height="1"/>
            </g>
          </g>
        </g>
        <g>
          <path d="M179.1,649v-29.8c0,0,14.1,0,14.1,0,2.6,0,4.6.2,6,.7,1.4.5,2.5,1.4,3.4,2.7.8,1.3,1.3,2.9,1.3,4.8s-.3,3.1-1,4.3c-.6,1.2-1.5,2.2-2.7,2.9-.7.5-1.7.9-3,1.2,1,.4,1.7.7,2.2,1.1.3.2.8.8,1.4,1.6.6.8,1,1.4,1.2,1.9l4.1,8.6h-9.6l-4.6-9.1c-.6-1.2-1.1-1.9-1.5-2.3-.6-.5-1.3-.7-2.1-.7h-.8v12.1h-8.5,0ZM187.6,631.2h3.6c.4,0,1.1-.1,2.2-.4.6-.1,1-.4,1.4-.9.3-.5.5-1.1.5-1.7,0-1-.3-1.7-.8-2.2-.6-.5-1.6-.8-3.2-.8h-3.7v6.1h0Z"/>
          <path d="M208.5,619.1h7.6v5.6h-7.6v-5.6ZM208.6,627.4h7.6v21.6s-7.6,0-7.6,0v-21.6Z"/>
          <path d="M218.9,627.3h8l4.2,14.3,3.8-14.4h7.5l-7.9,23.1c-.9,2.6-1.8,4.4-2.7,5.3-1.3,1.3-3.3,2-6,2s-2.8-.1-5.1-.5l-.6-5.8c1.1.4,2.3.6,3.7.6s1.6-.2,2.2-.7,1-1.2,1.4-2.4l-8.4-21.6h0Z"/>
          <path d="M250.8,634.3l-7.3-.8c.3-1.4.7-2.5,1.2-3.3s1.3-1.5,2.2-2.1c.7-.4,1.7-.8,2.9-1s2.6-.3,4-.3c2.3,0,4.1.1,5.5.4s2.6.8,3.5,1.7c.6.6,1.2,1.5,1.5,2.6.4,1.1.6,2.2.6,3.2v9.5c0,1,0,1.8.2,2.4s.4,1.3.8,2.2h-7.2c-.3-.5-.5-1-.6-1.2s-.2-.8-.3-1.4c-1,1-2,1.8-3,2.2-1.3.6-2.9.9-4.7.9s-4.2-.6-5.4-1.8-1.9-2.7-1.9-4.4.4-3,1.3-4c.9-1.1,2.5-1.9,4.9-2.4,2.9-.6,4.7-1.1,5.6-1.3.8-.3,1.7-.6,2.7-1,0-1-.2-1.7-.6-2.1-.4-.4-1.1-.6-2-.6s-2.2.2-2.8.7c-.5.3-.9,1-1.2,1.9M257.4,638.6c-1,.4-2.1.8-3.3,1.1-1.5.4-2.5.9-2.9,1.3-.4.4-.6,1-.6,1.5s.2,1.2.6,1.6,1,.6,1.9.6,1.6-.2,2.4-.7c.7-.4,1.2-1,1.5-1.6.3-.6.5-1.5.5-2.5v-1.3h0Z"/>
          <path d="M290.4,619v29.8c0,0-7.1,0-7.1,0v-3.2c-1,1.4-1.9,2.3-2.7,2.8-1.1.6-2.3.9-3.7.9-2.7,0-4.8-1.1-6.2-3.3s-2.1-5-2.2-8.2c0-3.6.8-6.3,2.4-8.2,1.6-1.9,3.6-2.8,6-2.8s2.3.2,3.3.6,1.8,1.1,2.6,1.9v-10.3h7.7,0ZM282.8,637.9c0-1.7-.3-3-1-3.8-.7-.8-1.5-1.2-2.5-1.2s-1.6.4-2.2,1.2c-.6.8-.9,2.1-.9,4s.3,3,.9,3.9c.6.8,1.4,1.2,2.3,1.2s1.8-.4,2.4-1.2,1-2.2,1-4"/>
          <path d="M295.1,619h7.6v11c1-1.2,2.1-2,3.1-2.5,1-.5,2.2-.8,3.6-.8,2.1,0,3.7.7,4.9,2,1.2,1.4,1.8,3.5,1.8,6.3v13.7h-7.6v-11.9c0-1.4-.3-2.3-.7-2.9s-1.1-.8-1.9-.8-1.7.4-2.2,1.1c-.6.8-.9,2.1-.8,4.1v10.4h-7.6v-29.8c0,0,0,0,0,0Z"/>
          <path d="M352.3,636.4l7.5,2.4c-.5,2.3-1.3,4.2-2.4,5.7-1.1,1.5-2.4,2.7-4,3.5-1.6.8-3.6,1.2-6.1,1.2-3,0-5.4-.5-7.3-1.4-1.9-.9-3.5-2.6-4.9-5-1.4-2.4-2.1-5.4-2.1-9.1,0-4.9,1.2-8.7,3.6-11.4,2.4-2.6,5.8-4,10.3-4,3.5,0,6.2.8,8.2,2.3,2,1.5,3.5,3.8,4.4,7l-7.5,1.8c-.3-.9-.6-1.6-.8-2-.5-.7-1.1-1.2-1.7-1.6-.7-.4-1.5-.6-2.3-.6-1.9,0-3.4.8-4.4,2.5-.8,1.2-1.2,3.2-1.2,5.9s.5,5.6,1.4,6.8c.9,1.2,2.2,1.8,3.9,1.8s2.8-.5,3.7-1.5,1.4-2.4,1.8-4.3"/>
          <path d="M370.3,634l-7.3-.8c.3-1.4.7-2.5,1.2-3.3.5-.8,1.3-1.5,2.2-2.1.7-.4,1.7-.8,2.9-1s2.6-.3,4-.3c2.3,0,4.1.1,5.5.4,1.4.3,2.6.8,3.5,1.7.6.6,1.2,1.5,1.5,2.6.4,1.1.6,2.2.6,3.2v9.5c0,1,0,1.8.2,2.4s.4,1.3.8,2.2h-7.2c-.3-.6-.5-1-.6-1.2s-.2-.8-.3-1.4c-1,1-2,1.8-3,2.2-1.3.6-2.9.9-4.7.9s-4.2-.6-5.4-1.8-1.9-2.7-1.9-4.4.4-3,1.3-4,2.5-1.9,4.9-2.4c2.9-.6,4.7-1.1,5.6-1.3.8-.3,1.7-.6,2.7-1,0-1-.2-1.7-.6-2.1-.4-.4-1.1-.6-2-.6s-2.2.2-2.8.7c-.5.3-.9,1-1.2,1.9M377,638.4c-1,.4-2.1.8-3.3,1.1-1.5.4-2.5.9-2.9,1.3-.4.4-.6,1-.6,1.5s.2,1.2.6,1.6,1,.6,1.9.6,1.6-.2,2.4-.7c.7-.4,1.2-1,1.5-1.6.3-.6.5-1.5.5-2.5v-1.3h0Z"/>
          <path d="M389.4,618.8h7.7v10.3c.8-.9,1.6-1.5,2.6-1.9,1-.4,2-.7,3.2-.7,2.4,0,4.4.9,6,2.8,1.6,1.9,2.4,4.6,2.4,8.1s-.3,4.4-1.1,6.2-1.7,3.1-3,4c-1.3.9-2.7,1.3-4.3,1.3s-2.6-.3-3.7-.9c-.8-.5-1.7-1.4-2.7-2.7v3.2h-7.1v-29.8c0,0,0,0,0,0ZM397.1,637.7c0,1.9.3,3.2,1,4,.6.8,1.5,1.2,2.4,1.2s1.7-.4,2.3-1.2.9-2.2.9-4.2-.3-3-.9-3.7c-.6-.8-1.3-1.2-2.2-1.2s-1.9.4-2.6,1.2c-.6.8-1,2.1-1,3.8"/>
          <rect x="415.1" y="619" width="7.6" height="29.8" transform="translate(-1.1 .7) rotate(0)"/>
          <path d="M449.9,639.7h-15.3c.1,1.4.5,2.4,1,3,.7.9,1.7,1.4,2.9,1.4s1.5-.2,2.1-.6c.4-.3.8-.7,1.3-1.4l7.5.7c-1.1,2.2-2.5,3.7-4.2,4.7-1.6.9-4,1.4-7,1.4s-4.7-.4-6.2-1.2c-1.5-.8-2.8-2.1-3.8-3.8s-1.5-3.8-1.5-6.2c0-3.4,1-6.1,3-8.2s4.7-3.1,8.2-3.1,5.1.5,6.8,1.4c1.7.9,2.9,2.3,3.8,4.1s1.3,4.1,1.3,6.9v.9h0ZM442.1,635.8c-.1-1.6-.6-2.7-1.2-3.4-.6-.7-1.5-1-2.6-1s-2.2.5-2.9,1.6c-.5.6-.8,1.6-.9,2.9h7.5Z"/>
          <path d="M452.1,642.5l7.6-.8c.3,1,.8,1.7,1.3,2.1.6.4,1.3.6,2.2.6s1.8-.2,2.4-.7c.4-.3.7-.8.7-1.3s-.3-1-.9-1.4c-.4-.2-1.5-.5-3.3-.8-2.6-.5-4.5-1-5.5-1.4-1-.4-1.9-1.1-2.6-2.1s-1.1-2.2-1.1-3.5.4-2.6,1.1-3.7c.8-1,1.8-1.8,3.1-2.3,1.3-.5,3.1-.8,5.4-.8,2.4,0,4.1.2,5.3.6,1.1.4,2.1,1,2.8,1.8s1.4,1.9,1.9,3.3l-7.2.8c-.2-.7-.5-1.2-.9-1.5-.6-.4-1.3-.6-2.2-.6s-1.5.2-1.9.5c-.4.3-.6.7-.6,1.2s.3.9.8,1.2,1.6.5,3.3.7c2.6.3,4.4.7,5.7,1.3s2.2,1.3,2.8,2.4c.7,1,1,2.1,1,3.4s-.3,2.5-1,3.6c-.7,1.2-1.8,2.1-3.3,2.8-1.5.7-3.5,1-6.1,1s-6.2-.6-7.8-1.7c-1.6-1.1-2.6-2.7-3-4.8"/>
          <path d="M504,637.5v-6.2h13.1v12.7c-2.5,1.9-4.7,3.1-6.6,3.8-1.9.7-4.2,1-6.9,1s-5.9-.6-8-1.8c-2.1-1.2-3.7-3-4.8-5.4s-1.7-5.1-1.7-8.2.6-6.1,1.8-8.5,3-4.2,5.4-5.5c1.9-1,4.4-1.5,7.5-1.5s5.3.3,6.8.9,2.8,1.5,3.7,2.8,1.7,2.8,2.2,4.8l-8.2,1.6c-.3-1.1-.9-2-1.7-2.6-.8-.6-1.8-.9-3.1-.9-1.9,0-3.3.7-4.4,2.1s-1.7,3.6-1.7,6.7.6,5.5,1.7,6.9c1.1,1.4,2.7,2.1,4.7,2.1s1.9-.1,2.7-.5c.9-.3,1.9-.8,3-1.5v-2.8h-5.7,0Z"/>
          <path d="M521.7,626.7h7.1v3.5c.7-1.5,1.4-2.6,2.1-3.2s1.6-.9,2.7-.9,2.4.4,3.7,1.1l-2.4,5.9c-.9-.4-1.6-.6-2.1-.6-1,0-1.8.5-2.3,1.3-.8,1.3-1.2,3.6-1.2,7.1v7.2h-7.7v-21.6h0Z"/>
          <path d="M538.4,637.5c0-3.3,1-6,3-8.2s4.8-3.2,8.3-3.2,7,1.2,9,3.7c1.6,2,2.5,4.5,2.5,7.5s-1,6-3,8.2c-2,2.1-4.8,3.2-8.4,3.2s-5.8-.9-7.8-2.6c-2.4-2.2-3.7-5.1-3.7-8.6M546,637.5c0,1.9.4,3.3,1.1,4.3.7.9,1.6,1.4,2.7,1.4s2-.5,2.7-1.4c.7-.9,1-2.4,1-4.4s-.4-3.3-1.1-4.2c-.7-.9-1.6-1.4-2.6-1.4s-2,.5-2.8,1.4c-.7.9-1.1,2.4-1.1,4.2"/>
          <path d="M585.9,648.2h-7.1v-3.5c-1.1,1.4-2.1,2.5-3.2,3.1s-2.4.9-4,.9-3.7-.7-4.9-2-1.8-3.5-1.8-6.3v-13.7h7.6v11.9c0,1.4.3,2.3.7,2.9s1.1.8,1.9.8,1.7-.4,2.2-1.1.9-2.1.9-4.1v-10.4h7.6v21.6h0Z"/>
          <path d="M590.6,656.4v-29.8c0,0,7.1,0,7.1,0v3.2c1-1.3,1.9-2.3,2.7-2.7,1.1-.6,2.4-1,3.7-1,2.7,0,4.7,1.1,6.2,3.3s2.2,4.9,2.2,8.2c0,3.6-.8,6.3-2.4,8.2-1.6,1.9-3.6,2.8-6,2.8s-2.2-.2-3.2-.6-1.8-1.1-2.6-1.9v10.3h-7.7ZM598.3,637.4c0,1.7.3,3,1,3.8.7.8,1.5,1.2,2.5,1.2.9,0,1.6-.4,2.2-1.2.6-.8.9-2.1.9-4s-.3-3-.9-3.9c-.6-.8-1.4-1.2-2.3-1.2s-1.8.4-2.4,1.2c-.6.8-1,2.2-1,4"/>
          <path d="M647.8,635.9l7.5,2.4c-.5,2.3-1.3,4.2-2.4,5.7s-2.4,2.7-4,3.5c-1.6.8-3.6,1.2-6.1,1.2-3,0-5.4-.5-7.3-1.4-1.9-.9-3.5-2.6-4.9-5-1.4-2.4-2.1-5.4-2.1-9.1,0-4.9,1.2-8.7,3.6-11.4,2.4-2.6,5.8-4,10.3-4,3.5,0,6.2.8,8.2,2.3,2,1.5,3.5,3.8,4.4,7l-7.5,1.8c-.3-.9-.6-1.6-.8-2-.5-.7-1-1.2-1.7-1.6-.7-.4-1.5-.6-2.3-.6-1.9,0-3.4.8-4.4,2.5-.8,1.2-1.2,3.2-1.2,5.9s.5,5.6,1.4,6.8c.9,1.2,2.2,1.8,3.9,1.8s2.8-.5,3.7-1.5c.8-1,1.4-2.4,1.8-4.3"/>
          <path d="M657.9,637.3c0-3.3,1-6,3-8.2s4.8-3.2,8.3-3.2c4,0,7,1.2,9,3.7,1.6,2,2.5,4.5,2.5,7.5s-1,6-3,8.2-4.8,3.2-8.4,3.2-5.8-.9-7.8-2.6c-2.4-2.2-3.7-5-3.7-8.6M665.6,637.3c0,1.9.4,3.3,1.1,4.3s1.6,1.4,2.7,1.4,2-.5,2.7-1.4c.7-.9,1-2.4,1-4.4s-.4-3.3-1.1-4.2c-.7-.9-1.6-1.4-2.6-1.4s-2,.5-2.8,1.4c-.7.9-1.1,2.4-1.1,4.2"/>
          <path d="M684.5,626.4h7.1v3.1c1-1.3,2.1-2.3,3.1-2.8,1-.6,2.3-.8,3.8-.8s2.8.3,3.8.9,1.7,1.5,2.3,2.7c1.2-1.4,2.3-2.4,3.3-2.9,1-.5,2.2-.8,3.7-.8,2.1,0,3.8.7,5,2.1s1.8,3.5,1.8,6.4v13.6h-7.6v-12.3c0-1-.2-1.7-.6-2.2-.5-.8-1.1-1.1-1.9-1.1s-1.6.3-2.2,1.1c-.6.7-.8,1.8-.8,3.4v11.2h-7.6v-11.9c0-1,0-1.6-.2-1.9-.2-.6-.4-1-.8-1.3s-.9-.5-1.4-.5c-.9,0-1.6.4-2.1,1.1s-.8,1.9-.8,3.5v11h-7.6v-21.6h0Z"/>
          <path d="M722.9,656.1v-29.8c0,0,7.1,0,7.1,0v3.2c1-1.3,1.9-2.3,2.7-2.7,1.1-.6,2.4-1,3.7-1,2.7,0,4.7,1.1,6.2,3.3s2.2,4.9,2.2,8.2c0,3.6-.8,6.3-2.4,8.2-1.6,1.9-3.6,2.8-6,2.8s-2.2-.2-3.2-.6-1.8-1.1-2.6-1.9v10.3h-7.7ZM730.6,637.2c0,1.7.3,3,1,3.8.7.8,1.5,1.2,2.5,1.2.9,0,1.6-.4,2.2-1.2s.9-2.1.9-4-.3-3-.9-3.9c-.6-.8-1.4-1.2-2.3-1.2s-1.8.4-2.4,1.2-1,2.1-1,4"/>
          <path d="M755.4,633.2l-7.3-.8c.3-1.4.7-2.5,1.2-3.3s1.3-1.5,2.2-2.1c.7-.4,1.7-.8,2.9-1s2.6-.3,4-.3c2.3,0,4.1.1,5.5.4,1.4.3,2.6.8,3.5,1.7.7.6,1.2,1.5,1.5,2.6.4,1.1.6,2.2.6,3.2v9.5c0,1,0,1.8.2,2.4s.4,1.3.8,2.2h-7.2c-.3-.6-.5-1-.6-1.2,0-.3-.2-.8-.3-1.4-1,1-2,1.8-3,2.2-1.3.6-2.9.9-4.7.9s-4.2-.6-5.4-1.8c-1.2-1.2-1.9-2.7-1.9-4.4s.4-3,1.3-4,2.5-1.9,4.9-2.4c2.9-.6,4.7-1.1,5.6-1.3.8-.3,1.7-.6,2.7-1,0-1-.2-1.7-.6-2.1-.4-.4-1.1-.6-2-.6s-2.2.2-2.8.6c-.5.3-.9,1-1.2,1.9M762.1,637.6c-1,.4-2.1.8-3.3,1.1-1.5.4-2.5.9-2.9,1.3-.4.4-.6,1-.6,1.5s.2,1.2.6,1.6,1,.6,1.8.6,1.6-.2,2.4-.7c.7-.4,1.2-1,1.5-1.6s.5-1.5.5-2.5v-1.3h0Z"/>
          <path d="M774.1,626.2h7.1v3.5c1-1.4,2.1-2.5,3.2-3.1s2.4-.9,4-.9,3.8.7,5,2,1.8,3.5,1.8,6.3v13.7h-7.6v-11.9c0-1.4-.3-2.3-.7-2.9s-1.1-.8-1.9-.8-1.7.4-2.2,1.1c-.6.8-.9,2.1-.8,4.1v10.4h-7.6v-21.6h0Z"/>
          <path d="M797.5,626.2h8l4.2,14.3,3.8-14.4h7.5l-7.8,23.1c-.9,2.6-1.8,4.4-2.7,5.3-1.3,1.3-3.3,1.9-6,2-1.1,0-2.8-.1-5.1-.5l-.6-5.8c1.1.4,2.3.6,3.7.6.9,0,1.6-.2,2.2-.7s1-1.2,1.4-2.4l-8.4-21.6h0Z"/>
          <path d="M200.6,578.6l5-4.7c.3-.2.4-.3.6-.3s.2,0,.3,0c0,0,.3.6.8,1.8.6,1.7,1.2,3.7,1.7,6,.5,2.4.9,4.6,1,6.6l3-3.8c3.2-4.2,6-7.1,8.5-8.7,2.5-1.7,5.3-2.5,8.5-2.5s4.4.6,6.2,1.7c1.8,1.2,3.2,2.8,4.2,5,.6,1.2,1,2.6,1.3,4.2.3,1.7.9,5.6,1.7,11.8h-33.7c-.4,4.2-1.9,7.3-4.3,9.4s-5.8,3.2-10,3.2-7.3-1.3-10-3.8-4.5-6.2-5.4-10.8l1.9-4.3.5-1c.5-1.1.8-1.6,1.1-1.6s.5.4.6,1.2c.8,4.4,2,7.7,3.7,9.7,1.7,2,4.2,3,7.2,3,5.3,0,7.9-2.8,7.9-8.4s-.2-3.4-.7-5.4c-.5-2-1.1-4-1.9-6-.3-.5-.4-.9-.4-1.2,0-.4.2-.9.7-1.3M219.6,588.3h14.8c0-1.1-.2-2.4-.6-3.6-.3-1.3-.9-2.4-1.7-3.3-.8-.9-1.6-1.3-2.6-1.3-1.4,0-3.1,1-5.3,2.9-.6.6-2.2,2.4-4.8,5.3M230.8,565.4l-2.6,2.5c-.2.3-.5.4-.8.4s-.6-.1-.8-.4l-2.6-2.5c0,0-.1-.2-.2-.4,0-.2,0-.3,0-.5,0-.4.1-.8.3-1l2.6-2.5c.3-.3.6-.4.9-.4s.6.1.8.4l2.6,2.5c.3.3.4.6.4.9,0,.4-.1.7-.4,1"/>
          <path d="M256.8,588.3v7.6h-3.5c-1.6,0-2.8-.3-3.5-1-.7-.7-1.1-1.9-1.3-3.5l-1.5-21.3v-.6c0-.4,0-.8.3-1.1.2-.3.4-.6.6-.6l5.5-2h.6c0-.1.2-.1.3,0s.2.3.2.7l.3,20c0,.8.1,1.3.3,1.5.3.4.8.6,1.5.6h.3Z"/>
          <path d="M274.4,595.9h-18.2v-7.6h10.5v-.7c0-2.8-1.1-5.5-3.1-8.2l-.2-.5.3-.5,5.8-5h.4c.2-.1.6.3,1,1.2.5.9,1,2.1,1.5,3.6,1.6,4.2,2.4,8.2,2.4,11.8s-.1,4.1-.3,5.8M264.9,605.9l-2.6,2.5c-.3.2-.5.3-.8.3s-.6-.1-.9-.3l-2.5-2.5c-.3-.3-.4-.6-.4-1s.1-.7.4-1l2.6-2.5c.3-.3.6-.4.8-.4s.6.1.8.4l2.6,2.5c.3.3.4.6.4.9s-.1.7-.4,1M272.6,605.9l-2.6,2.5c-.2.2-.5.3-.8.3s-.5-.1-.8-.3l-2.6-2.5c-.2-.2-.3-.6-.3-1s0-.8.3-1l2.6-2.5c.3-.3.6-.4.9-.4s.5.1.8.4l2.6,2.5c.3.3.4.6.4.9s-.1.7-.4,1"/>
          <path d="M290.5,588.3h3v7.6h-.2c-.5,0-.9,0-1.4-.3s-.8-.5-1.1-.8c-.3,8.2-4.4,12.8-12.3,13.8l-4.1-4.2c-.8-.9-1.3-1.5-1.3-1.8s.4-.5,1.3-.5c3.1-.2,5.4-1,7.1-2.6s2.4-3.7,2.4-6.5-.3-2.9-.8-4.9c-.6-2-1.2-3.7-1.8-4.9-.4-.6-.6-1.2-.6-1.6s.1-.6.4-.9l5.1-4.7c.1-.2.3-.3.5-.3,0,0,.2,0,.3,0s.3.6.7,1.5c1.3,3.4,2.2,7.1,2.8,11"/>
          <path d="M293,595.9v-7.6h8.3l-1.5-17.9v-.9c0-.3,0-.6.2-.9.2-.3.3-.5.6-.6l5.5-2.4h.5c.3-.1.5.1.5.6l.6,29.6h-14.7Z"/>
          <path d="M313.7,598.6l-2.2-28.3v-.9c0-.3,0-.6.2-.9.2-.3.3-.5.6-.6l5.6-2.2h.5c.3-.1.4.1.4.6v24.9c0,.4,0,.8,0,1.1,0,.3-.2.8-.5,1.3l-3.4,4.9h-.1c-.3.6-.6.8-.8.8s-.3-.2-.3-.7"/>
          <path d="M370.2,588.3v-.7c0-1.4-.3-2.8-.8-4.3-.6-1.5-1.3-2.8-2.2-4l-.2-.5.3-.5,5.7-5h.4c.3-.1,1,1.1,2.1,3.6.8,2.2,1.5,4.4,2,6.7.5,2.3.8,4.2.8,6s-.1,4.4-.4,6.2h-25.2c-4.7,0-8.4-.9-10.9-2.8-2.6-1.9-4.2-4.8-5-8.9l5.7-5.7c.2-.2.5-.4.8-.6s.5-.3.7-.3c.3,0,.5.3.5.8s0,1-.3,1.9v1c0,2.2.5,3.7,1.5,4.7,1.5,1.4,4,2.1,7.5,2.1h17.3,0ZM355.3,568.7l-2.6,2.5c-.3.3-.5.4-.8.4s-.6-.1-.9-.4l-2.5-2.5c-.3-.2-.4-.6-.4-1s.1-.7.4-.9l2.6-2.5c.3-.3.5-.4.8-.4s.6.1.8.4l2.6,2.5c.3.3.4.6.4.8,0,.4-.1.8-.4,1M363,568.7l-2.6,2.5c-.3.3-.6.4-.9.4s-.5-.1-.8-.4l-2.5-2.5c-.3-.2-.4-.6-.4-1s.1-.6.4-.9l2.5-2.5c.3-.3.6-.4.9-.4s.6.1.8.4l2.6,2.5c.3.3.4.6.4.8,0,.4-.1.8-.4,1"/>
          <path d="M391.5,573.5l7.8,14.8c-1.6-11.3-2.4-17.6-2.4-19s.4-1.5,1.3-1.8l5.2-1.8h.6c.3,0,.4.2.4.7l.8,22h2.5v7.6h-.3c-.8,0-1.5-.3-2-.8s-.8-1.3-.8-2.2c-1.3,2-3.2,3-5.8,3h-15.3c-.8,0-1.3-.4-1.4-1.2v-6.4h9.9l-8.3-13.3c-.2-.2-.3-.5-.3-.8s0-.5.3-.7c.2-.2.3-.3.6-.3h6.4c.1,0,.3,0,.5.2.2.1.3.2.4.3"/>
          <path d="M425.3,595.9h-18.2v-7.6h10.5v-.8c0-2.8-1-5.5-3.1-8.1l-.2-.5.3-.5,5.8-5h.4c.2-.1.6.5,1.2,1.7,1.1,2.3,2,4.8,2.6,7.4.6,2.6,1,5.2,1,7.5s-.1,4.1-.3,5.8M420,605.9l-2.6,2.5c-.2.2-.5.3-.8.3s-.6-.1-.9-.3l-2.5-2.5c-.3-.3-.4-.6-.4-1s.1-.6.4-1l2.6-2.5c.3-.3.6-.4.8-.4s.6.1.8.4l2.6,2.5c.3.3.4.6.4.9s-.1.8-.4,1"/>
          <path d="M439,588.3v7.6h-3.5c-1.6,0-2.8-.3-3.5-1-.7-.7-1.1-1.9-1.3-3.5l-1.5-21.3v-.6c0-.4,0-.8.3-1.1.2-.3.4-.6.6-.6l5.5-2h.6c0-.1.2-.1.3,0s.2.3.2.7l.3,20c0,.8.1,1.3.3,1.5.3.4.8.6,1.5.6h.3Z"/>
          <path d="M452.5,575.9h15.4c2.4,0,4.5.5,6.1,1.5s2.8,2.5,3.6,4.4c1,2.7,1.6,7.2,1.6,13.4v.6h-40.7v-7.6h32.2c-.1-3.4-1.4-5.1-3.9-5.1h-20.5v-1.7c0-2.6.2-4.8.5-6.4s.9-2.9,1.7-3.8c.9-1.1,2.7-2.2,5.3-3.2,4-1.6,8.9-3.3,14.6-5.2l-2.4,5.7c0,.1-.2.3-.5.5-.3.2-.6.3-.8.4l-10.2,3.6c-.6.2-1.1.6-1.5,1.1-.4.5-.6,1-.6,1.5v.4h0Z"/>
          <path d="M508.2,574.1v-.5c0-.3,0-.6.2-.9s.3-.5.6-.6c.4-.2,1.3-.6,2.8-1,1.4-.4,2.4-.6,2.7-.6s.6.1.8.4.3,1.4.3,3.3v9.6c.1,0,.2,4.4.2,4.4h3v7.6h-.3c-1.7,0-2.6-1-2.8-3.1v3.1h-12.5c-.6,0-1.3-.2-2.1-.7-.8-.5-1.5-1.1-2-1.7-.6-.9-1.1-2-1.5-3.3-.4-1.3-.6-2.7-.6-4,0-3.5,1-6.3,3-8.6s4.5-3.4,7.5-3.4h.7ZM506.2,562.7l-2.6,2.7c-.3.2-.6.3-.8.3s-.6-.1-.9-.3l-2.5-2.7c-.3-.3-.4-.6-.4-.8s.1-.6.4-.8l2.6-2.7c.2-.2.5-.3.8-.3s.6.1.8.3l2.6,2.7c.3.3.4.6.4.9s-.1.6-.4.8M509.2,588.3l-.4-6.5c-.7,0-1.2,0-1.6,0-.3,0-.7,0-1.1.2-1.6.5-2.4,1.5-2.4,3.2s.2,1.7.7,2.2c.4.6,1,.8,1.7.8h3ZM513.9,562.7l-2.6,2.7c-.3.2-.6.3-.8.3s-.6-.1-.8-.3l-2.6-2.7c-.3-.3-.4-.6-.4-.8s0-.3.1-.5c0-.2.2-.3.3-.4l2.6-2.7c.2-.2.5-.3.8-.3s.6.1.8.3l2.6,2.7c.3.3.4.6.4.9s-.1.6-.4.8"/>
          <path d="M518.3,595.9v-7.6h7.7c-.6-1.4-.9-2.8-.9-4.4s.3-2.8.8-4.2c.6-1.4,1.3-2.6,2.3-3.5,1.9-2,4.5-3,7.8-3s4.9.4,7.7,1.1v3.6c0,.1,0,.2-.2.3h-.2c-.8-.2-1.6-.3-2.6-.3s-2.2.2-3.5.5-2.3,1-3.2,1.9c-.9.9-1.3,2-1.3,3.1s.4,2.4,1.3,3.4c.8,1,1.8,1.5,2.9,1.5h11.2v6.6c0,.3-.1.6-.4.8-.3.2-.6.3-1,.3h-28.5Z"/>
          <path d="M573.6,595.9h-1c-.5,3.4-1.8,6.2-4,8.5-2.2,2.3-4.9,3.7-8.2,4.3l-4-3.9c-.5-.4-.8-.8-1.1-1.1s-.4-.6-.4-.9.4-.5,1.1-.5c1.1,0,2.4-.3,3.7-.8s2.5-1.2,3.5-2.1,1.7-2.2,2.1-3.5h-6.3c-1.8,0-3.3-.9-4.4-2.6-1.1-1.7-1.7-4.1-1.7-7s.8-7.1,2.6-9.5c1.7-2.4,3.9-3.7,6.6-3.7s5.9,1.7,7.8,5c1.7,2.8,2.6,6.2,2.6,10.2h.9v7.6h0ZM564.8,588.3v-2c0-1.8-.2-3.2-.6-4.2s-1-1.5-1.8-1.5-1.3.3-1.7,1.1c-.4.7-.6,1.7-.6,3s.2,2,.5,2.7c.3.6.8,1,1.3,1h2.9Z"/>
          <path d="M573.1,588.3h6.6v-1c0-1.6.1-3.2.5-4.9s.8-3.2,1.4-4.4c1.5-3.2,4-4.8,7.3-4.8s6.1,1.3,8.2,4c2.1,2.7,3.4,6.4,3.8,11.1h3v7.6h-.3c-.8,0-1.5-.3-2-.8-.5-.6-.8-1.3-.8-2.3-.3,1.9-1.2,3.8-2.8,5.5-2,2-3.6,3-4.8,3s-.9-.1-1.3-.5c-.4-.3-.7-.7-.9-1.2-1.1-2.5-3.3-3.8-6.3-3.8h-11.8v-7.6h0ZM593.6,591.3v-.8c0-1.1-.1-2.4-.5-3.9s-1-2.8-1.9-4-1.8-1.8-2.6-1.8c-1.7,0-2.5,1.8-2.5,5.5v2c1.9,0,3.4.1,4.5.4,1.1.3,2.1,1.1,3,2.7"/>
          <path d="M603.5,595.9v-7.6h24.4l-3.8-4.9c-.8-1-1.6-1.8-2.5-2.5s-1.8-1.1-2.9-1.1-2.9.7-4.7,2.1l-2-3c1.1-1.5,2.8-2.9,4.9-4.1s3.9-1.8,5.4-1.8,3.4.9,5.5,2.6c2.1,1.7,4,4,5.9,6.8l.3.5c1,1.7,2.2,3,3.4,3.9,1.2,1,2.2,1.5,3.1,1.5h2.8v7.6c-1.2,0-2.2-.4-3-1.1s-1.3-1.5-1.4-2.6v2.6c0,.3-.1.6-.4.8s-.6.3-1,.3h-34.1,0ZM624.8,601.4l2.6,2.5c.3.2.4.5.4.9s-.1.7-.4,1l-2.6,2.5c-.3.3-.6.4-.8.4s-.6-.1-.9-.4l-2.5-2.5c-.3-.2-.4-.6-.4-1s.1-.7.4-.9l2.5-2.5c.3-.3.6-.5.9-.5s.6.1.8.3h0Z"/>
          <path d="M642.8,595.9v-7.6h7.6v-1.3c0-1.5.2-3.1.6-4.9s1-3.4,1.8-4.7c.8-1.5,1.8-2.5,2.9-3.2s2.5-1,4.2-1c3.2,0,5.8,1.2,7.9,3.6,1.2,1.5,2.2,3.6,2.9,6.1.7,2.6,1.1,5.3,1.1,8.1s-.2,2.4-.5,3.6c-.3,1.2-1.2,2.5-2.6,4-.7.7-1.5,1.4-2.3,1.9-.8.5-1.5.8-2.1.8-.9,0-1.7-.6-2.2-1.6-1-2.5-3.2-3.8-6.3-3.8h-13ZM664.7,591.3v-.8c0-1.1-.1-2.4-.5-3.9s-1-2.8-1.9-4c-.9-1.2-1.8-1.8-2.6-1.8-1.7,0-2.5,1.8-2.5,5.5v2c1.9,0,3.3.1,4.5.4,1.1.3,2.1,1.1,3,2.7"/>
          <path d="M701.1,574.1v-.5c0-.3,0-.6.2-.9s.3-.5.6-.6c.4-.2,1.3-.6,2.8-1,1.4-.4,2.4-.6,2.7-.6s.6.1.8.4.3,1.4.3,3.3v9.6c.1,0,.2,4.4.2,4.4h3v7.6h-.3c-1.7,0-2.6-1-2.8-3.1v3.1h-12.5c-.6,0-1.3-.2-2.1-.7-.8-.5-1.5-1.1-2-1.7-.6-.9-1.1-2-1.5-3.3-.4-1.3-.6-2.7-.6-4,0-3.5,1-6.3,3-8.6s4.5-3.4,7.5-3.4h.7ZM699.1,562.7l-2.6,2.7c-.3.2-.6.3-.8.3s-.6-.1-.9-.3l-2.5-2.7c-.3-.3-.4-.6-.4-.8s.1-.6.4-.8l2.6-2.7c.2-.2.5-.3.8-.3s.6.1.8.3l2.6,2.7c.3.3.4.6.4.9s-.1.6-.4.8M702.1,588.3l-.4-6.5c-.7,0-1.2,0-1.6,0-.3,0-.7,0-1.1.2-1.6.5-2.4,1.5-2.4,3.2s.2,1.7.7,2.2c.4.6,1,.8,1.7.8h3ZM706.8,562.7l-2.6,2.7c-.3.2-.6.3-.8.3s-.6-.1-.8-.3l-2.6-2.7c-.3-.3-.4-.6-.4-.8s0-.3.1-.5c0-.2.2-.3.3-.4l2.6-2.7c.2-.2.5-.3.8-.3s.6.1.8.3l2.6,2.7c.3.3.4.6.4.9s-.1.6-.4.8"/>
          <path d="M725.3,575.9h15.4c2.4,0,4.5.5,6.1,1.5s2.8,2.5,3.6,4.4c1,2.7,1.6,7.2,1.6,13.4v.6h-40.7v-7.6h32.2c-.1-3.4-1.4-5.1-3.9-5.1h-20.5v-1.7c0-2.6.2-4.8.5-6.4s.9-2.9,1.7-3.8c.9-1.1,2.7-2.2,5.3-3.2,4-1.6,8.9-3.3,14.6-5.2l-2.4,5.7c0,.1-.2.3-.5.5-.3.2-.6.3-.8.4l-10.2,3.6c-.6.2-1.1.6-1.5,1.1-.4.5-.6,1-.6,1.5v.4h0Z"/>
          <path d="M767.4,588.3h3v7.6h-.2c-.5,0-.9,0-1.4-.3s-.8-.5-1.1-.8c-.3,8.2-4.4,12.8-12.3,13.8l-4.1-4.2c-.8-.9-1.3-1.5-1.3-1.8s.4-.5,1.3-.5c3.1-.2,5.4-1,7.1-2.6s2.4-3.7,2.4-6.5-.3-2.9-.8-4.9-1.2-3.7-1.8-4.9c-.4-.6-.6-1.2-.6-1.6s.1-.6.4-.9l5.1-4.7c.1-.2.3-.3.5-.3,0,0,.2,0,.3,0s.3.6.7,1.5c1.3,3.4,2.2,7.1,2.8,11"/>
          <path d="M819.8,595.9h-8.8c-1.3,0-2.4-.3-3.2-1s-1.3-1.6-1.5-2.8c-.1,1.2-.6,2.1-1.5,2.8-.9.7-2,1-3.3,1h-5.3c-1.3,0-2.4-.3-3.2-1s-1.3-1.6-1.5-2.8c-.2,1.2-.7,2.1-1.5,2.8s-1.9,1-3.3,1h-16.8v-7.6h14.5v-.4c0-1.2-.4-2.9-1.2-4.9-.8-2-1.7-3.6-2.7-4.9l-.2-.4c0-.2,0-.3.3-.5l4.7-4h.3c0-.1.1,0,.2,0,.1,0,.5.7,1,1.7,1.2,2.2,2.2,4.4,3,6.8.8,2.4,1.3,4.5,1.5,6.5h7.8v-.4c0-1.2-.3-2.8-1.1-4.7s-1.7-3.6-2.8-5.1l-.2-.4c0-.2,0-.3.3-.5l4.7-4h.3c.1-.1.3,0,.4.2s.5.7.9,1.6c2.4,4.6,4,9,4.5,13.3h6.5c0-1.2-.5-2.8-1.3-4.9-.8-2-1.7-3.8-2.8-5.3l-.2-.4c0-.1,0-.3.3-.5l5.5-4h.3c.4-.1,1.2,1.4,2.5,4.4,2.1,4.8,3.2,9.5,3.2,14s-.1,2.7-.4,4.2M798.1,565.9l-2.6,2.6c0,0-.1.2-.3.2-.2,0-.3,0-.5,0-.3,0-.6-.1-.8-.3l-2.6-2.6c-.2-.3-.3-.6-.3-.8,0-.4.1-.8.3-1l2.6-2.5c.3-.2.6-.3.9-.3s.5.1.8.3l2.6,2.5c.3.3.4.6.4.9s-.1.6-.4.9M802,558.3l-2.6,2.7c-.3.2-.5.3-.8.3s-.6,0-.9-.3l-2.5-2.7c-.3-.4-.5-.7-.5-.8,0-.3.2-.6.5-1l2.5-2.5c0,0,.2-.2.4-.2.2,0,.3,0,.5,0,.3,0,.6.1.8.3l2.6,2.5c.3.3.4.6.4.9s-.1.6-.4.9M805.7,565.9l-2.6,2.6c-.2.2-.5.3-.8.3s-.7-.1-.8-.3l-2.6-2.6c-.3-.3-.4-.6-.4-.8,0-.5.1-.8.4-1l2.6-2.5c.2-.2.5-.3.9-.3s.5.1.8.3l2.5,2.5c0,0,.2.2.3.4s.1.4.1.5c0,.3-.1.6-.4.9"/>
        </g>
      </g>
    </g>
  </g>
</svg>