<?xml version="1.0" encoding="UTF-8"?>
<svg id="Layer_1" data-name="Layer 1" xmlns="http://www.w3.org/2000/svg" xmlns:xlink="http://www.w3.org/1999/xlink" viewBox="0 0 1000 1000">
  <defs>
    <style>
      .cls-1 {
        fill: url(#linear-gradient);
      }

      .cls-2, .cls-3 {
        fill: #00486c;
      }

      .cls-4 {
        fill: #fff;
      }

      .cls-5 {
        fill: url(#linear-gradient-3);
      }

      .cls-6 {
        fill: url(#linear-gradient-4);
      }

      .cls-7 {
        fill: url(#linear-gradient-2);
      }

      .cls-8 {
        fill: url(#linear-gradient-6);
      }

      .cls-9 {
        fill: url(#linear-gradient-5);
      }

      .cls-3 {
        fill-rule: evenodd;
      }
    </style>
    <linearGradient id="linear-gradient" x1="284.14" y1="2894.87" x2="346.1" y2="3081.63" gradientTransform="translate(0 3450) scale(1 -1)" gradientUnits="userSpaceOnUse">
      <stop offset="0" stop-color="#f4dd55"/>
      <stop offset=".2" stop-color="#f3d74b"/>
      <stop offset=".53" stop-color="#f0c830"/>
      <stop offset=".97" stop-color="#ebb004"/>
      <stop offset="1" stop-color="#ebae00"/>
    </linearGradient>
    <linearGradient id="linear-gradient-2" x1="302.99" y1="2792.68" x2="302.99" y2="2913.66" gradientTransform="translate(0 3450) scale(1 -1)" gradientUnits="userSpaceOnUse">
      <stop offset=".79" stop-color="#f4dd55"/>
      <stop offset="1" stop-color="#ebae00"/>
    </linearGradient>
    <linearGradient id="linear-gradient-3" x1="301.71" y1="2792.68" x2="301.71" y2="2909.66" gradientTransform="translate(0 3450) scale(1 -1)" gradientUnits="userSpaceOnUse">
      <stop offset=".65" stop-color="#f4dd55"/>
      <stop offset="1" stop-color="#ebae00"/>
    </linearGradient>
    <linearGradient id="linear-gradient-4" x1="304.13" y1="2792.68" x2="304.13" y2="2869.57" gradientTransform="translate(0 3450) scale(1 -1)" gradientUnits="userSpaceOnUse">
      <stop offset=".68" stop-color="#f4dd55"/>
      <stop offset=".9" stop-color="#ebae00"/>
    </linearGradient>
    <linearGradient id="linear-gradient-5" x1="300.01" y1="2792.68" x2="300.01" y2="2842.99" gradientTransform="translate(0 3450) scale(1 -1)" gradientUnits="userSpaceOnUse">
      <stop offset="0" stop-color="#f4dd55"/>
      <stop offset=".43" stop-color="#f4dd55"/>
      <stop offset=".71" stop-color="#ebae00"/>
      <stop offset="1" stop-color="#ebae00"/>
    </linearGradient>
    <linearGradient id="linear-gradient-6" x1="332.96" y1="2763.89" x2="332.96" y2="2818.01" gradientTransform="translate(0 3450) scale(1 -1)" gradientUnits="userSpaceOnUse">
      <stop offset="0" stop-color="#f4dd55"/>
      <stop offset="1" stop-color="#ebae00"/>
    </linearGradient>
  </defs>
  <g id="Layer_2" data-name="Layer 2">
    <g id="Layer_1-2" data-name="Layer 1-2">
      <path class="cls-1" d="m302.55,657.32c-86.98.03-157.51-70.45-157.54-157.43-.03-86.98,70.45-157.51,157.43-157.54,86.98-.03,157.51,70.45,157.54,157.43,0,.04,0,.08,0,.12-.03,86.93-70.5,157.39-157.43,157.43Z"/>
      <circle class="cls-4" cx="233.3" cy="531.8" r="52.34"/>
      <path class="cls-4" d="m298.84,655.17c72.8.97,136.72-48.21,154.44-118.83-7.66.05-15.28,1.03-22.7,2.93-7.59,2.39-10.99,5.97-18.76,8.36-13.56,4.06-35.19,2.63-51.44-.36-16.25-2.99-30.89-7.35-48.63-8.96-23.96-1.19-47.98.05-71.69,3.7-23.12,2.57-50.07,4.42-71.27,0-6.78-1.31-13.4-3.32-19.78-5.97,16.87,69.28,78.54,118.31,149.84,119.13Z"/>
      <path class="cls-7" d="m302.55,657.32c72.91,0,136.28-50.06,153.18-120.98-7.76.23-15.47,1.41-22.94,3.52-7.53,2.45-10.87,5.97-18.64,8.6-13.5,4.18-35.13,3.05-51.44,0-16.1-3.61-32.37-6.4-48.75-8.36-23.89-.88-47.81.66-71.39,4.6-23.06,2.87-50.01,5.02-71.21.78-7.59-1.49-14.22-3.76-21.09-5.97,18.03,69.36,80.63,117.78,152.29,117.82Z"/>
      <path class="cls-4" d="m448.2,556.47v-.6c-10.07-1.53-20.05-3.64-29.87-6.33-11.1-4.2-22.9-6.23-34.77-5.97-14.28,1.49-22.46,9.68-34.53,14.16-16.64,4.95-34.28,5.51-51.2,1.61-15.88-3.63-31.53-8.24-46.84-13.8-16.08-5.78-32.98-8.93-50.07-9.32-17.39-.06-49.05,9.32-49.05,9.32,0,0,1.31,4.36,1.79,5.5,27.66,68.47,294.42,5.74,294.54,5.44Z"/>
      <path class="cls-5" d="m302.55,657.32c65.24.12,123.79-40.02,147.21-100.91-9.87-1.37-19.65-3.37-29.27-5.97-11.11-3.95-22.87-5.71-34.65-5.2-14.16,1.73-22.17,10.04-34.11,14.64-16.45,5.22-33.98,6.05-50.84,2.39-15.95-3.49-31.65-8-47.02-13.5-16.06-5.51-32.91-8.41-49.89-8.6-16.38.78-32.52,4.21-47.8,10.16l-2.51,1.19c22.02,63.38,81.78,105.86,148.88,105.81Z"/>
      <path class="cls-4" d="m437.81,580.96c-6.73-.92-13.52-1.3-20.31-1.14-24.26.54-46.42,9.68-70.68,10.1-29.45.54-55.26-11.95-84.72-10.99-16.01,1.14-31.84,4.07-47.2,8.72-10.94,2.93-22.15,4.71-33.46,5.32,14.82,19.3,72.59,27.06,130,24.61,83.64-3.52,116.5-21.75,122.18-29.87,2.51-4.24,2.51-4.54,4.18-6.75Z"/>
      <path class="cls-6" d="m302.55,657.32c52.55,0,101.62-26.25,130.78-69.96-7.27-1.18-14.62-1.82-21.99-1.91-24.26,0-46.72,8.42-70.98,8.18-29.39,0-54.9-13.32-84.3-13.38-16.03.74-31.94,3.23-47.44,7.41-11.04,2.69-22.34,4.23-33.7,4.6,29.62,40.92,77.1,65.12,127.61,65.06Z"/>
      <path class="cls-4" d="m297.65,655.88c40.04,1.08,79-13.05,109.03-39.55-17.97-.6-35.96.36-53.77,2.87-25.27,2.99-52.28,5.97-76.71.84-19.18-4.12-34.77-13.08-54.67-15.83-11.93-1.42-24.01-1.1-35.85.96.96.96,2.39,2.63,4.12,4.36,28.75,28.78,67.47,45.38,108.14,46.36h-.3Z"/>
      <path class="cls-9" d="m302.55,657.32c39.92.08,78.37-15.04,107.54-42.3-17.9-.15-35.77,1.29-53.41,4.3-25.03,3.58-51.8,7.41-76.23,2.75-19.18-3.64-34.83-11.95-54.67-14.46-11.98-1.11-24.05-.46-35.85,1.91,29.54,30.49,70.16,47.73,112.62,47.8Z"/>
      <path class="cls-4" d="m390.49,630.49c-15.65-5.14-32.68-1.97-48.75,2.87-19.06,5.97-39.43,16.97-58.49,22.46.84,0,1.14,0,3.11.42,6.57.11,13.03-1.66,18.64-5.08,5.02-1.97,36.15,8.18,77.07-15.35,4.9-2.87,6.33-4,8.42-5.32Z"/>
      <path class="cls-8" d="m382.07,635.81c-15.21-4.15-31.32-3.65-46.24,1.43-17.92,5.26-34.23,13.92-51.98,19,6.21.72,12.45,1.08,18.7,1.08,27.95.04,55.4-7.38,79.52-21.51Z"/>
      <path class="cls-2" d="m525.51,481.01c-5.48,0-9.92,4.44-9.92,9.92,0,5.48,4.44,9.92,9.92,9.92s9.92-4.44,9.92-9.92-4.44-9.92-9.92-9.92Z"/>
      <path class="cls-2" d="m525.51,481.01c-5.48,0-9.92,4.44-9.92,9.92,0,5.48,4.44,9.92,9.92,9.92s9.92-4.44,9.92-9.92-4.44-9.92-9.92-9.92Z"/>
      <path class="cls-2" d="m319.87,481.01c-5.48-.03-9.94,4.38-9.98,9.86-.03,5.48,4.38,9.94,9.86,9.98,5.48.03,9.94-4.38,9.98-9.86,0-.02,0-.04,0-.06-.03-5.44-4.42-9.85-9.86-9.92Z"/>
      <path class="cls-2" d="m346.16,481.01c-5.48,0-9.92,4.44-9.92,9.92s4.44,9.92,9.92,9.92,9.92-4.44,9.92-9.92h0c0-5.48-4.44-9.92-9.92-9.92Z"/>
      <path class="cls-3" d="m564.94,551.51c0-17.09-10.04-27.84-27.42-27.84-14.11-1.17-26.49,9.32-27.66,23.42-.09,1.11-.11,2.23-.06,3.34,0,17.27,12.43,26.65,28.98,26.65,11.41,0,22.64-5.38,25.51-17.21h-17.09c-1.67,3.08-4.99,4.88-8.48,4.6-5.46.76-10.5-3.05-11.26-8.51-.11-.82-.13-1.66-.03-2.49h37.4v-1.97h.12Zm-36.2-8.42c1.58-5.69,7.47-9.03,13.16-7.45,3.62,1,6.45,3.83,7.45,7.45h-20.61Z"/>
      <path class="cls-2" d="m588.72,525.46h-17.92v49.95h17.92v-23.9c0-5.56,0-14.04,7.95-14.04s7.89,8.48,7.89,14.04v23.9h17.92v-23.9c0-5.97.3-13.68,8.48-13.68s7.35,8.48,7.35,13.68v23.9h17.92v-31.78c0-11.53-4.36-19.83-17.09-19.83-7.15-.22-13.83,3.56-17.33,9.8-5.67-9.37-17.86-12.38-27.24-6.71-2.18,1.32-4.09,3.05-5.62,5.1v-6.27l-.24-.24Z"/>
      <path class="cls-2" d="m451.61,494.52v80.89h17.92v-25.51c0-5.97,2.27-11.95,9.26-11.95s8.01,5.97,8.01,11.95v25.51h17.92v-30.53c0-12.67-5.97-21.09-18.88-21.09-6.34-.26-12.37,2.76-15.95,8.01v-37.28h-18.28Z"/>
      <path class="cls-3" d="m366.11,539.2c6-.3,11.11,4.31,11.41,10.31.02.35.02.69,0,1.04,0,6.3-5.11,11.41-11.42,11.41-6.3,0-11.4-5.11-11.41-11.41-.27-6,4.37-11.08,10.37-11.35.35-.02.69-.01,1.04,0Zm-10.87-13.74h-17.92v75.04h17.92v-29.87c4.02,4.27,9.67,6.62,15.53,6.45,13.99-.05,25.29-11.44,25.23-25.43,0-.33,0-.65-.02-.98.63-14.21-10.38-26.23-24.59-26.86-.23-.01-.46-.02-.69-.02-5.95-.21-11.61,2.54-15.12,7.35v-5.68h-.36Z"/>
      <path class="cls-2" d="m441.51,526.72c-3.67-1.98-7.78-2.98-11.95-2.93-14.81-.43-27.16,11.22-27.59,26.03-.01.4-.01.81,0,1.21.13,14.58,12.05,26.3,26.63,26.18.18,0,.37,0,.55-.01,4.32.03,8.59-.93,12.49-2.81v-15.06c-2.44,2.17-5.58,3.38-8.84,3.41-6.76,0-12.25-5.47-12.26-12.24,0-6.76,5.47-12.25,12.24-12.26h.02c3.35.15,6.56,1.39,9.14,3.52v-15.06h-.42Z"/>
      <path class="cls-2" d="m300.04,506.05c-7.1-3.8-15.01-5.85-23.06-5.97-13.17-.83-24.53,9.17-25.36,22.34-.05.78-.06,1.55-.03,2.33,0,14.28,7.95,17.39,19.89,20.79,4.12,1.14,11.65,3.05,11.65,8.42s-4.78,7.41-9.26,7.41c-6.41-.36-12.45-3.09-16.97-7.65l-8.24,15.41c7.55,5.4,16.59,8.34,25.87,8.42,7.57.21,14.97-2.24,20.91-6.93,5.35-5.16,8.13-12.42,7.59-19.83,0-11.95-7.89-17.09-17.92-20.07l-4.84-1.49c-3.35-1.08-8.54-2.75-8.54-6.99s4.72-5.97,8.24-5.97c4.65.1,9.13,1.81,12.67,4.84l7.65-14.82-.24-.24Z"/>
      <polygon class="cls-2" points="328.65 525.52 310.91 525.52 310.91 575.59 328.65 575.59 328.65 525.52 328.65 525.52"/>
      <path class="cls-2" d="m354.76,461.9c-3.52.11-6.93-1.18-9.5-3.58-1.81-1.75-3.15-3.93-3.88-6.33-1.73,6.51-5.97,9.92-15.23,9.92h-18.64c-3.41,13.36-16.18,22.12-29.87,20.49h-1.02c-2.7-.28-5.33-.96-7.83-2.03-.94-.37-1.8-.9-2.57-1.55v14.46h-17.27v-40.86c.12-5.45,2.25-10.66,5.97-14.64,6.19-6,14.57-9.19,23.18-8.84,12.47-.86,24.1,6.36,28.86,17.92h12.96c3.92-.13,7.05-3.31,7.11-7.23v-28.5h17.92v28.44c.05,3.99,3.32,7.19,7.31,7.14.21,0,.42-.01.63-.04h125.46v-2.45c0-8.9-8.3-8.13-13.08-8.13h-90.69v-15.47l18.52-17.92h24.44l-19.42,17.92h73.6c12.37,0,20.85,5.44,20.85,18.94v6.93h15.47c8.9,0,8.07-9.32,8.07-14.1v-21.27h17.92v22.28c0,4.84-.78,13.26,8.07,13.26h21.81c8.9,0,8.07-8.42,8.07-13.26v-22.28h17.92v23.9s-1.08,13.44,7.71,13.32c7.83,0,7.83-8.42,7.83-13.86v-23.54h17.56v23.6c0,5.97,0,13.44,8.42,13.44s7.17-8.36,7.17-13.44v-23.6h17.56v32.08c0,10.34-4.42,18.94-16.85,18.94-6.9.15-13.33-3.47-16.79-9.44-3.3,6.12-9.85,9.77-16.79,9.38-6.19.21-12.08-2.71-15.65-7.77l-1.73-2.87c-1.58,7.1-8.41,11.75-15.59,10.63h-25.63c-5.9.56-11.53-2.57-14.16-7.89l-1.37-3.11c-1.65,7.12-8.4,11.85-15.65,10.99h-161.31.12Zm-76.83-17.92c-6.03-.32-11.18,4.3-11.5,10.33-.03.54-.02,1.08.03,1.62-.28,5.93,4.31,10.97,10.24,11.24.41.02.82.01,1.23-.01,5.93.4,11.06-4.07,11.46-10,.03-.41.03-.82.01-1.23.27-6.03-4.4-11.14-10.43-11.41-.35-.02-.69-.01-1.04,0v-.54Z"/>
      <path class="cls-2" d="m451.73,608.81v-4.3c1.2-.25,2.42-.39,3.64-.42h7.77c-.04.94-.37,1.84-.96,2.57-.99.12-2,.12-2.99,0h-3.47v5.97h6.99c-.3,2.33-1.02,2.81-2.15,2.81h-4.84v6.57c.99.12,1.99.12,2.99,0,1.71.09,3.43.09,5.14,0h0c-.11,1.14-.76,2.15-1.73,2.75-1.45.08-2.91.08-4.36,0-2,.06-4-.06-5.97-.36l-.48-.66.42-14.94Z"/>
      <path class="cls-2" d="m467.02,604.62c1.24-.38,2.53-.62,3.82-.72.36,0,.66,0,1.08,1.08,1.85,2.99,2.87,4.54,3.94,6.33,1.19-1.79,2.99-4.54,4.36-6.75.36-.48.54-.66.84-.66.99.08,1.96.32,2.87.72h0c-1.02,1.61-3.64,5.44-6.33,9.26l6.81,10.87h0c-1.21.4-2.49.58-3.76.54-.42,0-.72,0-1.08-.72-1.31-2.03-2.69-4.36-4.42-7.41-1.55,2.69-3.76,5.97-4.6,7.41-.16.35-.51.59-.9.6-1.05,0-2.09-.14-3.11-.42h0c1.43-2.15,4.48-6.57,6.87-10.22-1.85-2.99-5.2-8.3-6.39-9.98v.06Z"/>
      <path class="cls-2" d="m502.69,621.89c-.06.97-.44,1.89-1.08,2.63-1.4.85-3.02,1.27-4.66,1.19-5.61.64-10.67-3.38-11.31-8.99-.07-.63-.09-1.26-.04-1.88-.27-5.97,4.34-11.02,10.31-11.29.35-.02.69-.01,1.04,0,2.13-.14,4.25.47,5.97,1.73,0,1.14-.66,2.27-1.67,2.09-1.34-.57-2.78-.88-4.24-.9-3.89-.04-7.08,3.08-7.12,6.98,0,.36.02.73.07,1.09-.37,4.11,2.66,7.74,6.77,8.11.37.03.75.04,1.12.02,1.59-.04,3.16-.32,4.66-.84l.18.06Z"/>
      <path class="cls-2" d="m506.63,608.81v-4.3c1.18-.25,2.38-.39,3.58-.42h7.83c-.07.93-.4,1.82-.96,2.57-1.01.12-2.04.12-3.05,0h-3.35v5.97h6.99c-.3,2.33-.96,2.81-2.09,2.81h-4.9v6.57c.99.11,1.99.11,2.99,0h5.2c-.12,1.12-.73,2.13-1.67,2.75-1.45.08-2.91.08-4.36,0-1.9.05-3.8-.07-5.68-.36l-.48-.66-.06-14.94Z"/>
      <path class="cls-2" d="m522.05,608.57v-4.36c1.15-.08,2.31-.08,3.47,0,.54,0,.66,0,.66,2.03v16.37c.95.12,1.92.12,2.87,0,1.61.09,3.23.09,4.84,0h0c-.1,1.11-.69,2.12-1.61,2.75-1.35.09-2.71.09-4.06,0-1.86.04-3.72-.08-5.56-.36l-.48-.66-.12-15.77Z"/>
      <path class="cls-2" d="m536.86,608.57v-4.36c1.15-.08,2.31-.08,3.47,0,.54,0,.6,0,.6,2.03v16.37c.97.12,1.96.12,2.93,0,1.61.09,3.23.09,4.84,0h0c-.1,1.11-.69,2.12-1.61,2.75-1.35.09-2.71.09-4.06,0-1.88.04-3.76-.08-5.62-.36l-.42-.66-.12-15.77Z"/>
      <path class="cls-2" d="m551.62,608.81v-4.3c1.2-.25,2.42-.39,3.64-.42h7.77c-.04.94-.37,1.84-.96,2.57-.99.12-2,.12-2.99,0h-3.35v5.97h6.99c0,2.33-1.02,2.81-2.15,2.81h-4.84v6.57c.99.12,1.99.12,2.99,0h5.2c-.11,1.14-.76,2.15-1.73,2.75-1.45.08-2.91.08-4.36,0-2,.06-4-.06-5.97-.36l-.48-.66.24-14.94Z"/>
      <path class="cls-2" d="m568.23,604.38h3.94c.37.06.7.28.9.6l5.97,9.56c1.25,1.91,2.37,3.91,3.35,5.97v-15.23c0-.78,0-.9.66-.96h2.63v20.85c-.99.29-2.01.47-3.05.54-.34.03-.65-.17-.78-.48-1.67-2.45-3.35-5.08-5.97-9.2-1.67-2.81-2.63-4.72-3.94-7.35v15.77c0,.72,0,.78-.72.9-.85.07-1.71.07-2.57,0v-20.07l-.42-.9Z"/>
      <path class="cls-2" d="m606.28,621.89c-.06.97-.44,1.89-1.08,2.63-1.4.85-3.02,1.27-4.66,1.19-5.61.57-10.63-3.51-11.2-9.12-.06-.58-.07-1.17-.03-1.75-.27-5.97,4.34-11.02,10.31-11.29.35-.02.69-.01,1.04,0,2.13-.14,4.25.47,5.97,1.73,0,1.14-.66,2.27-1.67,2.09-1.34-.57-2.78-.88-4.24-.9-3.89-.04-7.08,3.08-7.12,6.98,0,.36.02.73.07,1.09-.37,4.11,2.66,7.74,6.77,8.11.37.03.75.04,1.12.02,1.59-.04,3.16-.32,4.66-.84l.06.06Z"/>
      <path class="cls-2" d="m610.17,608.81v-4.3c1.2-.25,2.42-.39,3.64-.42h7.77c-.01.94-.35,1.85-.96,2.57-.99.12-2,.12-2.99,0h-3.35v5.97h6.99c0,2.33-1.02,2.81-2.15,2.81h-4.84v6.57c.99.12,1.99.12,2.99,0h5.2c-.11,1.14-.76,2.15-1.73,2.75-1.45.08-2.91.08-4.36,0-1.9.05-3.8-.07-5.68-.36l-.48-.66-.06-14.94Z"/>
      <path class="cls-2" d="m656.11,620.28c-.07,1.83-.97,3.52-2.45,4.6-1.39.56-2.87.87-4.36.9-5.42.49-10.21-3.52-10.7-8.94-.07-.76-.05-1.53.06-2.29-.61-5.97,3.74-11.31,9.72-11.92.13-.01.25-.02.38-.03,4.45-.14,8.18,3.35,8.32,7.8,0,.29,0,.58-.02.86.08.53.08,1.08,0,1.61,0,.78-1.97,1.43-3.94,1.91-2.86.21-5.74.21-8.6,0-.01,3.3,2.66,5.98,5.96,5.99.17,0,.33,0,.5-.02,1.81-.02,3.6-.41,5.26-1.14l-.12.66Zm-7.89-14.04c-1.73,0-3.58,1.73-3.82,5.44,2.23.15,4.46.15,6.69,0,0,0,.6-.48.6-1.02,0-2.45-1.02-4.42-3.41-4.42h-.06Z"/>
      <path class="cls-2" d="m663.7,602.77c.6,0,.96.48,1.19,1.14,1.08,3.35,2.93,8.9,4.6,14.76,1.91-5.97,4.06-11.95,5.2-15.89,1.25-.03,2.48.26,3.58.84,1.02.42.78,1.49,0,3.29-1.97,5.14-4.66,11.95-6.63,17.09-.19.67-.75,1.18-1.43,1.31-1.21.29-2.46.45-3.7.48-1.55-4.84-3.29-9.5-5.38-15.35-.96-2.63-1.67-4.6-2.45-6.39,1.51-.74,3.16-1.17,4.84-1.25h.18Z"/>
      <path class="cls-2" d="m697.99,620.28c-.07,1.83-.97,3.52-2.45,4.6-1.39.56-2.87.87-4.36.9-5.42.49-10.21-3.52-10.7-8.94-.07-.76-.05-1.53.06-2.29-.64-5.94,3.65-11.27,9.59-11.91.15-.02.3-.03.44-.04,4.49-.14,8.24,3.38,8.38,7.86,0,.27,0,.53-.01.8.08.53.08,1.08,0,1.61,0,.78-2.03,1.43-3.94,1.91-2.88.21-5.78.21-8.66,0-.01,3.3,2.66,5.98,5.96,5.99.17,0,.33,0,.5-.02,1.81,0,3.6-.39,5.26-1.14l-.06.66Zm-7.89-14.04c-1.73,0-3.64,1.73-3.82,5.44,2.23.15,4.46.15,6.69,0,.3,0,.6-.48.6-1.02,0-2.45-1.02-4.42-3.47-4.42Z"/>
      <path class="cls-2" d="m702.29,605.28c.65-1.39,1.95-2.35,3.47-2.57,2.03,0,2.87,2.09,2.93,5.14,1.37-3.35,3.35-5.14,5.97-5.14.81.05,1.58.34,2.21.84.34.95.34,1.98,0,2.93,0,1.02-1.14,2.27-1.85,2.33-.7-.31-1.45-.47-2.21-.48-.78,0-2.15.6-2.87,2.69-.3.76-.44,1.57-.42,2.39v10.4c0,.78,0,1.19-1.08,1.37-1.59.09-3.19.09-4.78,0v-17.39c.13-.99-.28-1.97-1.08-2.57l-.3.06Z"/>
      <path class="cls-2" d="m720.99,633.24c2.29-2.86,4.29-5.95,5.97-9.2-.43-.7-.79-1.44-1.08-2.21-.9-2.33-4.96-13.74-6.75-17.92,1.49-.76,3.11-1.23,4.78-1.37.9,0,1.08.6,1.43,1.37,1.14,3.23,3.41,10.22,4.54,13.92,1.82-4.99,3.27-10.1,4.36-15.29,1.09.09,2.17.27,3.23.54,1.14,0,1.25.96.96,2.15-1.41,6-3.41,11.84-5.97,17.45-1.71,4.68-4.4,8.93-7.89,12.49-1.47-.05-2.85-.7-3.82-1.79l.24-.12Z"/>
      <path class="cls-2" d="m746.09,602.77c.6,0,.9.36,1.08,1.19,1.08,3.76,2.03,7.83,3.64,14.76,2.21-7.59,2.93-9.68,3.82-13.02v-1.49c1.35-.46,2.76-.77,4.18-.9.72,0,.9.54,1.19,1.67.84,3.47,2.33,8.9,3.47,13.44,1.61-5.2,3.35-11.59,4.36-15.65,1.31.04,2.62.24,3.88.6.6,0,.72.96,0,2.63-1.97,5.97-3.88,11.59-5.97,17.92-.3,1.02-.48,1.43-1.43,1.67-1.26.26-2.54.4-3.82.42-1.25-4.84-2.39-8.6-3.76-14.1-1.02,3.35-2.45,7.77-3.76,11.95,0,1.02-.6,1.37-1.31,1.61-1.22.25-2.46.39-3.7.42-1.25-4-2.69-9.14-4.48-14.82-1.02-3.29-1.67-5.26-2.33-6.93,1.62-.66,3.33-1.09,5.08-1.25l-.12-.12Z"/>
      <path class="cls-2" d="m781.1,605.7c1.76-1.75,4.1-2.79,6.57-2.93,4.42,0,6.69,3.58,6.69,8.84v13.5c-1.62.21-3.26.33-4.9.36-.72,0-.96-.3-.96-1.02v-12.61c0-2.93-1.43-4.54-3.58-4.54-1.49.08-2.9.67-4,1.67v14.88c0,.9,0,1.19-1.08,1.37-1.57.09-3.15.09-4.72,0v-27.42c.1-1.77.1-3.55,0-5.32,1.63-.5,3.32-.8,5.02-.9.66,0,.84,0,.84,3.23l.12,10.87Z"/>
      <path class="cls-2" d="m816.22,620.28c-.07,1.83-.97,3.52-2.45,4.6-1.39.56-2.87.87-4.36.9-5.42.49-10.21-3.52-10.7-8.94-.07-.76-.05-1.53.06-2.29-.64-5.94,3.65-11.27,9.59-11.91.15-.02.3-.03.44-.04,4.42-.18,8.15,3.25,8.33,7.67.01.33,0,.66-.02.99.07.54.07,1.08,0,1.61,0,.78-2.03,1.43-3.94,1.91-2.88.21-5.78.21-8.66,0-.01,3.3,2.66,5.98,5.96,5.99.17,0,.33,0,.5-.02,1.81,0,3.6-.39,5.26-1.14v.66Zm-8.01-14.04c-1.73,0-3.64,1.73-3.82,5.44,2.23.15,4.46.15,6.69,0,0,0,.6-.48.6-1.02,0-2.45-1.08-4.42-3.47-4.42Z"/>
      <path class="cls-2" d="m820.53,605.28c.64-1.39,1.95-2.36,3.47-2.57,2.03,0,2.87,2.09,2.93,5.14,1.37-3.35,3.35-5.14,5.97-5.14.81.03,1.58.33,2.21.84.34.95.34,1.98,0,2.93,0,1.02-1.14,2.27-1.85,2.33-.71-.32-1.49-.49-2.27-.48-.72,0-2.09.6-2.81,2.69-.32.76-.48,1.57-.48,2.39v10.4c0,.78,0,1.19-1.02,1.37-1.59.09-3.19.09-4.78,0v-17.39c.13-.99-.28-1.97-1.08-2.57l-.3.06Z"/>
      <path class="cls-2" d="m853.98,620.28c-.07,1.83-.97,3.52-2.45,4.6-1.38.57-2.86.87-4.36.9-5.42.49-10.21-3.52-10.7-8.94-.07-.76-.05-1.53.06-2.29-.64-5.94,3.65-11.27,9.59-11.91.15-.02.3-.03.44-.04,4.49-.14,8.23,3.39,8.37,7.87,0,.22,0,.45,0,.67.08.53.08,1.08,0,1.61,0,.78-2.03,1.43-3.94,1.91-2.86.21-5.74.21-8.6,0,0,3.3,2.66,5.98,5.96,5.99.14,0,.29,0,.43-.01,1.81,0,3.6-.39,5.26-1.14l-.06.78Zm-7.89-14.04c-1.73,0-3.64,1.73-3.82,5.44,2.23.15,4.46.15,6.69,0,.3,0,.6-.48.6-1.02,0-2.45-1.02-4.42-3.47-4.42Z"/>
    </g>
  </g>
</svg>